<?xml version="1.0" encoding="UTF-8" standalone="no"?>
<!DOCTYPE svg PUBLIC "-//W3C//DTD SVG 1.1//EN"
 "http://www.w3.org/Graphics/SVG/1.1/DTD/svg11.dtd">
<!-- Generated by graphviz version 14.1.4 (20260321.0153)
 -->
<!-- Title: system_planes Pages: 1 -->
<svg width="1553pt" height="883pt"
 viewBox="0.00 0.00 1553.00 883.00" xmlns="http://www.w3.org/2000/svg" xmlns:xlink="http://www.w3.org/1999/xlink">
<g id="graph0" class="graph" transform="scale(1 1) rotate(0) translate(28.8 853.99)">
<title>system_planes</title>
<polygon fill="white" stroke="none" points="-28.8,28.8 -28.8,-853.99 1524.67,-853.99 1524.67,28.8 -28.8,28.8"/>
<text xml:space="preserve" text-anchor="start" x="618.19" y="-811.74" font-family="Helvetica,sans-Serif" font-weight="bold" font-size="11.00">MalAnalyzer &#45; System Planes &amp; Trust Architecture</text>
<text xml:space="preserve" text-anchor="start" x="470.81" y="-801.69" font-family="Helvetica,sans-Serif" font-size="10.00">Three strongly&#45;isolated planes. Every edge is an allowed crossing; the barred red edge is a path that structurally does not exist.</text>
<g id="clust1" class="cluster">
<title>cluster_control</title>
<path fill="#e8f5e9" stroke="#2e7d32" stroke-width="2" d="M20,-340.13C20,-340.13 636,-340.13 636,-340.13 642,-340.13 648,-346.13 648,-352.13 648,-352.13 648,-644.87 648,-644.87 648,-650.87 642,-656.87 636,-656.87 636,-656.87 20,-656.87 20,-656.87 14,-656.87 8,-650.87 8,-644.87 8,-644.87 8,-352.13 8,-352.13 8,-346.13 14,-340.13 20,-340.13"/>
<text xml:space="preserve" text-anchor="start" x="193.38" y="-643.42" font-family="Helvetica,sans-Serif" font-weight="bold" font-size="11.00" fill="#1b5e20">CONTROL PLANE</text>
<text xml:space="preserve" text-anchor="start" x="289.38" y="-643.42" font-family="Helvetica,sans-Serif" font-size="11.00" fill="#1b5e20"> &#160;(trusted &#45; never executes malware)</text>
</g>
<g id="clust2" class="cluster">
<title>cluster_data</title>
<path fill="#e3f2fd" stroke="#1565c0" stroke-width="2" d="M112,-202.42C112,-202.42 382,-202.42 382,-202.42 388,-202.42 394,-208.42 394,-214.42 394,-214.42 394,-287.38 394,-287.38 394,-293.38 388,-299.38 382,-299.38 382,-299.38 112,-299.38 112,-299.38 106,-299.38 100,-293.38 100,-287.38 100,-287.38 100,-214.42 100,-214.42 100,-208.42 106,-202.42 112,-202.42"/>
<text xml:space="preserve" text-anchor="start" x="124.38" y="-285.93" font-family="Helvetica,sans-Serif" font-weight="bold" font-size="11.00" fill="#0d47a1">DATA PLANE</text>
<text xml:space="preserve" text-anchor="start" x="194.88" y="-285.93" font-family="Helvetica,sans-Serif" font-size="11.00" fill="#0d47a1"> &#160;(parses hostile bytes, no execution)</text>
</g>
<g id="clust3" class="cluster">
<title>cluster_med</title>
<path fill="#fff8e1" stroke="#f9a825" stroke-width="2" d="M669,-334.13C669,-334.13 917,-334.13 917,-334.13 923,-334.13 929,-340.13 929,-346.13 929,-346.13 929,-407.09 929,-407.09 929,-413.09 923,-419.09 917,-419.09 917,-419.09 669,-419.09 669,-419.09 663,-419.09 657,-413.09 657,-407.09 657,-407.09 657,-346.13 657,-346.13 657,-340.13 663,-334.13 669,-334.13"/>
<text xml:space="preserve" text-anchor="start" x="668.88" y="-405.64" font-family="Helvetica,sans-Serif" font-weight="bold" font-size="11.00" fill="#e65100">MEDIATION</text>
<text xml:space="preserve" text-anchor="start" x="729.62" y="-405.64" font-family="Helvetica,sans-Serif" font-size="11.00" fill="#e65100"> &#160;(third network, trusted by neither side)</text>
</g>
<g id="clust4" class="cluster">
<title>cluster_det</title>
<path fill="#ffebee" stroke="#c62828" stroke-width="2" d="M414,-8C414,-8 1015,-8 1015,-8 1021,-8 1027,-14 1027,-20 1027,-20 1027,-275.38 1027,-275.38 1027,-281.38 1021,-287.38 1015,-287.38 1015,-287.38 414,-287.38 414,-287.38 408,-287.38 402,-281.38 402,-275.38 402,-275.38 402,-20 402,-20 402,-14 408,-8 414,-8"/>
<text xml:space="preserve" text-anchor="start" x="527" y="-273.93" font-family="Helvetica,sans-Serif" font-weight="bold" font-size="11.00" fill="#b71c1c">DETONATION PLANE</text>
<text xml:space="preserve" text-anchor="start" x="640.25" y="-273.93" font-family="Helvetica,sans-Serif" font-size="11.00" fill="#b71c1c"> &#160;(executes malware, assume&#45;breach, DEAD&#45;ENDED)</text>
</g>
<g id="clust5" class="cluster">
<title>cluster_store</title>
<path fill="#eceff1" stroke="#546e7a" stroke-width="1.8" d="M669,-463.59C669,-463.59 1223,-463.59 1223,-463.59 1229,-463.59 1235,-469.59 1235,-475.59 1235,-475.59 1235,-776.19 1235,-776.19 1235,-782.19 1229,-788.19 1223,-788.19 1223,-788.19 669,-788.19 669,-788.19 663,-788.19 657,-782.19 657,-776.19 657,-776.19 657,-475.59 657,-475.59 657,-469.59 663,-463.59 669,-463.59"/>
<text xml:space="preserve" text-anchor="start" x="870.62" y="-774.74" font-family="Helvetica,sans-Serif" font-weight="bold" font-size="11.00" fill="#37474f">STORES</text>
<text xml:space="preserve" text-anchor="start" x="916.38" y="-774.74" font-family="Helvetica,sans-Serif" font-size="11.00" fill="#37474f"> &#160;(control / data plane)</text>
</g>
<!-- AN -->
<g id="node1" class="node">
<title>AN</title>
<path fill="#e1bee7" stroke="#6a1b9a" stroke-width="1.4" d="M619.08,-753.26C619.08,-753.26 454.92,-753.26 454.92,-753.26 448.92,-753.26 442.92,-747.26 442.92,-741.26 442.92,-741.26 442.92,-728.3 442.92,-728.3 442.92,-722.3 448.92,-716.3 454.92,-716.3 454.92,-716.3 619.08,-716.3 619.08,-716.3 625.08,-716.3 631.08,-722.3 631.08,-728.3 631.08,-728.3 631.08,-741.26 631.08,-741.26 631.08,-747.26 625.08,-753.26 619.08,-753.26"/>
<text xml:space="preserve" text-anchor="middle" x="537" y="-736.33" font-family="Helvetica,sans-Serif" font-size="11.00">Analyst (browser SPA)</text>
<text xml:space="preserve" text-anchor="middle" x="537" y="-724.33" font-family="Helvetica,sans-Serif" font-size="11.00">mediated noVNC, per&#45;user Jupyter</text>
</g>
<!-- GW -->
<g id="node2" class="node">
<title>GW</title>
<path fill="#c8e6c9" stroke="#2e7d32" stroke-width="1.4" d="M626.21,-628.87C626.21,-628.87 447.8,-628.87 447.8,-628.87 441.8,-628.87 435.8,-622.87 435.8,-616.87 435.8,-616.87 435.8,-603.91 435.8,-603.91 435.8,-597.91 441.8,-591.91 447.8,-591.91 447.8,-591.91 626.21,-591.91 626.21,-591.91 632.21,-591.91 638.21,-597.91 638.21,-603.91 638.21,-603.91 638.21,-616.87 638.21,-616.87 638.21,-622.87 632.21,-628.87 626.21,-628.87"/>
<text xml:space="preserve" text-anchor="middle" x="537" y="-611.94" font-family="Helvetica,sans-Serif" font-size="11.00">API Gateway (Go)</text>
<text xml:space="preserve" text-anchor="middle" x="537" y="-599.94" font-family="Helvetica,sans-Serif" font-size="11.00">OIDC, OPA default&#45;deny, mTLS, audit</text>
</g>
<!-- AN&#45;&gt;GW -->
<g id="edge1" class="edge">
<title>AN&#45;&gt;GW</title>
<path fill="none" stroke="#37474f" stroke-width="1.2" d="M537,-715.72C537,-696.11 537,-664.46 537,-641.16"/>
<polygon fill="#37474f" stroke="#37474f" stroke-width="1.2" points="540.5,-641.34 537,-631.34 533.5,-641.34 540.5,-641.34"/>
<text xml:space="preserve" text-anchor="middle" x="562.88" y="-675.35" font-family="Helvetica,sans-Serif" font-size="9.50"> (1) authn/z</text>
<text xml:space="preserve" text-anchor="middle" x="562.88" y="-665.6" font-family="Helvetica,sans-Serif" font-size="9.50"> &#160;&#160;&#160;mediated</text>
</g>
<!-- ORCH -->
<g id="node3" class="node">
<title>ORCH</title>
<path fill="#c8e6c9" stroke="#2e7d32" stroke-width="1.4" d="M628.33,-521.48C628.33,-521.48 435.67,-521.48 435.67,-521.48 429.67,-521.48 423.67,-515.48 423.67,-509.48 423.67,-509.48 423.67,-484.52 423.67,-484.52 423.67,-478.52 429.67,-472.52 435.67,-472.52 435.67,-472.52 628.33,-472.52 628.33,-472.52 634.33,-472.52 640.33,-478.52 640.33,-484.52 640.33,-484.52 640.33,-509.48 640.33,-509.48 640.33,-515.48 634.33,-521.48 628.33,-521.48"/>
<text xml:space="preserve" text-anchor="middle" x="532" y="-504.55" font-family="Helvetica,sans-Serif" font-size="11.00">Orchestrator</text>
<text xml:space="preserve" text-anchor="middle" x="532" y="-492.55" font-family="Helvetica,sans-Serif" font-size="11.00">Temporal durable DAG, cap enforcement</text>
<text xml:space="preserve" text-anchor="middle" x="532" y="-480.55" font-family="Helvetica,sans-Serif" font-size="11.00">, fail&#45;closed aggregation</text>
</g>
<!-- GW&#45;&gt;ORCH -->
<g id="edge2" class="edge">
<title>GW&#45;&gt;ORCH</title>
<path fill="none" stroke="#37474f" stroke-width="1.2" d="M536.2,-591.49C535.5,-575.98 534.47,-553.07 533.61,-533.8"/>
<polygon fill="#37474f" stroke="#37474f" stroke-width="1.2" points="537.11,-533.73 533.16,-523.9 530.11,-534.05 537.11,-533.73"/>
<text xml:space="preserve" text-anchor="middle" x="565.32" y="-553.01" font-family="Helvetica,sans-Serif" font-size="9.50"> start workflow</text>
</g>
<!-- VAULT -->
<g id="node16" class="node">
<title>VAULT</title>
<path fill="#cfd8dc" stroke="#546e7a" stroke-width="1.4" d="M882.33,-517.79C882.33,-520.34 833.77,-522.41 774,-522.41 714.23,-522.41 665.67,-520.34 665.67,-517.79 665.67,-517.79 665.67,-476.21 665.67,-476.21 665.67,-473.66 714.23,-471.59 774,-471.59 833.77,-471.59 882.33,-473.66 882.33,-476.21 882.33,-476.21 882.33,-517.79 882.33,-517.79"/>
<path fill="none" stroke="#546e7a" stroke-width="1.4" d="M882.33,-517.79C882.33,-515.24 833.77,-513.17 774,-513.17 714.23,-513.17 665.67,-515.24 665.67,-517.79"/>
<text xml:space="preserve" text-anchor="middle" x="774" y="-498.55" font-family="Helvetica,sans-Serif" font-size="11.00">Sample vault</text>
<text xml:space="preserve" text-anchor="middle" x="774" y="-486.55" font-family="Helvetica,sans-Serif" font-size="11.00">S3 (SeaweedFS), envelope&#45;enc, WORM</text>
</g>
<!-- GW&#45;&gt;VAULT -->
<g id="edge3" class="edge">
<title>GW&#45;&gt;VAULT</title>
<path fill="none" stroke="#37474f" stroke-width="1.2" d="M575.61,-591.25C612,-574.14 667.22,-548.19 710.17,-528"/>
<polygon fill="#37474f" stroke="#37474f" stroke-width="1.2" points="711.6,-531.2 719.16,-523.77 708.62,-524.86 711.6,-531.2"/>
<text xml:space="preserve" text-anchor="middle" x="710.98" y="-557.89" font-family="Helvetica,sans-Serif" font-size="9.50"> stream, SHA&#45;256</text>
<text xml:space="preserve" text-anchor="middle" x="710.98" y="-548.14" font-family="Helvetica,sans-Serif" font-size="9.50"> envelope&#45;enc, WORM</text>
</g>
<!-- NATS -->
<g id="node4" class="node">
<title>NATS</title>
<path fill="#c8e6c9" stroke="#2e7d32" stroke-width="1.4" d="M395.2,-385.09C395.2,-385.09 222.8,-385.09 222.8,-385.09 216.8,-385.09 210.8,-379.09 210.8,-373.09 210.8,-373.09 210.8,-360.13 210.8,-360.13 210.8,-354.13 216.8,-348.13 222.8,-348.13 222.8,-348.13 395.2,-348.13 395.2,-348.13 401.2,-348.13 407.2,-354.13 407.2,-360.13 407.2,-360.13 407.2,-373.09 407.2,-373.09 407.2,-379.09 401.2,-385.09 395.2,-385.09"/>
<text xml:space="preserve" text-anchor="middle" x="309" y="-368.16" font-family="Helvetica,sans-Serif" font-size="11.00">Dispatch bus</text>
<text xml:space="preserve" text-anchor="middle" x="309" y="-356.16" font-family="Helvetica,sans-Serif" font-size="11.00">NATS JetStream (per&#45;class streams)</text>
</g>
<!-- ORCH&#45;&gt;NATS -->
<g id="edge4" class="edge">
<title>ORCH&#45;&gt;NATS</title>
<path fill="none" stroke="#37474f" stroke-width="1.2" d="M490.06,-471.85C450.1,-448.85 390.3,-414.42 350.49,-391.5"/>
<polygon fill="#37474f" stroke="#37474f" stroke-width="1.2" points="352.32,-388.51 341.9,-386.55 348.82,-394.58 352.32,-388.51"/>
<text xml:space="preserve" text-anchor="middle" x="466.72" y="-432.69" font-family="Helvetica,sans-Serif" font-size="9.50"> (2) dispatch</text>
</g>
<!-- AIGW -->
<g id="node5" class="node">
<title>AIGW</title>
<path fill="#c8e6c9" stroke="#2e7d32" stroke-width="1.4" stroke-dasharray="5,2" d="M627.83,-385.09C627.83,-385.09 444.17,-385.09 444.17,-385.09 438.17,-385.09 432.17,-379.09 432.17,-373.09 432.17,-373.09 432.17,-360.13 432.17,-360.13 432.17,-354.13 438.17,-348.13 444.17,-348.13 444.17,-348.13 627.83,-348.13 627.83,-348.13 633.83,-348.13 639.83,-354.13 639.83,-360.13 639.83,-360.13 639.83,-373.09 639.83,-373.09 639.83,-379.09 633.83,-385.09 627.83,-385.09"/>
<text xml:space="preserve" text-anchor="middle" x="536" y="-368.16" font-family="Helvetica,sans-Serif" font-size="11.00">AI Gateway &#160;(P2)</text>
<text xml:space="preserve" text-anchor="middle" x="536" y="-356.16" font-family="Helvetica,sans-Serif" font-size="11.00">quarantine / dual&#45;LLM, per&#45;case tokens</text>
</g>
<!-- ORCH&#45;&gt;AIGW -->
<g id="edge11" class="edge">
<title>ORCH&#45;&gt;AIGW</title>
<path fill="none" stroke="#9e9e9e" stroke-width="1.1" stroke-dasharray="5,2" d="M532.75,-471.85C533.41,-450.64 534.38,-419.73 535.08,-397.07"/>
<polygon fill="#9e9e9e" stroke="#9e9e9e" stroke-width="1.1" points="538.58,-397.22 535.39,-387.12 531.58,-397 538.58,-397.22"/>
<text xml:space="preserve" text-anchor="middle" x="544.24" y="-432.69" font-family="Helvetica,sans-Serif" font-size="9.50" fill="#9e9e9e"> (P2)</text>
</g>
<!-- HUNT -->
<g id="node6" class="node">
<title>HUNT</title>
<path fill="#c8e6c9" stroke="#2e7d32" stroke-width="1.4" stroke-dasharray="5,2" d="M173.7,-385.09C173.7,-385.09 28.3,-385.09 28.3,-385.09 22.3,-385.09 16.3,-379.09 16.3,-373.09 16.3,-373.09 16.3,-360.13 16.3,-360.13 16.3,-354.13 22.3,-348.13 28.3,-348.13 28.3,-348.13 173.7,-348.13 173.7,-348.13 179.7,-348.13 185.7,-354.13 185.7,-360.13 185.7,-360.13 185.7,-373.09 185.7,-373.09 185.7,-379.09 179.7,-385.09 173.7,-385.09"/>
<text xml:space="preserve" text-anchor="middle" x="101" y="-368.16" font-family="Helvetica,sans-Serif" font-size="11.00">Hunting / TI &#160;(P2)</text>
<text xml:space="preserve" text-anchor="middle" x="101" y="-356.16" font-family="Helvetica,sans-Serif" font-size="11.00">YARA&#45;X retro/live, graph pivots</text>
</g>
<!-- ORCH&#45;&gt;HUNT -->
<g id="edge12" class="edge">
<title>ORCH&#45;&gt;HUNT</title>
<path fill="none" stroke="#9e9e9e" stroke-width="1.1" stroke-dasharray="5,2" d="M423.11,-478.39C356.78,-465.84 271.03,-446.34 198,-419.09 178.14,-411.68 157.24,-401 139.94,-391.28"/>
<polygon fill="#9e9e9e" stroke="#9e9e9e" stroke-width="1.1" points="142.07,-388.47 131.65,-386.53 138.59,-394.54 142.07,-388.47"/>
<text xml:space="preserve" text-anchor="middle" x="288.51" y="-432.69" font-family="Helvetica,sans-Serif" font-size="9.50" fill="#9e9e9e"> (P2)</text>
</g>
<!-- PUMP -->
<g id="node8" class="node">
<title>PUMP</title>
<path fill="#ffe082" stroke="#f9a825" stroke-width="1.4" d="M909.21,-391.09C909.21,-391.09 676.79,-391.09 676.79,-391.09 670.79,-391.09 664.79,-385.09 664.79,-379.09 664.79,-379.09 664.79,-354.13 664.79,-354.13 664.79,-348.13 670.79,-342.13 676.79,-342.13 676.79,-342.13 909.21,-342.13 909.21,-342.13 915.21,-342.13 921.21,-348.13 921.21,-354.13 921.21,-354.13 921.21,-379.09 921.21,-379.09 921.21,-385.09 915.21,-391.09 909.21,-391.09"/>
<text xml:space="preserve" text-anchor="middle" x="793" y="-374.16" font-family="Helvetica,sans-Serif" font-size="11.00">Write&#45;only data pump / guard</text>
<text xml:space="preserve" text-anchor="middle" x="793" y="-362.16" font-family="Helvetica,sans-Serif" font-size="11.00">PULLS from detonation, strict JSON&#45;Schema</text>
<text xml:space="preserve" text-anchor="middle" x="793" y="-350.16" font-family="Helvetica,sans-Serif" font-size="11.00">validate in sandboxed parser, continuously fuzzed</text>
</g>
<!-- ORCH&#45;&gt;PUMP -->
<g id="edge13" class="edge">
<title>ORCH&#45;&gt;PUMP</title>
<path fill="none" stroke="#e65100" stroke-width="1.6" d="M579.54,-471.88C605.91,-458.56 639.34,-441.79 669.25,-427.09 689.37,-417.2 711.42,-406.55 731.25,-397.03"/>
<polygon fill="#e65100" stroke="#e65100" stroke-width="1.6" points="732.64,-400.25 740.15,-392.77 729.61,-393.93 732.64,-400.25"/>
<text xml:space="preserve" text-anchor="middle" x="701.12" y="-437.57" font-family="Helvetica,sans-Serif" font-size="9.50" fill="#37474f"> (3) dispatch</text>
<text xml:space="preserve" text-anchor="middle" x="701.12" y="-427.82" font-family="Helvetica,sans-Serif" font-size="9.50" fill="#37474f"> detonation job</text>
</g>
<!-- PG -->
<g id="node17" class="node">
<title>PG</title>
<path fill="#cfd8dc" stroke="#546e7a" stroke-width="1.4" d="M799.46,-755.57C799.46,-758.12 769.22,-760.19 732,-760.19 694.78,-760.19 664.54,-758.12 664.54,-755.57 664.54,-755.57 664.54,-713.99 664.54,-713.99 664.54,-711.44 694.78,-709.37 732,-709.37 769.22,-709.37 799.46,-711.44 799.46,-713.99 799.46,-713.99 799.46,-755.57 799.46,-755.57"/>
<path fill="none" stroke="#546e7a" stroke-width="1.4" d="M799.46,-755.57C799.46,-753.02 769.22,-750.95 732,-750.95 694.78,-750.95 664.54,-753.02 664.54,-755.57"/>
<text xml:space="preserve" text-anchor="middle" x="732" y="-736.33" font-family="Helvetica,sans-Serif" font-size="11.00">PostgreSQL</text>
<text xml:space="preserve" text-anchor="middle" x="732" y="-724.33" font-family="Helvetica,sans-Serif" font-size="11.00">relational, jobstate, RLS</text>
</g>
<!-- ORCH&#45;&gt;PG -->
<g id="edge7" class="edge">
<title>ORCH&#45;&gt;PG</title>
<path fill="none" stroke="#b0bec5" stroke-width="0.9" d="M640.84,-521.01C644.26,-521.51 647.65,-521.98 651,-522.41 703.86,-529.17 1086.91,-516.05 1130,-547.41 1147.12,-559.87 1143.16,-571.09 1147,-591.91 1152.24,-620.3 1167.14,-636.18 1147,-656.87 1135.57,-668.62 867.78,-660.43 852,-664.87 824.4,-672.63 796.46,-688.13 774.48,-702.47"/>
<polygon fill="#b0bec5" stroke="#b0bec5" stroke-width="0.9" points="772.63,-699.5 766.28,-707.97 776.53,-705.31 772.63,-699.5"/>
<text xml:space="preserve" text-anchor="middle" x="1206.36" y="-611.59" font-family="Helvetica,sans-Serif" font-size="9.00" fill="#78909c"> jobstate + findings</text>
<text xml:space="preserve" text-anchor="middle" x="1206.36" y="-601.84" font-family="Helvetica,sans-Serif" font-size="9.00" fill="#78909c"> (workers hold no creds)</text>
</g>
<!-- VK -->
<g id="node20" class="node">
<title>VK</title>
<path fill="#cfd8dc" stroke="#546e7a" stroke-width="1.4" d="M1226.7,-755.57C1226.7,-758.12 1207.56,-760.19 1184,-760.19 1160.44,-760.19 1141.3,-758.12 1141.3,-755.57 1141.3,-755.57 1141.3,-713.99 1141.3,-713.99 1141.3,-711.44 1160.44,-709.37 1184,-709.37 1207.56,-709.37 1226.7,-711.44 1226.7,-713.99 1226.7,-713.99 1226.7,-755.57 1226.7,-755.57"/>
<path fill="none" stroke="#546e7a" stroke-width="1.4" d="M1226.7,-755.57C1226.7,-753.02 1207.56,-750.95 1184,-750.95 1160.44,-750.95 1141.3,-753.02 1141.3,-755.57"/>
<text xml:space="preserve" text-anchor="middle" x="1184" y="-736.33" font-family="Helvetica,sans-Serif" font-size="11.00">Valkey</text>
<text xml:space="preserve" text-anchor="middle" x="1184" y="-724.33" font-family="Helvetica,sans-Serif" font-size="11.00">leases, cache</text>
</g>
<!-- ORCH&#45;&gt;VK -->
<g id="edge8" class="edge">
<title>ORCH&#45;&gt;VK</title>
<path fill="none" stroke="#b0bec5" stroke-width="0.9" d="M640.83,-521.04C644.26,-521.54 647.65,-522 651,-522.41 776.39,-537.93 1097.82,-511.66 1219,-547.41 1256.54,-558.48 1275.53,-557.95 1295,-591.91 1309.36,-616.96 1308.39,-631.29 1295,-656.87 1282.64,-680.46 1259.4,-698.26 1237.36,-710.76"/>
<polygon fill="#b0bec5" stroke="#b0bec5" stroke-width="0.9" points="1235.71,-707.68 1228.56,-715.49 1239.02,-713.84 1235.71,-707.68"/>
<text xml:space="preserve" text-anchor="middle" x="1320.04" y="-606.72" font-family="Helvetica,sans-Serif" font-size="9.00" fill="#78909c"> leases</text>
</g>
<!-- WORK -->
<g id="node7" class="node">
<title>WORK</title>
<path fill="#bbdefb" stroke="#1565c0" stroke-width="1.4" d="M374.46,-271.38C374.46,-271.38 119.54,-271.38 119.54,-271.38 113.54,-271.38 107.54,-265.38 107.54,-259.38 107.54,-259.38 107.54,-222.42 107.54,-222.42 107.54,-216.42 113.54,-210.42 119.54,-210.42 119.54,-210.42 374.46,-210.42 374.46,-210.42 380.46,-210.42 386.46,-216.42 386.46,-222.42 386.46,-222.42 386.46,-259.38 386.46,-259.38 386.46,-265.38 380.46,-271.38 374.46,-271.38"/>
<text xml:space="preserve" text-anchor="middle" x="247" y="-254.45" font-family="Helvetica,sans-Serif" font-size="11.00">Single&#45;use engine workers</text>
<text xml:space="preserve" text-anchor="middle" x="247" y="-242.45" font-family="Helvetica,sans-Serif" font-size="11.00">ident (Magika), extract, DIE/PE, FLOSS</text>
<text xml:space="preserve" text-anchor="middle" x="247" y="-230.45" font-family="Helvetica,sans-Serif" font-size="11.00">capa/ATT&amp;CK, YARA&#45;X, doc/script, (Ghidra/Vol P1.5)</text>
<text xml:space="preserve" text-anchor="middle" x="247" y="-218.45" font-family="Helvetica,sans-Serif" font-size="11.00">&#45; empty netns, seccomp, single&#45;use, tenant&#45;partitioned</text>
</g>
<!-- NATS&#45;&gt;WORK -->
<g id="edge5" class="edge">
<title>NATS&#45;&gt;WORK</title>
<path fill="none" stroke="#37474f" stroke-width="1.2" d="M299.98,-347.62C291.44,-330.58 278.31,-304.37 267.26,-282.32"/>
<polygon fill="#37474f" stroke="#37474f" stroke-width="1.2" points="270.45,-280.88 262.84,-273.51 264.19,-284.01 270.45,-280.88"/>
<text xml:space="preserve" text-anchor="middle" x="306.43" y="-308.11" font-family="Helvetica,sans-Serif" font-size="9.50"> static jobs</text>
</g>
<!-- VEC -->
<g id="node18" class="node">
<title>VEC</title>
<path fill="#cfd8dc" stroke="#546e7a" stroke-width="1.4" d="M977.46,-749.51C977.46,-751.31 943.19,-752.78 901,-752.78 858.81,-752.78 824.54,-751.31 824.54,-749.51 824.54,-749.51 824.54,-720.05 824.54,-720.05 824.54,-718.25 858.81,-716.78 901,-716.78 943.19,-716.78 977.46,-718.25 977.46,-720.05 977.46,-720.05 977.46,-749.51 977.46,-749.51"/>
<path fill="none" stroke="#546e7a" stroke-width="1.4" d="M977.46,-749.51C977.46,-747.7 943.19,-746.23 901,-746.23 858.81,-746.23 824.54,-747.7 824.54,-749.51"/>
<text xml:space="preserve" text-anchor="middle" x="901" y="-730.33" font-family="Helvetica,sans-Serif" font-size="11.00">Qdrant + graph engine (P2)</text>
</g>
<!-- HUNT&#45;&gt;VEC -->
<g id="edge9" class="edge">
<title>HUNT&#45;&gt;VEC</title>
<path fill="none" stroke="#b0bec5" stroke-width="0.9" stroke-dasharray="5,2" d="M126.77,-385.69C145.55,-397.73 172.13,-412.51 198,-419.09 240.43,-429.88 943,-418.84 986,-427.09 1240.75,-475.99 1331.38,-518.05 1374,-591.91 1463.2,-746.49 1164.85,-673.6 990,-709.37 983.3,-710.74 976.37,-712.33 969.46,-714.03"/>
<polygon fill="#b0bec5" stroke="#b0bec5" stroke-width="0.9" points="968.81,-710.58 959.98,-716.44 970.54,-717.37 968.81,-710.58"/>
</g>
<!-- WORK&#45;&gt;VAULT -->
<g id="edge6" class="edge">
<title>WORK&#45;&gt;VAULT</title>
<path fill="none" stroke="#b0bec5" stroke-width="0.9" d="M310.44,-272.04C336.36,-282.84 367.02,-293.74 396,-299.38 449.78,-309.85 834.32,-304.05 889,-307.38 945.43,-310.81 1104.18,-292.1 1142,-334.13 1167.26,-362.2 1165.81,-389.79 1142,-419.09 1111.02,-457.22 989.22,-477.1 894.13,-487.01"/>
<polygon fill="#b0bec5" stroke="#b0bec5" stroke-width="0.9" points="893.92,-483.51 884.32,-488 894.62,-490.48 893.92,-483.51"/>
<text xml:space="preserve" text-anchor="middle" x="1208.03" y="-367.81" font-family="Helvetica,sans-Serif" font-size="9.00" fill="#78909c"> read&#45;only artifact</text>
<text xml:space="preserve" text-anchor="middle" x="1208.03" y="-358.06" font-family="Helvetica,sans-Serif" font-size="9.00" fill="#78909c"> (mounted fd, brokered)</text>
</g>
<!-- OSCH -->
<g id="node19" class="node">
<title>OSCH</title>
<path fill="#cfd8dc" stroke="#546e7a" stroke-width="1.4" d="M1115.95,-749.51C1115.95,-751.31 1090.43,-752.78 1059,-752.78 1027.57,-752.78 1002.04,-751.31 1002.04,-749.51 1002.04,-749.51 1002.04,-720.05 1002.04,-720.05 1002.04,-718.25 1027.57,-716.78 1059,-716.78 1090.43,-716.78 1115.95,-718.25 1115.95,-720.05 1115.95,-720.05 1115.95,-749.51 1115.95,-749.51"/>
<path fill="none" stroke="#546e7a" stroke-width="1.4" d="M1115.95,-749.51C1115.95,-747.7 1090.43,-746.23 1059,-746.23 1027.57,-746.23 1002.04,-747.7 1002.04,-749.51"/>
<text xml:space="preserve" text-anchor="middle" x="1059" y="-730.33" font-family="Helvetica,sans-Serif" font-size="11.00">OpenSearch (P1.5)</text>
</g>
<!-- WORK&#45;&gt;OSCH -->
<g id="edge10" class="edge">
<title>WORK&#45;&gt;OSCH</title>
<path fill="none" stroke="#b0bec5" stroke-width="0.9" stroke-dasharray="5,2" d="M310.06,-271.94C336.06,-282.8 366.87,-293.76 396,-299.38 463.98,-312.49 949.9,-303.14 1019,-307.38 1127.45,-314.03 1169.85,-276.57 1262,-334.13 1480.58,-470.65 1521.13,-542.19 1425,-656.87 1382.08,-708.07 1193.64,-692.48 1129,-709.37 1124.25,-710.61 1119.36,-712.02 1114.48,-713.53"/>
<polygon fill="#b0bec5" stroke="#b0bec5" stroke-width="0.9" points="1113.6,-710.14 1105.16,-716.53 1115.75,-716.8 1113.6,-710.14"/>
<text xml:space="preserve" text-anchor="middle" x="1482.37" y="-493.33" font-family="Helvetica,sans-Serif" font-size="9.00" fill="#78909c"> (P1.5)</text>
</g>
<!-- PUMP&#45;&gt;ORCH -->
<g id="edge28" class="edge">
<title>PUMP&#45;&gt;ORCH</title>
<path fill="none" stroke="#e65100" stroke-width="1.8" d="M781.47,-391.79C771.63,-409.74 755.79,-433.31 735,-446.59 702.9,-467.1 688.06,-454.8 651,-463.59 644.21,-465.2 637.22,-466.93 630.19,-468.71"/>
<polygon fill="#e65100" stroke="#e65100" stroke-width="1.8" points="629.4,-465.3 620.59,-471.19 631.14,-472.08 629.4,-465.3"/>
<text xml:space="preserve" text-anchor="middle" x="798.92" y="-437.57" font-family="Helvetica,sans-Serif" font-size="9.50" fill="#37474f"> validated canonical</text>
<text xml:space="preserve" text-anchor="middle" x="798.92" y="-427.82" font-family="Helvetica,sans-Serif" font-size="9.50" fill="#37474f"> schema only</text>
</g>
<!-- DBUS -->
<g id="node9" class="node">
<title>DBUS</title>
<path fill="#ffcdd2" stroke="#c62828" stroke-width="1.4" d="M858.96,-259.38C858.96,-259.38 727.04,-259.38 727.04,-259.38 721.04,-259.38 715.04,-253.38 715.04,-247.38 715.04,-247.38 715.04,-234.42 715.04,-234.42 715.04,-228.42 721.04,-222.42 727.04,-222.42 727.04,-222.42 858.96,-222.42 858.96,-222.42 864.96,-222.42 870.96,-228.42 870.96,-234.42 870.96,-234.42 870.96,-247.38 870.96,-247.38 870.96,-253.38 864.96,-259.38 858.96,-259.38"/>
<text xml:space="preserve" text-anchor="middle" x="793" y="-242.45" font-family="Helvetica,sans-Serif" font-size="11.00">Detonation&#45;local bus</text>
<text xml:space="preserve" text-anchor="middle" x="793" y="-230.45" font-family="Helvetica,sans-Serif" font-size="11.00">(its OWN bus &#45; not control&#39;s)</text>
</g>
<!-- PUMP&#45;&gt;DBUS -->
<g id="edge14" class="edge">
<title>PUMP&#45;&gt;DBUS</title>
<path fill="none" stroke="#e65100" stroke-width="1.6" d="M793,-341.46C793,-321.67 793,-293.53 793,-272.22"/>
<polygon fill="#e65100" stroke="#e65100" stroke-width="1.6" points="796.5,-272.39 793,-262.39 789.5,-272.39 796.5,-272.39"/>
<text xml:space="preserve" text-anchor="middle" x="838" y="-308.11" font-family="Helvetica,sans-Serif" font-size="9.50" fill="#37474f"> (4) into det&#45;local bus</text>
</g>
<!-- PUMP&#45;&gt;VAULT -->
<g id="edge29" class="edge">
<title>PUMP&#45;&gt;VAULT</title>
<path fill="none" stroke="#e65100" stroke-width="1.2" d="M830.34,-391.53C848.82,-406.55 865.06,-426.77 854,-446.59 850.4,-453.05 845.57,-458.76 840.06,-463.8"/>
<polygon fill="#e65100" stroke="#e65100" stroke-width="1.2" points="837.92,-461.03 832.33,-470.03 842.31,-466.48 837.92,-461.03"/>
<text xml:space="preserve" text-anchor="middle" x="918.72" y="-437.57" font-family="Helvetica,sans-Serif" font-size="9.50" fill="#37474f"> copy artifact bytes</text>
<text xml:space="preserve" text-anchor="middle" x="918.72" y="-427.82" font-family="Helvetica,sans-Serif" font-size="9.50" fill="#37474f"> AFTER validation &#45;&gt; WORM</text>
</g>
<!-- DBUS&#45;&gt;ORCH -->
<g id="edge30" class="edge">
<title>DBUS&#45;&gt;ORCH</title>
<path fill="none" stroke="#c62828" stroke-width="2.4" stroke-dasharray="5,2" d="M847.94,-261.99C879.54,-276.72 916.54,-300.13 935,-334.13 953.02,-367.31 957.37,-388.67 935,-419.09 897.16,-470.56 713.89,-452.39 651,-463.59 640.12,-465.53 628.78,-468 617.63,-470.72"/>
<polygon fill="#c62828" stroke="#c62828" stroke-width="2.4" points="842.72,-265.1 846.88,-256.01 848.7,-256.84 844.54,-265.93 842.72,-265.1"/>
<polyline fill="none" stroke="#c62828" stroke-width="2.4" points="843.9,-260.14 848.44,-262.22"/>
<polygon fill="#c62828" stroke="#c62828" stroke-width="2.4" points="615.22,-476.46 612.82,-466.75 614.76,-466.27 617.16,-475.98 615.22,-476.46"/>
<polyline fill="none" stroke="#c62828" stroke-width="2.4" points="613.05,-471.85 617.9,-470.65"/>
<text xml:space="preserve" text-anchor="start" x="973.06" y="-372.84" font-family="Helvetica,sans-Serif" font-weight="bold" font-size="9.50" fill="#b71c1c">NO ROUTE, NO CREDENTIALS</text>
<text xml:space="preserve" text-anchor="start" x="950.19" y="-363.34" font-family="Helvetica,sans-Serif" font-size="9.50" fill="#b71c1c">no bus/store shared, no inbound connection</text>
<text xml:space="preserve" text-anchor="start" x="959.56" y="-353.84" font-family="Helvetica,sans-Serif" font-size="9.50" fill="#b71c1c">a guest escape reaches nothing trusted</text>
</g>
<!-- T1 -->
<g id="node10" class="node">
<title>T1</title>
<path fill="#ffcdd2" stroke="#c62828" stroke-width="1.4" d="M1006.71,-140.92C1006.71,-140.92 921.29,-140.92 921.29,-140.92 915.29,-140.92 909.29,-134.92 909.29,-128.92 909.29,-128.92 909.29,-115.96 909.29,-115.96 909.29,-109.96 915.29,-103.96 921.29,-103.96 921.29,-103.96 1006.71,-103.96 1006.71,-103.96 1012.71,-103.96 1018.71,-109.96 1018.71,-115.96 1018.71,-115.96 1018.71,-128.92 1018.71,-128.92 1018.71,-134.92 1012.71,-140.92 1006.71,-140.92"/>
<text xml:space="preserve" text-anchor="middle" x="964" y="-123.99" font-family="Helvetica,sans-Serif" font-size="11.00">Tier&#45;1 emulation</text>
<text xml:space="preserve" text-anchor="middle" x="964" y="-111.99" font-family="Helvetica,sans-Serif" font-size="11.00">Speakeasy / Qiling</text>
</g>
<!-- DBUS&#45;&gt;T1 -->
<g id="edge15" class="edge">
<title>DBUS&#45;&gt;T1</title>
<path fill="none" stroke="#37474f" stroke-width="1.2" d="M819.34,-221.96C848.38,-202.18 895.27,-170.25 927.76,-148.12"/>
<polygon fill="#37474f" stroke="#37474f" stroke-width="1.2" points="929.55,-151.14 935.84,-142.62 925.61,-145.35 929.55,-151.14"/>
</g>
<!-- T2 -->
<g id="node11" class="node">
<title>T2</title>
<path fill="#ffcdd2" stroke="#c62828" stroke-width="1.4" d="M872.46,-140.92C872.46,-140.92 761.54,-140.92 761.54,-140.92 755.54,-140.92 749.54,-134.92 749.54,-128.92 749.54,-128.92 749.54,-115.96 749.54,-115.96 749.54,-109.96 755.54,-103.96 761.54,-103.96 761.54,-103.96 872.46,-103.96 872.46,-103.96 878.46,-103.96 884.46,-109.96 884.46,-115.96 884.46,-115.96 884.46,-128.92 884.46,-128.92 884.46,-134.92 878.46,-140.92 872.46,-140.92"/>
<text xml:space="preserve" text-anchor="middle" x="817" y="-123.99" font-family="Helvetica,sans-Serif" font-size="11.00">Tier&#45;2 KVM</text>
<text xml:space="preserve" text-anchor="middle" x="817" y="-111.99" font-family="Helvetica,sans-Serif" font-size="11.00">in&#45;guest, disposable VM</text>
</g>
<!-- DBUS&#45;&gt;T2 -->
<g id="edge16" class="edge">
<title>DBUS&#45;&gt;T2</title>
<path fill="none" stroke="#37474f" stroke-width="1.2" d="M796.7,-221.96C800.47,-203.63 806.4,-174.86 810.88,-153.13"/>
<polygon fill="#37474f" stroke="#37474f" stroke-width="1.2" points="814.3,-153.87 812.89,-143.37 807.45,-152.46 814.3,-153.87"/>
</g>
<!-- T3 -->
<g id="node12" class="node">
<title>T3</title>
<path fill="#ffcdd2" stroke="#c62828" stroke-width="1.4" stroke-dasharray="5,2" d="M712.83,-140.92C712.83,-140.92 559.17,-140.92 559.17,-140.92 553.17,-140.92 547.17,-134.92 547.17,-128.92 547.17,-128.92 547.17,-115.96 547.17,-115.96 547.17,-109.96 553.17,-103.96 559.17,-103.96 559.17,-103.96 712.83,-103.96 712.83,-103.96 718.83,-103.96 724.83,-109.96 724.83,-115.96 724.83,-115.96 724.83,-128.92 724.83,-128.92 724.83,-134.92 718.83,-140.92 712.83,-140.92"/>
<text xml:space="preserve" text-anchor="middle" x="636" y="-123.99" font-family="Helvetica,sans-Serif" font-size="11.00">Tier&#45;3 Xen/DRAKVUF VMI &#160;(P2)</text>
<text xml:space="preserve" text-anchor="middle" x="636" y="-111.99" font-family="Helvetica,sans-Serif" font-size="11.00">dedicated non&#45;nested HW</text>
</g>
<!-- DBUS&#45;&gt;T3 -->
<g id="edge17" class="edge">
<title>DBUS&#45;&gt;T3</title>
<path fill="none" stroke="#37474f" stroke-width="1.2" stroke-dasharray="5,2" d="M768.81,-221.96C742.27,-202.27 699.47,-170.52 669.66,-148.41"/>
<polygon fill="#37474f" stroke="#37474f" stroke-width="1.2" points="672.05,-145.82 661.93,-142.68 667.88,-151.44 672.05,-145.82"/>
</g>
<!-- BM -->
<g id="node13" class="node">
<title>BM</title>
<path fill="#ffcdd2" stroke="#c62828" stroke-width="1.4" stroke-dasharray="5,2" d="M509.83,-140.92C509.83,-140.92 422.17,-140.92 422.17,-140.92 416.17,-140.92 410.17,-134.92 410.17,-128.92 410.17,-128.92 410.17,-115.96 410.17,-115.96 410.17,-109.96 416.17,-103.96 422.17,-103.96 422.17,-103.96 509.83,-103.96 509.83,-103.96 515.83,-103.96 521.83,-109.96 521.83,-115.96 521.83,-115.96 521.83,-128.92 521.83,-128.92 521.83,-134.92 515.83,-140.92 509.83,-140.92"/>
<text xml:space="preserve" text-anchor="middle" x="466" y="-123.99" font-family="Helvetica,sans-Serif" font-size="11.00">Bare&#45;metal &#160;(P2)</text>
<text xml:space="preserve" text-anchor="middle" x="466" y="-111.99" font-family="Helvetica,sans-Serif" font-size="11.00">attested / reflashed</text>
</g>
<!-- DBUS&#45;&gt;BM -->
<g id="edge18" class="edge">
<title>DBUS&#45;&gt;BM</title>
<path fill="none" stroke="#37474f" stroke-width="1.2" stroke-dasharray="5,2" d="M742.27,-221.83C684.39,-201.22 589.76,-167.52 527.67,-145.4"/>
<polygon fill="#37474f" stroke="#37474f" stroke-width="1.2" points="529.16,-142.22 518.56,-142.16 526.81,-148.81 529.16,-142.22"/>
</g>
<!-- SIM -->
<g id="node14" class="node">
<title>SIM</title>
<path fill="#ffcdd2" stroke="#c62828" stroke-width="1.4" d="M738.71,-52.96C738.71,-52.96 533.29,-52.96 533.29,-52.96 527.29,-52.96 521.29,-46.96 521.29,-40.96 521.29,-40.96 521.29,-28 521.29,-28 521.29,-22 527.29,-16 533.29,-16 533.29,-16 738.71,-16 738.71,-16 744.71,-16 750.71,-22 750.71,-28 750.71,-28 750.71,-40.96 750.71,-40.96 750.71,-46.96 744.71,-52.96 738.71,-52.96"/>
<text xml:space="preserve" text-anchor="middle" x="636" y="-36.03" font-family="Helvetica,sans-Serif" font-size="11.00">Sim&#45;net</text>
<text xml:space="preserve" text-anchor="middle" x="636" y="-24.03" font-family="Helvetica,sans-Serif" font-size="11.00">INetSim / FakeNet, egress default none/sim</text>
</g>
<!-- T1&#45;&gt;SIM -->
<g id="edge19" class="edge">
<title>T1&#45;&gt;SIM</title>
<path fill="none" stroke="#37474f" stroke-width="1.2" d="M908.73,-106.96C856.07,-93.16 776.2,-72.22 716.48,-56.57"/>
<polygon fill="#37474f" stroke="#37474f" stroke-width="1.2" points="717.52,-53.22 706.95,-54.08 715.74,-60 717.52,-53.22"/>
</g>
<!-- DOBJ -->
<g id="node15" class="node">
<title>DOBJ</title>
<path fill="#ffcdd2" stroke="#c62828" stroke-width="1.4" d="M930.58,-52.96C930.58,-52.96 787.42,-52.96 787.42,-52.96 781.42,-52.96 775.42,-46.96 775.42,-40.96 775.42,-40.96 775.42,-28 775.42,-28 775.42,-22 781.42,-16 787.42,-16 787.42,-16 930.58,-16 930.58,-16 936.58,-16 942.58,-22 942.58,-28 942.58,-28 942.58,-40.96 942.58,-40.96 942.58,-46.96 936.58,-52.96 930.58,-52.96"/>
<text xml:space="preserve" text-anchor="middle" x="859" y="-36.03" font-family="Helvetica,sans-Serif" font-size="11.00">Detonation object store</text>
<text xml:space="preserve" text-anchor="middle" x="859" y="-24.03" font-family="Helvetica,sans-Serif" font-size="11.00">(its OWN store, wiped per run)</text>
</g>
<!-- T1&#45;&gt;DOBJ -->
<g id="edge23" class="edge">
<title>T1&#45;&gt;DOBJ</title>
<path fill="none" stroke="#37474f" stroke-width="1.2" d="M941.99,-103.42C926.87,-91.04 906.58,-74.44 889.86,-60.74"/>
<polygon fill="#37474f" stroke="#37474f" stroke-width="1.2" points="892.34,-58.25 882.39,-54.63 887.91,-63.67 892.34,-58.25"/>
</g>
<!-- T2&#45;&gt;SIM -->
<g id="edge20" class="edge">
<title>T2&#45;&gt;SIM</title>
<path fill="none" stroke="#37474f" stroke-width="1.2" d="M779.06,-103.42C751.64,-90.4 714.37,-72.7 684.74,-58.63"/>
<polygon fill="#37474f" stroke="#37474f" stroke-width="1.2" points="686.38,-55.53 675.85,-54.4 683.38,-61.85 686.38,-55.53"/>
</g>
<!-- T2&#45;&gt;DOBJ -->
<g id="edge24" class="edge">
<title>T2&#45;&gt;DOBJ</title>
<path fill="none" stroke="#37474f" stroke-width="1.2" d="M825.7,-103.63C831.3,-92.18 838.69,-77.05 845.09,-63.96"/>
<polygon fill="#37474f" stroke="#37474f" stroke-width="1.2" points="848.12,-65.72 849.37,-55.2 841.83,-62.64 848.12,-65.72"/>
</g>
<!-- T3&#45;&gt;SIM -->
<g id="edge21" class="edge">
<title>T3&#45;&gt;SIM</title>
<path fill="none" stroke="#37474f" stroke-width="1.2" stroke-dasharray="5,2" d="M636,-103.63C636,-92.52 636,-77.96 636,-65.14"/>
<polygon fill="#37474f" stroke="#37474f" stroke-width="1.2" points="639.5,-65.38 636,-55.38 632.5,-65.38 639.5,-65.38"/>
</g>
<!-- T3&#45;&gt;DOBJ -->
<g id="edge25" class="edge">
<title>T3&#45;&gt;DOBJ</title>
<path fill="none" stroke="#37474f" stroke-width="1.2" stroke-dasharray="5,2" d="M686.68,-103.32C707.04,-95.92 730.69,-87.19 752,-78.96 769.19,-72.32 787.82,-64.85 804.64,-58"/>
<polygon fill="#37474f" stroke="#37474f" stroke-width="1.2" points="805.79,-61.31 813.73,-54.28 803.15,-54.83 805.79,-61.31"/>
</g>
<!-- BM&#45;&gt;SIM -->
<g id="edge22" class="edge">
<title>BM&#45;&gt;SIM</title>
<path fill="none" stroke="#37474f" stroke-width="1.2" stroke-dasharray="5,2" d="M501.64,-103.42C527.28,-90.45 562.09,-72.85 589.85,-58.81"/>
<polygon fill="#37474f" stroke="#37474f" stroke-width="1.2" points="591.15,-62.08 598.5,-54.44 587.99,-55.83 591.15,-62.08"/>
</g>
<!-- BM&#45;&gt;DOBJ -->
<g id="edge26" class="edge">
<title>BM&#45;&gt;DOBJ</title>
<path fill="none" stroke="#37474f" stroke-width="1.2" stroke-dasharray="5,2" d="M522.44,-106.95C526.68,-105.92 530.91,-104.91 535,-103.96 611.6,-86.17 698.85,-67.84 763.49,-54.63"/>
<polygon fill="#37474f" stroke="#37474f" stroke-width="1.2" points="764,-58.09 773.1,-52.66 762.61,-51.23 764,-58.09"/>
</g>
<!-- DOBJ&#45;&gt;PUMP -->
<g id="edge27" class="edge">
<title>DOBJ&#45;&gt;PUMP</title>
<path fill="none" stroke="#e65100" stroke-width="1.8" d="M943.21,-48.21C976.29,-57.79 1011.07,-74.57 1031,-103.96 1040.22,-117.55 1036.46,-125.43 1031,-140.92 997.54,-235.77 967.2,-253.88 889,-317.13 880.67,-323.87 871.24,-330.02 861.64,-335.52"/>
<polygon fill="#e65100" stroke="#e65100" stroke-width="1.8" points="860.27,-332.28 853.16,-340.13 863.62,-338.43 860.27,-332.28"/>
<text xml:space="preserve" text-anchor="middle" x="1089.63" y="-176.4" font-family="Helvetica,sans-Serif" font-size="9.50" fill="#37474f"> store&#45;and&#45;forward</text>
<text xml:space="preserve" text-anchor="middle" x="1089.63" y="-166.65" font-family="Helvetica,sans-Serif" font-size="9.50" fill="#37474f"> CONTROL PULLS (no inbound)</text>
</g>
</g>
</svg>
