<?xml version="1.0" encoding="UTF-8" standalone="no"?>
<!DOCTYPE svg PUBLIC "-//W3C//DTD SVG 1.1//EN"
 "http://www.w3.org/Graphics/SVG/1.1/DTD/svg11.dtd">
<!-- Generated by graphviz version 14.1.4 (20260321.0153)
 -->
<!-- Title: trust_boundaries Pages: 1 -->
<svg width="913pt" height="436pt"
 viewBox="0.00 0.00 913.00 436.00" xmlns="http://www.w3.org/2000/svg" xmlns:xlink="http://www.w3.org/1999/xlink">
<g id="graph0" class="graph" transform="scale(1 1) rotate(0) translate(28.8 407.05)">
<title>trust_boundaries</title>
<polygon fill="white" stroke="none" points="-28.8,28.8 -28.8,-407.05 884.17,-407.05 884.17,28.8 -28.8,28.8"/>
<text xml:space="preserve" text-anchor="start" x="282.94" y="-364.8" font-family="Helvetica,sans-Serif" font-weight="bold" font-size="11.00">MalAnalyzer &#45; Trust Boundaries (STRIDE per boundary)</text>
<text xml:space="preserve" text-anchor="start" x="108.94" y="-354.75" font-family="Helvetica,sans-Serif" font-size="10.00">Row 1 = the live&#45;submission data path (left→right: deeper into the system, closer to attacker&#45;controlled bytes). &#160;Row 2 = cross&#45;cutting boundaries.</text>
<!-- B1 -->
<g id="node1" class="node">
<title>B1</title>
<polygon fill="#2e7d32" stroke="none" points="15.75,-297.5 15.75,-321.5 189,-321.5 189,-297.5 15.75,-297.5"/>
<polygon fill="none" stroke="black" points="15.75,-297.5 15.75,-321.5 189,-321.5 189,-297.5 15.75,-297.5"/>
<text xml:space="preserve" text-anchor="start" x="49.12" y="-307" font-family="Helvetica,sans-Serif" font-weight="bold" font-size="10.00" fill="white">① &#160;browser ↔ gateway</text>
<polygon fill="none" stroke="black" points="15.75,-274.25 15.75,-297.5 189,-297.5 189,-274.25 15.75,-274.25"/>
<text xml:space="preserve" text-anchor="start" x="21.75" y="-283" font-family="Helvetica,sans-Serif" font-weight="bold" font-size="10.00">Crosses:</text>
<text xml:space="preserve" text-anchor="start" x="63" y="-283" font-family="Helvetica,sans-Serif" font-size="10.00"> auth, submissions, queries</text>
<polygon fill="none" stroke="black" points="15.75,-251 15.75,-274.25 189,-274.25 189,-251 15.75,-251"/>
<text xml:space="preserve" text-anchor="start" x="21.75" y="-259.75" font-family="Helvetica,sans-Serif" font-weight="bold" font-size="10.00">Threats:</text>
<text xml:space="preserve" text-anchor="start" x="59.25" y="-259.75" font-family="Helvetica,sans-Serif" font-size="10.00"> spoofing, privilege elevation</text>
<polygon fill="none" stroke="black" points="15.75,-209 15.75,-251 189,-251 189,-209 15.75,-209"/>
<text xml:space="preserve" text-anchor="start" x="21.75" y="-236.5" font-family="Helvetica,sans-Serif" font-weight="bold" font-size="10.00">Control:</text>
<text xml:space="preserve" text-anchor="start" x="60" y="-236.5" font-family="Helvetica,sans-Serif" font-size="10.00"> OIDC, OPA default&#45;deny ,</text>
<text xml:space="preserve" text-anchor="start" x="21.75" y="-226.5" font-family="Helvetica,sans-Serif" font-size="10.00">short tokens, no </text>
<text xml:space="preserve" text-anchor="start" x="95.25" y="-226.5" font-family="Helvetica,sans-Serif" font-style="italic" font-size="10.00">alg=none</text>
<text xml:space="preserve" text-anchor="start" x="135" y="-226.5" font-family="Helvetica,sans-Serif" font-size="10.00">, audit</text>
<text xml:space="preserve" text-anchor="start" x="66" y="-216.5" font-family="Helvetica,sans-Serif" font-size="10.00" fill="#1565c0">(ADR&#45;014/016)</text>
</g>
<!-- B2 -->
<g id="node2" class="node">
<title>B2</title>
<polygon fill="#1565c0" stroke="none" points="219.75,-301.88 219.75,-325.88 411,-325.88 411,-301.88 219.75,-301.88"/>
<polygon fill="none" stroke="black" points="219.75,-301.88 219.75,-325.88 411,-325.88 411,-301.88 219.75,-301.88"/>
<text xml:space="preserve" text-anchor="start" x="259.12" y="-311.38" font-family="Helvetica,sans-Serif" font-weight="bold" font-size="10.00" fill="white">② &#160;control ↔ data plane</text>
<polygon fill="none" stroke="black" points="219.75,-269.88 219.75,-301.88 411,-301.88 411,-269.88 219.75,-269.88"/>
<text xml:space="preserve" text-anchor="start" x="225.75" y="-287.38" font-family="Helvetica,sans-Serif" font-weight="bold" font-size="10.00">Crosses:</text>
<text xml:space="preserve" text-anchor="start" x="267" y="-287.38" font-family="Helvetica,sans-Serif" font-size="10.00"> 1 signed single&#45;use URL in ,</text>
<text xml:space="preserve" text-anchor="start" x="284.25" y="-277.38" font-family="Helvetica,sans-Serif" font-size="10.00">findings out</text>
<polygon fill="none" stroke="black" points="219.75,-246.62 219.75,-269.88 411,-269.88 411,-246.62 219.75,-246.62"/>
<text xml:space="preserve" text-anchor="start" x="225.75" y="-255.38" font-family="Helvetica,sans-Serif" font-weight="bold" font-size="10.00">Threats:</text>
<text xml:space="preserve" text-anchor="start" x="263.25" y="-255.38" font-family="Helvetica,sans-Serif" font-size="10.00"> tampering, DoS, disclosure</text>
<polygon fill="none" stroke="black" points="219.75,-204.62 219.75,-246.62 411,-246.62 411,-204.62 219.75,-204.62"/>
<text xml:space="preserve" text-anchor="start" x="225.75" y="-232.12" font-family="Helvetica,sans-Serif" font-weight="bold" font-size="10.00">Control:</text>
<text xml:space="preserve" text-anchor="start" x="264" y="-232.12" font-family="Helvetica,sans-Serif" font-size="10.00"> single&#45;use sandboxed workers ,</text>
<text xml:space="preserve" text-anchor="start" x="225.75" y="-222.12" font-family="Helvetica,sans-Serif" font-size="10.00">empty netns, cgroups, seccomp</text>
<text xml:space="preserve" text-anchor="start" x="282.75" y="-212.12" font-family="Helvetica,sans-Serif" font-size="10.00" fill="#1565c0">(ADR&#45;004/005)</text>
</g>
<!-- B1&#45;&gt;B2 -->
<g id="edge1" class="edge">
<title>B1&#45;&gt;B2</title>
<path fill="none" stroke="#37474f" stroke-width="1.4" d="M188.91,-265.25C196.04,-265.25 203.17,-265.25 210.3,-265.25"/>
<polygon fill="#37474f" stroke="#37474f" stroke-width="1.4" points="209.91,-268.05 217.91,-265.25 209.91,-262.45 209.91,-268.05"/>
</g>
<!-- B5 -->
<g id="node5" class="node">
<title>B5</title>
<polygon fill="#6a1b9a" stroke="none" points="0,-107.25 0,-131.25 198.75,-131.25 198.75,-107.25 0,-107.25"/>
<polygon fill="none" stroke="black" points="0,-107.25 0,-131.25 198.75,-131.25 198.75,-107.25 0,-107.25"/>
<text xml:space="preserve" text-anchor="start" x="58.5" y="-116.75" font-family="Helvetica,sans-Serif" font-weight="bold" font-size="10.00" fill="white">⑤ &#160;analyst render</text>
<polygon fill="none" stroke="black" points="0,-75.25 0,-107.25 198.75,-107.25 198.75,-75.25 0,-75.25"/>
<text xml:space="preserve" text-anchor="start" x="6" y="-92.75" font-family="Helvetica,sans-Serif" font-weight="bold" font-size="10.00">Crosses:</text>
<text xml:space="preserve" text-anchor="start" x="47.25" y="-92.75" font-family="Helvetica,sans-Serif" font-size="10.00"> sample&#45;derived text/artifacts</text>
<text xml:space="preserve" text-anchor="start" x="58.88" y="-82.75" font-family="Helvetica,sans-Serif" font-size="10.00">to the browser</text>
<polygon fill="none" stroke="black" points="0,-52 0,-75.25 198.75,-75.25 198.75,-52 0,-52"/>
<text xml:space="preserve" text-anchor="start" x="6" y="-60.75" font-family="Helvetica,sans-Serif" font-weight="bold" font-size="10.00">Threats:</text>
<text xml:space="preserve" text-anchor="start" x="43.5" y="-60.75" font-family="Helvetica,sans-Serif" font-size="10.00"> XSS, homoglyph, CSRF, drive&#45;by</text>
<polygon fill="none" stroke="black" points="0,0 0,-52 198.75,-52 198.75,0 0,0"/>
<text xml:space="preserve" text-anchor="start" x="6" y="-37.5" font-family="Helvetica,sans-Serif" font-weight="bold" font-size="10.00">Control:</text>
<text xml:space="preserve" text-anchor="start" x="44.25" y="-37.5" font-family="Helvetica,sans-Serif" font-size="10.00"> inert render, defang, CSP ,</text>
<text xml:space="preserve" text-anchor="start" x="6" y="-27.5" font-family="Helvetica,sans-Serif" font-size="10.00">sandboxed iframes ,</text>
<text xml:space="preserve" text-anchor="start" x="6" y="-17.5" font-family="Helvetica,sans-Serif" font-size="10.00">encrypted single&#45;sample downloads</text>
<text xml:space="preserve" text-anchor="start" x="52.12" y="-7.5" font-family="Helvetica,sans-Serif" font-size="10.00" fill="#1565c0">(ADR&#45;009/015)</text>
</g>
<!-- B1&#45;&gt;B5 -->
<!-- B3 -->
<g id="node3" class="node">
<title>B3</title>
<polygon fill="#b71c1c" stroke="none" points="440,-323.25 440,-349.25 622.75,-349.25 622.75,-323.25 440,-323.25"/>
<polygon fill="none" stroke="#b71c1c" stroke-width="2" points="441,-324.25 441,-348.25 621.75,-348.25 621.75,-324.25 441,-324.25"/>
<text xml:space="preserve" text-anchor="start" x="466.5" y="-333.75" font-family="Helvetica,sans-Serif" font-weight="bold" font-size="10.00" fill="white">③ &#160;control ↔ detonation &#160;⚠</text>
<polygon fill="none" stroke="#b71c1c" stroke-width="2" points="441,-270.25 441,-322.25 621.75,-322.25 621.75,-270.25 441,-270.25"/>
<text xml:space="preserve" text-anchor="start" x="447" y="-307.75" font-family="Helvetica,sans-Serif" font-weight="bold" font-size="10.00">Crosses:</text>
<text xml:space="preserve" text-anchor="start" x="488.25" y="-307.75" font-family="Helvetica,sans-Serif" font-size="10.00"> job dispatch in (via pump) ,</text>
<text xml:space="preserve" text-anchor="start" x="447" y="-297.75" font-family="Helvetica,sans-Serif" font-size="10.00">results out (pull only) ,</text>
<text xml:space="preserve" text-anchor="start" x="447" y="-287.75" font-family="Helvetica,sans-Serif" font-size="10.00">mgmt (heartbeat/lease/reconcile) is</text>
<text xml:space="preserve" text-anchor="start" x="447" y="-277.75" font-family="Helvetica,sans-Serif" font-size="10.00">detonation&#45;local &#45; never a live inbound</text>
<polygon fill="none" stroke="#b71c1c" stroke-width="2" points="441,-236.25 441,-268.25 621.75,-268.25 621.75,-236.25 441,-236.25"/>
<text xml:space="preserve" text-anchor="start" x="447" y="-253.75" font-family="Helvetica,sans-Serif" font-weight="bold" font-size="10.00">Threats:</text>
<text xml:space="preserve" text-anchor="start" x="484.5" y="-253.75" font-family="Helvetica,sans-Serif" font-size="10.00"> escape→pivot, DoS, exfil ,</text>
<text xml:space="preserve" text-anchor="start" x="472.5" y="-243.75" font-family="Helvetica,sans-Serif" font-size="10.00">host&#45;forged benign result</text>
<polygon fill="none" stroke="#b71c1c" stroke-width="2" points="441,-182.25 441,-234.25 621.75,-234.25 621.75,-182.25 441,-182.25"/>
<text xml:space="preserve" text-anchor="start" x="447" y="-219.75" font-family="Helvetica,sans-Serif" font-weight="bold" font-size="10.00">Control:</text>
<text xml:space="preserve" text-anchor="start" x="485.25" y="-219.75" font-family="Helvetica,sans-Serif" font-size="10.00"> dead&#45;ended (no route/creds) ,</text>
<text xml:space="preserve" text-anchor="start" x="447" y="-209.75" font-family="Helvetica,sans-Serif" font-size="10.00">own bus+store, slot admission ,</text>
<text xml:space="preserve" text-anchor="start" x="447" y="-199.75" font-family="Helvetica,sans-Serif" font-size="10.00">non&#45;nested HW, attested boot</text>
<text xml:space="preserve" text-anchor="start" x="489.38" y="-189.75" font-family="Helvetica,sans-Serif" font-size="10.00" fill="#1565c0">(ADR&#45;006/007/016)</text>
</g>
<!-- B2&#45;&gt;B3 -->
<g id="edge2" class="edge">
<title>B2&#45;&gt;B3</title>
<path fill="none" stroke="#37474f" stroke-width="1.4" d="M410.72,-265.25C417.37,-265.25 424.02,-265.25 430.67,-265.25"/>
<polygon fill="#37474f" stroke="#37474f" stroke-width="1.4" points="430.29,-268.05 438.29,-265.25 430.29,-262.45 430.29,-268.05"/>
</g>
<!-- B6 -->
<g id="node6" class="node">
<title>B6</title>
<polygon fill="#00695c" stroke="none" points="228.12,-107.25 228.12,-131.25 406.62,-131.25 406.62,-107.25 228.12,-107.25"/>
<polygon fill="none" stroke="black" points="228.12,-107.25 228.12,-131.25 406.62,-131.25 406.62,-107.25 228.12,-107.25"/>
<text xml:space="preserve" text-anchor="start" x="266" y="-116.75" font-family="Helvetica,sans-Serif" font-weight="bold" font-size="10.00" fill="white">⑥ &#160;AI quarantine &#160;(P2)</text>
<polygon fill="none" stroke="black" points="228.12,-75.25 228.12,-107.25 406.62,-107.25 406.62,-75.25 228.12,-75.25"/>
<text xml:space="preserve" text-anchor="start" x="234.12" y="-92.75" font-family="Helvetica,sans-Serif" font-weight="bold" font-size="10.00">Crosses:</text>
<text xml:space="preserve" text-anchor="start" x="275.38" y="-92.75" font-family="Helvetica,sans-Serif" font-size="10.00"> schema&#45;constrained</text>
<text xml:space="preserve" text-anchor="start" x="265.62" y="-82.75" font-family="Helvetica,sans-Serif" font-size="10.00">extractions only</text>
<polygon fill="none" stroke="black" points="228.12,-52 228.12,-75.25 406.62,-75.25 406.62,-52 228.12,-52"/>
<text xml:space="preserve" text-anchor="start" x="234.12" y="-60.75" font-family="Helvetica,sans-Serif" font-weight="bold" font-size="10.00">Threats:</text>
<text xml:space="preserve" text-anchor="start" x="271.62" y="-60.75" font-family="Helvetica,sans-Serif" font-size="10.00"> prompt injection, trifecta exfil</text>
<polygon fill="none" stroke="black" points="228.12,0 228.12,-52 406.62,-52 406.62,0 228.12,0"/>
<text xml:space="preserve" text-anchor="start" x="234.12" y="-37.5" font-family="Helvetica,sans-Serif" font-weight="bold" font-size="10.00">Control:</text>
<text xml:space="preserve" text-anchor="start" x="272.38" y="-37.5" font-family="Helvetica,sans-Serif" font-size="10.00"> dual&#45;LLM/CaMeL ,</text>
<text xml:space="preserve" text-anchor="start" x="234.12" y="-27.5" font-family="Helvetica,sans-Serif" font-size="10.00">per&#45;case token ⊂ human ,</text>
<text xml:space="preserve" text-anchor="start" x="234.12" y="-17.5" font-family="Helvetica,sans-Serif" font-size="10.00">no egress in sample context</text>
<text xml:space="preserve" text-anchor="start" x="272.38" y="-7.5" font-family="Helvetica,sans-Serif" font-size="10.00" fill="#1565c0">(ADR&#45;010)</text>
</g>
<!-- B2&#45;&gt;B6 -->
<!-- B4 -->
<g id="node4" class="node">
<title>B4</title>
<polygon fill="#e65100" stroke="none" points="651.38,-303.25 651.38,-327.25 855.38,-327.25 855.38,-303.25 651.38,-303.25"/>
<polygon fill="none" stroke="black" points="651.38,-303.25 651.38,-327.25 855.38,-327.25 855.38,-303.25 651.38,-303.25"/>
<text xml:space="preserve" text-anchor="start" x="697.12" y="-312.75" font-family="Helvetica,sans-Serif" font-weight="bold" font-size="10.00" fill="white">④ &#160;mal&#45;pump mediation</text>
<polygon fill="none" stroke="black" points="651.38,-280 651.38,-303.25 855.38,-303.25 855.38,-280 651.38,-280"/>
<text xml:space="preserve" text-anchor="start" x="657.38" y="-288.75" font-family="Helvetica,sans-Serif" font-weight="bold" font-size="10.00">Crosses:</text>
<text xml:space="preserve" text-anchor="start" x="698.62" y="-288.75" font-family="Helvetica,sans-Serif" font-size="10.00"> only a bounded canonical schema</text>
<polygon fill="none" stroke="black" points="651.38,-255.25 651.38,-280 855.38,-280 855.38,-255.25 651.38,-255.25"/>
<text xml:space="preserve" text-anchor="start" x="657.38" y="-265.5" font-family="Helvetica,sans-Serif" font-weight="bold" font-size="10.00">Threats:</text>
<text xml:space="preserve" text-anchor="start" x="694.88" y="-265.5" font-family="Helvetica,sans-Serif" font-size="10.00"> malicious payload → RCE in core</text>
<polygon fill="none" stroke="black" points="651.38,-203.25 651.38,-255.25 855.38,-255.25 855.38,-203.25 651.38,-203.25"/>
<text xml:space="preserve" text-anchor="start" x="657.38" y="-240.75" font-family="Helvetica,sans-Serif" font-weight="bold" font-size="10.00">Control:</text>
<text xml:space="preserve" text-anchor="start" x="695.62" y="-240.75" font-family="Helvetica,sans-Serif" font-size="10.00"> pull&#45;only, strict JSON&#45;Schema ,</text>
<text xml:space="preserve" text-anchor="start" x="657.38" y="-230.75" font-family="Helvetica,sans-Serif" font-size="10.00">sandboxed parser ,</text>
<text xml:space="preserve" text-anchor="start" x="657.38" y="-220.75" font-family="Helvetica,sans-Serif" font-size="10.00">no complex deserialization</text>
<text xml:space="preserve" text-anchor="start" x="723.38" y="-210.75" font-family="Helvetica,sans-Serif" font-size="10.00" fill="#1565c0">(ADR&#45;007)</text>
</g>
<!-- B3&#45;&gt;B4 -->
<g id="edge3" class="edge">
<title>B3&#45;&gt;B4</title>
<path fill="none" stroke="#37474f" stroke-width="1.4" d="M622.43,-265.25C628.81,-265.25 635.19,-265.25 641.56,-265.25"/>
<polygon fill="#37474f" stroke="#37474f" stroke-width="1.4" points="641.47,-268.05 649.47,-265.25 641.47,-262.45 641.47,-268.05"/>
</g>
<!-- B7 -->
<g id="node7" class="node">
<title>B7</title>
<polygon fill="#455a64" stroke="none" points="441.38,-107.25 441.38,-131.25 621.38,-131.25 621.38,-107.25 441.38,-107.25"/>
<polygon fill="none" stroke="black" points="441.38,-107.25 441.38,-131.25 621.38,-131.25 621.38,-107.25 441.38,-107.25"/>
<text xml:space="preserve" text-anchor="start" x="497.25" y="-116.75" font-family="Helvetica,sans-Serif" font-weight="bold" font-size="10.00" fill="white">⑦ &#160;tenant &#160;(P2)</text>
<polygon fill="none" stroke="black" points="441.38,-75.25 441.38,-107.25 621.38,-107.25 621.38,-75.25 441.38,-75.25"/>
<text xml:space="preserve" text-anchor="start" x="447.38" y="-92.75" font-family="Helvetica,sans-Serif" font-weight="bold" font-size="10.00">Crosses:</text>
<text xml:space="preserve" text-anchor="start" x="488.62" y="-92.75" font-family="Helvetica,sans-Serif" font-size="10.00"> nothing &#45; hard isolation</text>
<text xml:space="preserve" text-anchor="start" x="497.25" y="-82.75" font-family="Helvetica,sans-Serif" font-size="10.00">by default</text>
<polygon fill="none" stroke="black" points="441.38,-52 441.38,-75.25 621.38,-75.25 621.38,-52 441.38,-52"/>
<text xml:space="preserve" text-anchor="start" x="447.38" y="-60.75" font-family="Helvetica,sans-Serif" font-weight="bold" font-size="10.00">Threats:</text>
<text xml:space="preserve" text-anchor="start" x="484.88" y="-60.75" font-family="Helvetica,sans-Serif" font-size="10.00"> cross&#45;tenant read of the vault</text>
<polygon fill="none" stroke="black" points="441.38,0 441.38,-52 621.38,-52 621.38,0 441.38,0"/>
<text xml:space="preserve" text-anchor="start" x="447.38" y="-37.5" font-family="Helvetica,sans-Serif" font-weight="bold" font-size="10.00">Control:</text>
<text xml:space="preserve" text-anchor="start" x="485.62" y="-37.5" font-family="Helvetica,sans-Serif" font-size="10.00"> separate schemas/keys ,</text>
<text xml:space="preserve" text-anchor="start" x="447.38" y="-27.5" font-family="Helvetica,sans-Serif" font-size="10.00">tenant&#45;partitioned workers ,</text>
<text xml:space="preserve" text-anchor="start" x="447.38" y="-17.5" font-family="Helvetica,sans-Serif" font-size="10.00">RLS as defense&#45;in&#45;depth</text>
<text xml:space="preserve" text-anchor="start" x="499.88" y="-7.5" font-family="Helvetica,sans-Serif" font-size="10.00" fill="#1565c0">(ADR&#45;016)</text>
</g>
<!-- B3&#45;&gt;B7 -->
<!-- B8 -->
<g id="node8" class="node">
<title>B8</title>
<polygon fill="#5d4037" stroke="none" points="663,-107.25 663,-131.25 843.75,-131.25 843.75,-107.25 663,-107.25"/>
<polygon fill="none" stroke="black" points="663,-107.25 663,-131.25 843.75,-131.25 843.75,-107.25 663,-107.25"/>
<text xml:space="preserve" text-anchor="start" x="681.75" y="-116.75" font-family="Helvetica,sans-Serif" font-weight="bold" font-size="10.00" fill="white">⑧ &#160;build / update supply chain</text>
<polygon fill="none" stroke="black" points="663,-75.25 663,-107.25 843.75,-107.25 843.75,-75.25 663,-75.25"/>
<text xml:space="preserve" text-anchor="start" x="669" y="-92.75" font-family="Helvetica,sans-Serif" font-weight="bold" font-size="10.00">Crosses:</text>
<text xml:space="preserve" text-anchor="start" x="710.25" y="-92.75" font-family="Helvetica,sans-Serif" font-size="10.00"> images, deps ,</text>
<text xml:space="preserve" text-anchor="start" x="672.75" y="-82.75" font-family="Helvetica,sans-Serif" font-size="10.00">model weights, corpora</text>
<polygon fill="none" stroke="black" points="663,-52 663,-75.25 843.75,-75.25 843.75,-52 663,-52"/>
<text xml:space="preserve" text-anchor="start" x="669" y="-60.75" font-family="Helvetica,sans-Serif" font-weight="bold" font-size="10.00">Threats:</text>
<text xml:space="preserve" text-anchor="start" x="706.5" y="-60.75" font-family="Helvetica,sans-Serif" font-size="10.00"> poisoned dep / image / model</text>
<polygon fill="none" stroke="black" points="663,0 663,-52 843.75,-52 843.75,0 663,0"/>
<text xml:space="preserve" text-anchor="start" x="669" y="-37.5" font-family="Helvetica,sans-Serif" font-weight="bold" font-size="10.00">Control:</text>
<text xml:space="preserve" text-anchor="start" x="707.25" y="-37.5" font-family="Helvetica,sans-Serif" font-size="10.00"> in&#45;toto attestations ,</text>
<text xml:space="preserve" text-anchor="start" x="669" y="-27.5" font-family="Helvetica,sans-Serif" font-size="10.00">witnessed signing, SBOM ,</text>
<text xml:space="preserve" text-anchor="start" x="669" y="-17.5" font-family="Helvetica,sans-Serif" font-size="10.00">reproducible builds, model provenance</text>
<text xml:space="preserve" text-anchor="start" x="729" y="-7.5" font-family="Helvetica,sans-Serif" font-size="10.00" fill="#1565c0">(ADR&#45;020)</text>
</g>
<!-- B4&#45;&gt;B8 -->
</g>
</svg>
