<?xml version="1.0" encoding="UTF-8" standalone="no"?>
<!DOCTYPE svg PUBLIC "-//W3C//DTD SVG 1.1//EN"
 "http://www.w3.org/Graphics/SVG/1.1/DTD/svg11.dtd">
<!-- Generated by graphviz version 14.1.4 (20260321.0153)
 -->
<!-- Title: detonation_deadend Pages: 1 -->
<svg width="2243pt" height="559pt"
 viewBox="0.00 0.00 2243.00 559.00" xmlns="http://www.w3.org/2000/svg" xmlns:xlink="http://www.w3.org/1999/xlink">
<g id="graph0" class="graph" transform="scale(1 1) rotate(0) translate(28.8 529.8)">
<title>detonation_deadend</title>
<polygon fill="white" stroke="none" points="-28.8,28.8 -28.8,-529.8 2214.45,-529.8 2214.45,28.8 -28.8,28.8"/>
<text xml:space="preserve" text-anchor="start" x="897.83" y="-487.55" font-family="Helvetica,sans-Serif" font-weight="bold" font-size="11.00">MalAnalyzer &#45; Detonation Dead&#45;End &amp; Management Plane (assume&#45;breach)</text>
<text xml:space="preserve" text-anchor="start" x="730.58" y="-477.5" font-family="Helvetica,sans-Serif" font-size="10.00">The detonation plane runs its own control loop. Every control↔detonation channel is store&#45;and&#45;forward through the pump. A compromised host reaches nothing trusted.</text>
<g id="clust1" class="cluster">
<title>cluster_det</title>
<path fill="#ffebee" stroke="#c62828" stroke-width="2.4" d="M20,-187C20,-187 1540.23,-187 1540.23,-187 1546.23,-187 1552.23,-193 1552.23,-199 1552.23,-199 1552.23,-452 1552.23,-452 1552.23,-458 1546.23,-464 1540.23,-464 1540.23,-464 20,-464 20,-464 14,-464 8,-458 8,-452 8,-452 8,-199 8,-199 8,-193 14,-187 20,-187"/>
<text xml:space="preserve" text-anchor="start" x="433.62" y="-450.55" font-family="Helvetica,sans-Serif" font-weight="bold" font-size="11.00" fill="#b71c1c">DETONATION PLANE</text>
<text xml:space="preserve" text-anchor="start" x="546.87" y="-450.55" font-family="Helvetica,sans-Serif" font-size="11.00" fill="#b71c1c"> , &#160;separate physical node , &#160;own management network , &#160;non&#45;nested HW , &#160;attested boot , &#160;bare&#45;metal = firmware&#45;burned</text>
</g>
<g id="clust2" class="cluster">
<title>cluster_slotA</title>
<path fill="#ffdede" stroke="#8e0000" stroke-width="1.4" d="M350.78,-264C350.78,-264 1135.22,-264 1135.22,-264 1141.22,-264 1147.22,-270 1147.22,-276 1147.22,-276 1147.22,-344 1147.22,-344 1147.22,-350 1141.22,-356 1135.22,-356 1135.22,-356 350.78,-356 350.78,-356 344.78,-356 338.78,-350 338.78,-344 338.78,-344 338.78,-276 338.78,-276 338.78,-270 344.78,-264 350.78,-264"/>
<text xml:space="preserve" text-anchor="start" x="692.37" y="-342.55" font-family="Helvetica,sans-Serif" font-weight="bold" font-size="11.00" fill="#8e0000">Run&#45;slot 1</text>
<text xml:space="preserve" text-anchor="start" x="746.37" y="-342.55" font-family="Helvetica,sans-Serif" font-size="11.00" fill="#8e0000"> (isolated)</text>
</g>
<g id="clust3" class="cluster">
<title>cluster_slotB</title>
<path fill="#ffdede" stroke="#8e0000" stroke-width="1.4" d="M677.79,-364C677.79,-364 829.58,-364 829.58,-364 835.58,-364 841.58,-370 841.58,-376 841.58,-376 841.58,-424 841.58,-424 841.58,-430 835.58,-436 829.58,-436 829.58,-436 677.79,-436 677.79,-436 671.79,-436 665.79,-430 665.79,-424 665.79,-424 665.79,-376 665.79,-376 665.79,-370 671.79,-364 677.79,-364"/>
<text xml:space="preserve" text-anchor="start" x="703.06" y="-422.55" font-family="Helvetica,sans-Serif" font-weight="bold" font-size="11.00" fill="#8e0000">Run&#45;slot 2</text>
<text xml:space="preserve" text-anchor="start" x="757.06" y="-422.55" font-family="Helvetica,sans-Serif" font-size="11.00" fill="#8e0000"> (isolated)</text>
</g>
<g id="clust4" class="cluster">
<title>cluster_ctrl</title>
<path fill="#e8f5e9" stroke="#2e7d32" stroke-width="2" d="M1288.09,-30C1288.09,-30 1607.84,-30 1607.84,-30 1613.84,-30 1619.84,-36 1619.84,-42 1619.84,-42 1619.84,-167 1619.84,-167 1619.84,-173 1613.84,-179 1607.84,-179 1607.84,-179 1288.09,-179 1288.09,-179 1282.09,-179 1276.09,-173 1276.09,-167 1276.09,-167 1276.09,-42 1276.09,-42 1276.09,-36 1282.09,-30 1288.09,-30"/>
<text xml:space="preserve" text-anchor="start" x="1284.09" y="-165.55" font-family="Helvetica,sans-Serif" font-weight="bold" font-size="11.00" fill="#1b5e20">CONTROL PLANE</text>
<text xml:space="preserve" text-anchor="start" x="1380.09" y="-165.55" font-family="Helvetica,sans-Serif" font-size="11.00" fill="#1b5e20"> (trusted &#45; must be unreachable from detonation)</text>
</g>
<!-- DCTRL -->
<g id="node1" class="node">
<title>DCTRL</title>
<path fill="#ef9a9a" stroke="#c62828" stroke-width="1.8" d="M220.03,-288.54C220.03,-288.54 28,-288.54 28,-288.54 22,-288.54 16,-282.54 16,-276.54 16,-276.54 16,-245.46 16,-245.46 16,-239.46 22,-233.46 28,-233.46 28,-233.46 220.03,-233.46 220.03,-233.46 226.03,-233.46 232.03,-239.46 232.03,-245.46 232.03,-245.46 232.03,-276.54 232.03,-276.54 232.03,-282.54 226.03,-288.54 220.03,-288.54"/>
<text xml:space="preserve" text-anchor="middle" x="124.01" y="-274" font-family="Helvetica,sans-Serif" font-size="10.00">Detonation&#45;local controller</text>
<text xml:space="preserve" text-anchor="middle" x="124.01" y="-262.75" font-family="Helvetica,sans-Serif" font-size="10.00">OWN lease store, OWN libvirt clients</text>
<text xml:space="preserve" text-anchor="middle" x="124.01" y="-251.5" font-family="Helvetica,sans-Serif" font-size="10.00">reconciler, VM&#45;kill, slot admission</text>
<text xml:space="preserve" text-anchor="middle" x="124.01" y="-240.25" font-family="Helvetica,sans-Serif" font-size="10.00">&#45; holds NO control creds / NO route to control</text>
</g>
<!-- RSTORE -->
<g id="node2" class="node">
<title>RSTORE</title>
<path fill="#ffcdd2" stroke="#c62828" stroke-width="1.4" d="M1544.23,-275.98C1544.23,-279.78 1500.86,-282.87 1447.47,-282.87 1394.07,-282.87 1350.7,-279.78 1350.7,-275.98 1350.7,-275.98 1350.7,-214.02 1350.7,-214.02 1350.7,-210.22 1394.07,-207.13 1447.47,-207.13 1500.86,-207.13 1544.23,-210.22 1544.23,-214.02 1544.23,-214.02 1544.23,-275.98 1544.23,-275.98"/>
<path fill="none" stroke="#c62828" stroke-width="1.4" d="M1544.23,-275.98C1544.23,-272.18 1500.86,-269.1 1447.47,-269.1 1394.07,-269.1 1350.7,-272.18 1350.7,-275.98"/>
<text xml:space="preserve" text-anchor="middle" x="1447.47" y="-258" font-family="Helvetica,sans-Serif" font-size="10.00">Result store (out)</text>
<text xml:space="preserve" text-anchor="middle" x="1447.47" y="-246.75" font-family="Helvetica,sans-Serif" font-size="10.00">per&#45;run prefixes, liveness/lease state</text>
<text xml:space="preserve" text-anchor="middle" x="1447.47" y="-235.5" font-family="Helvetica,sans-Serif" font-size="10.00">, DURABLE single&#45;writer lease authority</text>
<text xml:space="preserve" text-anchor="middle" x="1447.47" y="-224.25" font-family="Helvetica,sans-Serif" font-size="10.00">(what control PULLS a projection of)</text>
</g>
<!-- DCTRL&#45;&gt;RSTORE -->
<g id="edge5" class="edge">
<title>DCTRL&#45;&gt;RSTORE</title>
<path fill="none" stroke="#37474f" stroke-width="1.2" d="M232.82,-239.78C292.69,-229.78 368.65,-220 436.92,-220 436.92,-220 436.92,-220 1069.7,-220 1160.58,-220 1263.52,-227.33 1338.81,-234.05"/>
<polygon fill="#37474f" stroke="#37474f" stroke-width="1.2" points="1338.1,-237.5 1348.37,-234.92 1338.73,-230.53 1338.1,-237.5"/>
<text xml:space="preserve" text-anchor="middle" x="753.68" y="-230.95" font-family="Helvetica,sans-Serif" font-size="9.00"> liveness, lease, reconcile</text>
<text xml:space="preserve" text-anchor="middle" x="753.68" y="-221.2" font-family="Helvetica,sans-Serif" font-size="9.00"> (all LOCAL)</text>
</g>
<!-- VMA -->
<g id="node3" class="node">
<title>VMA</title>
<path fill="#ef9a9a" stroke="#c62828" stroke-width="1.4" d="M517.06,-327.54C517.06,-327.54 358.78,-327.54 358.78,-327.54 352.78,-327.54 346.78,-321.54 346.78,-315.54 346.78,-315.54 346.78,-284.46 346.78,-284.46 346.78,-278.46 352.78,-272.46 358.78,-272.46 358.78,-272.46 517.06,-272.46 517.06,-272.46 523.06,-272.46 529.06,-278.46 529.06,-284.46 529.06,-284.46 529.06,-315.54 529.06,-315.54 529.06,-321.54 523.06,-327.54 517.06,-327.54"/>
<text xml:space="preserve" text-anchor="middle" x="437.92" y="-313" font-family="Helvetica,sans-Serif" font-size="10.00">Disposable VM (T2 KVM)</text>
<text xml:space="preserve" text-anchor="middle" x="437.92" y="-301.75" font-family="Helvetica,sans-Serif" font-size="10.00">qcow2 CoW, snapshot&#45;restore</text>
<text xml:space="preserve" text-anchor="middle" x="437.92" y="-290.5" font-family="Helvetica,sans-Serif" font-size="10.00">+ guest agent &#160;[!] guest&#45;&gt;host surface</text>
<text xml:space="preserve" text-anchor="middle" x="437.92" y="-279.25" font-family="Helvetica,sans-Serif" font-size="10.00">(minimal, untrusted, one&#45;way)</text>
</g>
<!-- DCTRL&#45;&gt;VMA -->
<g id="edge3" class="edge">
<title>DCTRL&#45;&gt;VMA</title>
<path fill="none" stroke="#37474f" stroke-width="1.2" d="M232.79,-274.48C265.87,-278.61 302.15,-283.15 334.84,-287.24"/>
<polygon fill="#37474f" stroke="#37474f" stroke-width="1.2" points="334.08,-290.67 344.44,-288.44 334.95,-283.72 334.08,-290.67"/>
<text xml:space="preserve" text-anchor="middle" x="289.4" y="-286.34" font-family="Helvetica,sans-Serif" font-size="9.00"> start/kill (local)</text>
</g>
<!-- VMB -->
<g id="node6" class="node">
<title>VMB</title>
<path fill="#ffcdd2" stroke="#c62828" stroke-width="1.4" d="M821.57,-408C821.57,-408 685.79,-408 685.79,-408 679.79,-408 673.79,-402 673.79,-396 673.79,-396 673.79,-384 673.79,-384 673.79,-378 679.79,-372 685.79,-372 685.79,-372 821.57,-372 821.57,-372 827.57,-372 833.57,-378 833.57,-384 833.57,-384 833.57,-396 833.57,-396 833.57,-402 827.57,-408 821.57,-408"/>
<text xml:space="preserve" text-anchor="middle" x="753.68" y="-391.75" font-family="Helvetica,sans-Serif" font-size="10.00">Disposable VM</text>
<text xml:space="preserve" text-anchor="middle" x="753.68" y="-380.5" font-family="Helvetica,sans-Serif" font-size="10.00">OWN bridge + OWN store prefix</text>
</g>
<!-- DCTRL&#45;&gt;VMB -->
<g id="edge4" class="edge">
<title>DCTRL&#45;&gt;VMB</title>
<path fill="none" stroke="#37474f" stroke-width="1.2" d="M172.81,-289.27C214.94,-312.66 278.79,-344.49 338.78,-360 447.2,-388.04 576.56,-393.09 661.45,-392.73"/>
<polygon fill="#37474f" stroke="#37474f" stroke-width="1.2" points="661.34,-396.23 671.31,-392.66 661.29,-389.23 661.34,-396.23"/>
<text xml:space="preserve" text-anchor="middle" x="437.92" y="-389.5" font-family="Helvetica,sans-Serif" font-size="9.00"> start/kill (local)</text>
</g>
<!-- ORCH -->
<g id="node10" class="node">
<title>ORCH</title>
<path fill="#c8e6c9" stroke="#2e7d32" stroke-width="1.4" d="M1515.36,-81.91C1515.36,-81.91 1379.58,-81.91 1379.58,-81.91 1373.58,-81.91 1367.58,-75.91 1367.58,-69.91 1367.58,-69.91 1367.58,-50.09 1367.58,-50.09 1367.58,-44.09 1373.58,-38.09 1379.58,-38.09 1379.58,-38.09 1515.36,-38.09 1515.36,-38.09 1521.36,-38.09 1527.36,-44.09 1527.36,-50.09 1527.36,-50.09 1527.36,-69.91 1527.36,-69.91 1527.36,-75.91 1521.36,-81.91 1515.36,-81.91"/>
<text xml:space="preserve" text-anchor="middle" x="1447.47" y="-67.38" font-family="Helvetica,sans-Serif" font-size="10.00">Orchestrator</text>
<text xml:space="preserve" text-anchor="middle" x="1447.47" y="-56.12" font-family="Helvetica,sans-Serif" font-size="10.00">enqueues jobs, PULLS validated</text>
<text xml:space="preserve" text-anchor="middle" x="1447.47" y="-44.88" font-family="Helvetica,sans-Serif" font-size="10.00">status + results</text>
</g>
<!-- DCTRL&#45;&gt;ORCH -->
<g id="edge15" class="edge">
<title>DCTRL&#45;&gt;ORCH</title>
<path fill="none" stroke="#c62828" stroke-width="2.4" stroke-dasharray="5,2" d="M203.93,-231.02C308,-193 497.66,-128.91 665.79,-100 916.53,-56.89 1218.67,-55.47 1362.48,-57.8"/>
<polygon fill="#c62828" stroke="#c62828" stroke-width="2.4" points="202.19,-236.98 198.75,-227.59 200.63,-226.9 204.07,-236.3 202.19,-236.98"/>
<polyline fill="none" stroke="#c62828" stroke-width="2.4" points="199.53,-232.63 204.23,-230.91"/>
<polygon fill="#c62828" stroke="#c62828" stroke-width="2.4" points="1365.99,-52.85 1365.82,-62.85 1363.82,-62.82 1363.99,-52.82 1365.99,-52.85"/>
<polyline fill="none" stroke="#c62828" stroke-width="2.4" points="1366.91,-57.87 1361.91,-57.79"/>
<text xml:space="preserve" text-anchor="start" x="703.81" y="-119.45" font-family="Helvetica,sans-Serif" font-weight="bold" font-size="9.00" fill="#b71c1c">NO ROUTE, NO CREDS</text>
<text xml:space="preserve" text-anchor="start" x="667.81" y="-110.45" font-family="Helvetica,sans-Serif" font-size="9.00" fill="#b71c1c">no live inbound, no libvirt/Temporal/Valkey</text>
<text xml:space="preserve" text-anchor="start" x="673.06" y="-101.45" font-family="Helvetica,sans-Serif" font-size="9.00" fill="#b71c1c">credential reaches across the boundary</text>
</g>
<!-- PUMP -->
<g id="node8" class="node">
<title>PUMP</title>
<path fill="#ffe082" stroke="#f9a825" stroke-width="1.8" d="M1913,-156.54C1913,-156.54 1782.46,-156.54 1782.46,-156.54 1776.46,-156.54 1770.46,-150.54 1770.46,-144.54 1770.46,-144.54 1770.46,-113.46 1770.46,-113.46 1770.46,-107.46 1776.46,-101.46 1782.46,-101.46 1782.46,-101.46 1913,-101.46 1913,-101.46 1919,-101.46 1925,-107.46 1925,-113.46 1925,-113.46 1925,-144.54 1925,-144.54 1925,-150.54 1919,-156.54 1913,-156.54"/>
<text xml:space="preserve" text-anchor="middle" x="1847.73" y="-142" font-family="Helvetica,sans-Serif" font-size="10.00">Write&#45;only data pump</text>
<text xml:space="preserve" text-anchor="middle" x="1847.73" y="-130.75" font-family="Helvetica,sans-Serif" font-size="10.00">(third network, pull&#45;only)</text>
<text xml:space="preserve" text-anchor="middle" x="1847.73" y="-119.5" font-family="Helvetica,sans-Serif" font-size="10.00">mover + network&#45;dead validator</text>
<text xml:space="preserve" text-anchor="middle" x="1847.73" y="-108.25" font-family="Helvetica,sans-Serif" font-size="10.00">&#45;&gt; see diagram 04</text>
</g>
<!-- RSTORE&#45;&gt;PUMP -->
<g id="edge13" class="edge">
<title>RSTORE&#45;&gt;PUMP</title>
<path fill="none" stroke="#e65100" stroke-width="1.8" d="M1552.23,-214.78C1616.07,-196.18 1697.03,-172.6 1757.91,-154.87"/>
<polygon fill="#e65100" stroke="#e65100" stroke-width="1.8" points="1758.61,-158.31 1767.24,-152.15 1756.66,-151.59 1758.61,-158.31"/>
<text xml:space="preserve" text-anchor="middle" x="1686.09" y="-197.95" font-family="Helvetica,sans-Serif" font-size="9.00"> control PULLS</text>
<text xml:space="preserve" text-anchor="middle" x="1686.09" y="-188.2" font-family="Helvetica,sans-Serif" font-size="9.00"> (no inbound to control)</text>
</g>
<!-- VMA&#45;&gt;RSTORE -->
<g id="edge6" class="edge">
<title>VMA&#45;&gt;RSTORE</title>
<path fill="none" stroke="#b71c1c" stroke-width="1.2" d="M529.65,-291.1C571.13,-287.26 620.92,-282.98 665.79,-280 905.91,-264.04 1188.08,-253.39 1338.74,-248.36"/>
<polygon fill="#b71c1c" stroke="#b71c1c" stroke-width="1.2" points="1338.55,-251.87 1348.43,-248.04 1338.32,-244.87 1338.55,-251.87"/>
<text xml:space="preserve" text-anchor="middle" x="917.18" y="-278.9" font-family="Helvetica,sans-Serif" font-size="9.00" fill="#b71c1c"> in&#45;guest report</text>
<text xml:space="preserve" text-anchor="middle" x="917.18" y="-269.15" font-family="Helvetica,sans-Serif" font-size="9.00" fill="#b71c1c"> (UNTRUSTED/advisory)</text>
</g>
<!-- BRA -->
<g id="node4" class="node">
<title>BRA</title>
<path fill="#ffcdd2" stroke="#c62828" stroke-width="1.4" d="M797.57,-328C797.57,-328 709.79,-328 709.79,-328 703.79,-328 697.79,-322 697.79,-316 697.79,-316 697.79,-304 697.79,-304 697.79,-298 703.79,-292 709.79,-292 709.79,-292 797.57,-292 797.57,-292 803.57,-292 809.57,-298 809.57,-304 809.57,-304 809.57,-316 809.57,-316 809.57,-322 803.57,-328 797.57,-328"/>
<text xml:space="preserve" text-anchor="middle" x="753.68" y="-311.75" font-family="Helvetica,sans-Serif" font-size="10.00">OWN bridge / netns</text>
<text xml:space="preserve" text-anchor="middle" x="753.68" y="-300.5" font-family="Helvetica,sans-Serif" font-size="10.00">(no host L3 presence)</text>
</g>
<!-- VMA&#45;&gt;BRA -->
<g id="edge1" class="edge">
<title>VMA&#45;&gt;BRA</title>
<path fill="none" stroke="#37474f" stroke-width="1.2" d="M529.67,-302.89C583.79,-304.62 650.76,-306.75 697.11,-308.23"/>
</g>
<!-- VMA&#45;&gt;VMB -->
<g id="edge10" class="edge">
<title>VMA&#45;&gt;VMB</title>
<path fill="none" stroke="#c62828" stroke-width="1.8" stroke-dasharray="5,2" d="M534.51,-313.73C577.08,-320.85 621.85,-330.03 640.81,-339.5 654.18,-346.18 652.84,-354.54 665.79,-362 670.52,-364.72 675.54,-367.21 680.69,-369.49"/>
<polygon fill="#c62828" stroke="#c62828" stroke-width="1.8" points="529.77,-318.01 531.4,-308.15 533.37,-308.47 531.74,-318.34 529.77,-318.01"/>
<polyline fill="none" stroke="#c62828" stroke-width="1.8" points="529.6,-312.92 534.53,-313.73"/>
<polygon fill="#c62828" stroke="#c62828" stroke-width="1.8" points="686.09,-366.37 682.16,-375.56 680.32,-374.77 684.26,-365.58 686.09,-366.37"/>
<polyline fill="none" stroke="#c62828" stroke-width="1.8" points="685.05,-371.36 680.45,-369.39"/>
<text xml:space="preserve" text-anchor="middle" x="598.43" y="-350.45" font-family="Helvetica,sans-Serif" font-size="9.00" fill="#b71c1c"> per&#45;run isolation</text>
<text xml:space="preserve" text-anchor="middle" x="598.43" y="-340.7" font-family="Helvetica,sans-Serif" font-size="9.00" fill="#b71c1c"> (no cross&#45;run reach)</text>
</g>
<!-- VAULT -->
<g id="node11" class="node">
<title>VAULT</title>
<path fill="#cfd8dc" stroke="#546e7a" stroke-width="1.4" d="M1501.11,-147.33C1501.11,-149.57 1477.06,-151.4 1447.47,-151.4 1417.87,-151.4 1393.83,-149.57 1393.83,-147.33 1393.83,-147.33 1393.83,-110.67 1393.83,-110.67 1393.83,-108.43 1417.87,-106.6 1447.47,-106.6 1477.06,-106.6 1501.11,-108.43 1501.11,-110.67 1501.11,-110.67 1501.11,-147.33 1501.11,-147.33"/>
<path fill="none" stroke="#546e7a" stroke-width="1.4" d="M1501.11,-147.33C1501.11,-145.08 1477.06,-143.25 1447.47,-143.25 1417.87,-143.25 1393.83,-145.08 1393.83,-147.33"/>
<text xml:space="preserve" text-anchor="middle" x="1447.47" y="-130.75" font-family="Helvetica,sans-Serif" font-size="10.00">WORM vault + keys</text>
<text xml:space="preserve" text-anchor="middle" x="1447.47" y="-119.5" font-family="Helvetica,sans-Serif" font-size="10.00">+ other&#45;tenant pools</text>
</g>
<!-- VMA&#45;&gt;VAULT -->
<g id="edge16" class="edge">
<title>VMA&#45;&gt;VAULT</title>
<path fill="none" stroke="#c62828" stroke-width="2" stroke-dasharray="5,2" d="M457.21,-271.76C477.52,-243.16 513.16,-200.46 556.06,-181 705.12,-113.4 1215.16,-121.98 1388.37,-127.03"/>
<polygon fill="#c62828" stroke="#c62828" stroke-width="2" points="1392.29,-122.14 1392,-132.14 1390,-132.08 1390.29,-122.08 1392.29,-122.14"/>
<polyline fill="none" stroke="#c62828" stroke-width="2" points="1393.14,-127.17 1388.15,-127.02"/>
<text xml:space="preserve" text-anchor="middle" x="917.18" y="-131.98" font-family="Helvetica,sans-Serif" font-size="9.00" fill="#b71c1c"> unreachable</text>
</g>
<!-- TAPA -->
<g id="node5" class="node">
<title>TAPA</title>
<path fill="#c8e6c9" stroke="#2e7d32" stroke-width="1.4" d="M1127.22,-327.92C1127.22,-327.92 1010.19,-327.92 1010.19,-327.92 1004.19,-327.92 998.19,-321.92 998.19,-315.92 998.19,-315.92 998.19,-296.08 998.19,-296.08 998.19,-290.08 1004.19,-284.08 1010.19,-284.08 1010.19,-284.08 1127.22,-284.08 1127.22,-284.08 1133.22,-284.08 1139.22,-290.08 1139.22,-296.08 1139.22,-296.08 1139.22,-315.92 1139.22,-315.92 1139.22,-321.92 1133.22,-327.92 1127.22,-327.92"/>
<text xml:space="preserve" text-anchor="middle" x="1068.7" y="-313.38" font-family="Helvetica,sans-Serif" font-size="10.00">Passive tap</text>
<text xml:space="preserve" text-anchor="middle" x="1068.7" y="-302.12" font-family="Helvetica,sans-Serif" font-size="10.00">(out&#45;of&#45;band capture =</text>
<text xml:space="preserve" text-anchor="middle" x="1068.7" y="-290.88" font-family="Helvetica,sans-Serif" font-size="10.00">TRUSTWORTHY evidence)</text>
</g>
<!-- BRA&#45;&gt;TAPA -->
<g id="edge2" class="edge">
<title>BRA&#45;&gt;TAPA</title>
<path fill="none" stroke="#37474f" stroke-width="1.2" stroke-dasharray="1,5" d="M809.93,-309.29C862.23,-308.63 940.97,-307.62 997.66,-306.9"/>
<text xml:space="preserve" text-anchor="middle" x="917.18" y="-309.68" font-family="Helvetica,sans-Serif" font-size="9.00"> mirror</text>
</g>
<!-- SIM -->
<g id="node7" class="node">
<title>SIM</title>
<path fill="#c8e6c9" stroke="#2e7d32" stroke-width="1.4" d="M1130.59,-419.54C1130.59,-419.54 1006.81,-419.54 1006.81,-419.54 1000.81,-419.54 994.81,-413.54 994.81,-407.54 994.81,-407.54 994.81,-376.46 994.81,-376.46 994.81,-370.46 1000.81,-364.46 1006.81,-364.46 1006.81,-364.46 1130.59,-364.46 1130.59,-364.46 1136.59,-364.46 1142.59,-370.46 1142.59,-376.46 1142.59,-376.46 1142.59,-407.54 1142.59,-407.54 1142.59,-413.54 1136.59,-419.54 1130.59,-419.54"/>
<text xml:space="preserve" text-anchor="middle" x="1068.7" y="-405" font-family="Helvetica,sans-Serif" font-size="10.00">Sim&#45;net appliance</text>
<text xml:space="preserve" text-anchor="middle" x="1068.7" y="-393.75" font-family="Helvetica,sans-Serif" font-size="10.00">INetSim / FakeNet</text>
<text xml:space="preserve" text-anchor="middle" x="1068.7" y="-382.5" font-family="Helvetica,sans-Serif" font-size="10.00">separate netns, fake internet</text>
<text xml:space="preserve" text-anchor="middle" x="1068.7" y="-371.25" font-family="Helvetica,sans-Serif" font-size="10.00">egress default none/simulated</text>
</g>
<!-- BRA&#45;&gt;SIM -->
<g id="edge8" class="edge">
<title>BRA&#45;&gt;SIM</title>
<path fill="none" stroke="#37474f" stroke-width="1.2" d="M809.93,-324.47C861.17,-337.9 937.81,-357.97 994.21,-372.75"/>
<text xml:space="preserve" text-anchor="middle" x="917.18" y="-366.68" font-family="Helvetica,sans-Serif" font-size="9.00"> C2 answered by sim</text>
</g>
<!-- TAPA&#45;&gt;RSTORE -->
<g id="edge7" class="edge">
<title>TAPA&#45;&gt;RSTORE</title>
<path fill="none" stroke="#2e7d32" stroke-width="1.2" d="M1139.68,-294.67C1195.59,-285.62 1274.9,-272.78 1338.88,-262.42"/>
<polygon fill="#2e7d32" stroke="#2e7d32" stroke-width="1.2" points="1339.12,-265.93 1348.43,-260.87 1338,-259.02 1339.12,-265.93"/>
<text xml:space="preserve" text-anchor="middle" x="1209.34" y="-290.84" font-family="Helvetica,sans-Serif" font-size="9.00" fill="#2e7d32"> ground&#45;truth PCAP</text>
</g>
<!-- VMB&#45;&gt;SIM -->
<g id="edge9" class="edge">
<title>VMB&#45;&gt;SIM</title>
<path fill="none" stroke="#37474f" stroke-width="1.2" stroke-dasharray="5,2" d="M834.08,-390.51C883.34,-390.82 946.2,-391.22 994.3,-391.53"/>
</g>
<!-- PUMP&#45;&gt;ORCH -->
<g id="edge14" class="edge">
<title>PUMP&#45;&gt;ORCH</title>
<path fill="none" stroke="#e65100" stroke-width="1.8" d="M1769.75,-115.66C1730.39,-108.84 1680.65,-100.23 1632.14,-91.82"/>
<polygon fill="#e65100" stroke="#e65100" stroke-width="1.8" points="1632.97,-88.41 1622.52,-90.16 1631.78,-95.31 1632.97,-88.41"/>
<text xml:space="preserve" text-anchor="middle" x="1686.09" y="-119.56" font-family="Helvetica,sans-Serif" font-size="9.00"> validated projection</text>
<text xml:space="preserve" text-anchor="middle" x="1686.09" y="-109.81" font-family="Helvetica,sans-Serif" font-size="9.00"> + canonical results</text>
</g>
<!-- JOBQ -->
<g id="node9" class="node">
<title>JOBQ</title>
<path fill="#ffe082" stroke="#f9a825" stroke-width="1.4" d="M1935.12,-65.65C1935.12,-68.68 1895.95,-71.13 1847.73,-71.13 1799.51,-71.13 1760.34,-68.68 1760.34,-65.65 1760.34,-65.65 1760.34,-16.35 1760.34,-16.35 1760.34,-13.32 1799.51,-10.87 1847.73,-10.87 1895.95,-10.87 1935.12,-13.32 1935.12,-16.35 1935.12,-16.35 1935.12,-65.65 1935.12,-65.65"/>
<path fill="none" stroke="#f9a825" stroke-width="1.4" d="M1935.12,-65.65C1935.12,-62.63 1895.95,-60.18 1847.73,-60.18 1799.51,-60.18 1760.34,-62.63 1760.34,-65.65"/>
<text xml:space="preserve" text-anchor="middle" x="1847.73" y="-48.38" font-family="Helvetica,sans-Serif" font-size="10.00">Job spool (third net)</text>
<text xml:space="preserve" text-anchor="middle" x="1847.73" y="-37.12" font-family="Helvetica,sans-Serif" font-size="10.00">control WRITES, detonation PULLS</text>
<text xml:space="preserve" text-anchor="middle" x="1847.73" y="-25.88" font-family="Helvetica,sans-Serif" font-size="10.00">(no route written INTO detonation)</text>
</g>
<!-- JOBQ&#45;&gt;DCTRL -->
<g id="edge12" class="edge">
<title>JOBQ&#45;&gt;DCTRL</title>
<path fill="none" stroke="#e65100" stroke-width="1.6" d="M1759.98,-26.89C1679.48,-15.03 1556.2,0 1448.47,0 436.92,0 436.92,0 436.92,0 324.7,0 231.6,-100.6 177.14,-176.89"/>
<polygon fill="#e65100" stroke="#e65100" stroke-width="1.6" points="174.31,-174.82 171.43,-185.02 180.04,-178.85 174.31,-174.82"/>
<text xml:space="preserve" text-anchor="middle" x="917.18" y="-10.95" font-family="Helvetica,sans-Serif" font-size="9.00"> controller PULLS</text>
<text xml:space="preserve" text-anchor="middle" x="917.18" y="-1.2" font-family="Helvetica,sans-Serif" font-size="9.00"> (detonation initiates)</text>
</g>
<!-- ORCH&#45;&gt;JOBQ -->
<g id="edge11" class="edge">
<title>ORCH&#45;&gt;JOBQ</title>
<path fill="none" stroke="#e65100" stroke-width="1.6" d="M1527.63,-56.22C1590.86,-53.21 1679.83,-48.96 1747.77,-45.72"/>
<polygon fill="#e65100" stroke="#e65100" stroke-width="1.6" points="1747.53,-49.24 1757.35,-45.26 1747.2,-42.24 1747.53,-49.24"/>
<text xml:space="preserve" text-anchor="middle" x="1686.09" y="-61.45" font-family="Helvetica,sans-Serif" font-size="9.00"> enqueue job</text>
<text xml:space="preserve" text-anchor="middle" x="1686.09" y="-51.7" font-family="Helvetica,sans-Serif" font-size="9.00"> (control writes)</text>
</g>
<!-- MGMT -->
<g id="node12" class="node">
<title>MGMT</title>
<polygon fill="#fff8e1" stroke="#f9a825" stroke-width="1.4" points="2179.65,-70.41 1962.12,-70.41 1962.12,-11.59 2185.65,-11.59 2185.65,-64.41 2179.65,-70.41"/>
<polyline fill="none" stroke="#f9a825" stroke-width="1.4" points="2179.65,-70.41 2179.65,-64.41"/>
<polyline fill="none" stroke="#f9a825" stroke-width="1.4" points="2185.65,-64.41 2179.65,-64.41"/>
<text xml:space="preserve" text-anchor="middle" x="2073.89" y="-56.83" font-family="Helvetica,sans-Serif" font-size="9.00">MANAGEMENT PLANE (the round&#45;1 blind spot):</text>
<text xml:space="preserve" text-anchor="middle" x="2073.89" y="-47.08" font-family="Helvetica,sans-Serif" font-size="9.00">dispatch, heartbeat, lease, reconcile, VM&#45;kill</text>
<text xml:space="preserve" text-anchor="middle" x="2073.89" y="-37.33" font-family="Helvetica,sans-Serif" font-size="9.00">are ALL detonation&#45;local. Control never opens a</text>
<text xml:space="preserve" text-anchor="middle" x="2073.89" y="-27.57" font-family="Helvetica,sans-Serif" font-size="9.00">live connection into detonation and holds no</text>
<text xml:space="preserve" text-anchor="middle" x="2073.89" y="-17.82" font-family="Helvetica,sans-Serif" font-size="9.00">detonation credential &#45; it only PULLS via the pump.</text>
</g>
<!-- TRUST -->
<g id="node13" class="node">
<title>TRUST</title>
<polygon fill="#e8f5e9" stroke="#2e7d32" stroke-width="1.4" points="2174.03,-144.29 1967.75,-144.29 1967.75,-75.71 2180.03,-75.71 2180.03,-138.29 2174.03,-144.29"/>
<polyline fill="none" stroke="#2e7d32" stroke-width="1.4" points="2174.03,-144.29 2174.03,-138.29"/>
<polyline fill="none" stroke="#2e7d32" stroke-width="1.4" points="2180.03,-138.29 2174.03,-138.29"/>
<text xml:space="preserve" text-anchor="middle" x="2073.89" y="-130.7" font-family="Helvetica,sans-Serif" font-size="9.00">VERDICT TRUST IS OUT&#45;OF&#45;BAND:</text>
<text xml:space="preserve" text-anchor="middle" x="2073.89" y="-120.95" font-family="Helvetica,sans-Serif" font-size="9.00">passive tap + host attestation + (P2) VMI are</text>
<text xml:space="preserve" text-anchor="middle" x="2073.89" y="-111.2" font-family="Helvetica,sans-Serif" font-size="9.00">ground truth. The in&#45;guest agent&#39;s self&#45;report is</text>
<text xml:space="preserve" text-anchor="middle" x="2073.89" y="-101.45" font-family="Helvetica,sans-Serif" font-size="9.00">advisory: a benign self&#45;report NEVER lowers a</text>
<text xml:space="preserve" text-anchor="middle" x="2073.89" y="-91.7" font-family="Helvetica,sans-Serif" font-size="9.00">verdict; escape / anti&#45;analysis indicators FLOOR</text>
<text xml:space="preserve" text-anchor="middle" x="2073.89" y="-81.95" font-family="Helvetica,sans-Serif" font-size="9.00">the run (and co&#45;resident runs).</text>
</g>
</g>
</svg>
