<?xml version="1.0" encoding="UTF-8" standalone="no"?>
<!DOCTYPE svg PUBLIC "-//W3C//DTD SVG 1.1//EN"
 "http://www.w3.org/Graphics/SVG/1.1/DTD/svg11.dtd">
<!-- Generated by graphviz version 14.1.4 (20260321.0153)
 -->
<!-- Title: pump_pipeline Pages: 1 -->
<svg width="1813pt" height="377pt"
 viewBox="0.00 0.00 1813.00 377.00" xmlns="http://www.w3.org/2000/svg" xmlns:xlink="http://www.w3.org/1999/xlink">
<g id="graph0" class="graph" transform="scale(1 1) rotate(0) translate(28.8 348.06)">
<title>pump_pipeline</title>
<polygon fill="white" stroke="none" points="-28.8,28.8 -28.8,-348.06 1784.22,-348.06 1784.22,28.8 -28.8,28.8"/>
<text xml:space="preserve" text-anchor="start" x="727.71" y="-305.81" font-family="Helvetica,sans-Serif" font-weight="bold" font-size="11.00">MalAnalyzer &#45; Write&#45;Only Result Pump (two&#45;process split)</text>
<text xml:space="preserve" text-anchor="start" x="566.83" y="-295.76" font-family="Helvetica,sans-Serif" font-size="10.00">Untrusted mover + network&#45;dead validator. Validation precedes the control plane seeing any byte. Fail&#45;closed: malformed → dropped + flagged.</text>
<g id="clust1" class="cluster">
<title>cluster_det</title>
<path fill="#ffebee" stroke="#c62828" stroke-width="2" d="M20,-111.26C20,-111.26 146.22,-111.26 146.22,-111.26 152.22,-111.26 158.22,-117.26 158.22,-123.26 158.22,-123.26 158.22,-181.26 158.22,-181.26 158.22,-187.26 152.22,-193.26 146.22,-193.26 146.22,-193.26 20,-193.26 20,-193.26 14,-193.26 8,-187.26 8,-181.26 8,-181.26 8,-123.26 8,-123.26 8,-117.26 14,-111.26 20,-111.26"/>
<text xml:space="preserve" text-anchor="start" x="19.36" y="-179.81" font-family="Helvetica,sans-Serif" font-weight="bold" font-size="11.00" fill="#b71c1c">DETONATION</text>
<text xml:space="preserve" text-anchor="start" x="91.36" y="-179.81" font-family="Helvetica,sans-Serif" font-size="11.00" fill="#b71c1c"> (untrusted)</text>
</g>
<g id="clust2" class="cluster">
<title>cluster_mover</title>
<path fill="#fff3e0" stroke="#ef6c00" stroke-width="2" d="M274.72,-100.26C274.72,-100.26 582.41,-100.26 582.41,-100.26 588.41,-100.26 594.41,-106.26 594.41,-112.26 594.41,-112.26 594.41,-192.26 594.41,-192.26 594.41,-198.26 588.41,-204.26 582.41,-204.26 582.41,-204.26 274.72,-204.26 274.72,-204.26 268.72,-204.26 262.72,-198.26 262.72,-192.26 262.72,-192.26 262.72,-112.26 262.72,-112.26 262.72,-106.26 268.72,-100.26 274.72,-100.26"/>
<text xml:space="preserve" text-anchor="start" x="343.06" y="-190.81" font-family="Helvetica,sans-Serif" font-weight="bold" font-size="11.00" fill="#e65100">PUMP, mover</text>
<text xml:space="preserve" text-anchor="start" x="412.81" y="-190.81" font-family="Helvetica,sans-Serif" font-size="11.00" fill="#e65100"> (untrusted transport)</text>
</g>
<g id="clust3" class="cluster">
<title>cluster_val</title>
<path fill="#fffde7" stroke="#f9a825" stroke-width="2.2" d="M758.91,-94.26C758.91,-94.26 1068.28,-94.26 1068.28,-94.26 1074.28,-94.26 1080.28,-100.26 1080.28,-106.26 1080.28,-106.26 1080.28,-198.26 1080.28,-198.26 1080.28,-204.26 1074.28,-210.26 1068.28,-210.26 1068.28,-210.26 758.91,-210.26 758.91,-210.26 752.91,-210.26 746.91,-204.26 746.91,-198.26 746.91,-198.26 746.91,-106.26 746.91,-106.26 746.91,-100.26 752.91,-94.26 758.91,-94.26"/>
<text xml:space="preserve" text-anchor="start" x="777.84" y="-196.81" font-family="Helvetica,sans-Serif" font-weight="bold" font-size="11.00" fill="#e65100">PUMP, validator</text>
<text xml:space="preserve" text-anchor="start" x="860.34" y="-196.81" font-family="Helvetica,sans-Serif" font-size="11.00" fill="#e65100"> (network&#45;dead, seccomp&#45;strict, fuzzed)</text>
</g>
<g id="clust4" class="cluster">
<title>cluster_ctrl</title>
<path fill="#e8f5e9" stroke="#2e7d32" stroke-width="2" d="M1254.13,-103.26C1254.13,-103.26 1423.1,-103.26 1423.1,-103.26 1429.1,-103.26 1435.1,-109.26 1435.1,-115.26 1435.1,-115.26 1435.1,-270.26 1435.1,-270.26 1435.1,-276.26 1429.1,-282.26 1423.1,-282.26 1423.1,-282.26 1254.13,-282.26 1254.13,-282.26 1248.13,-282.26 1242.13,-276.26 1242.13,-270.26 1242.13,-270.26 1242.13,-115.26 1242.13,-115.26 1242.13,-109.26 1248.13,-103.26 1254.13,-103.26"/>
<text xml:space="preserve" text-anchor="start" x="1268.86" y="-268.81" font-family="Helvetica,sans-Serif" font-weight="bold" font-size="11.00" fill="#1b5e20">CONTROL PLANE</text>
<text xml:space="preserve" text-anchor="start" x="1364.86" y="-268.81" font-family="Helvetica,sans-Serif" font-size="11.00" fill="#1b5e20"> (trusted)</text>
</g>
<!-- DS -->
<g id="node1" class="node">
<title>DS</title>
<path fill="#ffcdd2" stroke="#c62828" stroke-width="1.4" d="M150.22,-161.39C150.22,-163.74 120.14,-165.65 83.11,-165.65 46.08,-165.65 16,-163.74 16,-161.39 16,-161.39 16,-123.12 16,-123.12 16,-120.78 46.08,-118.87 83.11,-118.87 120.14,-118.87 150.22,-120.78 150.22,-123.12 150.22,-123.12 150.22,-161.39 150.22,-161.39"/>
<path fill="none" stroke="#c62828" stroke-width="1.4" d="M150.22,-161.39C150.22,-159.05 120.14,-157.14 83.11,-157.14 46.08,-157.14 16,-159.05 16,-161.39"/>
<text xml:space="preserve" text-anchor="middle" x="83.11" y="-144.01" font-family="Helvetica,sans-Serif" font-size="10.00">Detonation&#45;local store</text>
<text xml:space="preserve" text-anchor="middle" x="83.11" y="-132.76" font-family="Helvetica,sans-Serif" font-size="10.00">(per&#45;run results + artifacts)</text>
</g>
<!-- MOVER -->
<g id="node2" class="node">
<title>MOVER</title>
<path fill="#ffe0b2" stroke="#ef6c00" stroke-width="1.4" d="M437.19,-176.52C437.19,-176.52 282.72,-176.52 282.72,-176.52 276.72,-176.52 270.72,-170.52 270.72,-164.52 270.72,-164.52 270.72,-120 270.72,-120 270.72,-114 276.72,-108 282.72,-108 282.72,-108 437.19,-108 437.19,-108 443.19,-108 449.19,-114 449.19,-120 449.19,-120 449.19,-164.52 449.19,-164.52 449.19,-170.52 443.19,-176.52 437.19,-176.52"/>
<text xml:space="preserve" text-anchor="middle" x="359.95" y="-161.26" font-family="Helvetica,sans-Serif" font-size="10.00">PULL bytes on schedule</text>
<text xml:space="preserve" text-anchor="middle" x="359.95" y="-150.01" font-family="Helvetica,sans-Serif" font-size="10.00">into a quarantine spool</text>
<text xml:space="preserve" text-anchor="middle" x="359.95" y="-126.76" font-family="Helvetica,sans-Serif" font-size="10.00">CREDS: read detonation store only</text>
<text xml:space="preserve" text-anchor="middle" x="359.95" y="-115.51" font-family="Helvetica,sans-Serif" font-size="10.00">CANNOT reach orchestrator or vault</text>
</g>
<!-- DS&#45;&gt;MOVER -->
<g id="edge3" class="edge">
<title>DS&#45;&gt;MOVER</title>
<path fill="none" stroke="#e65100" stroke-width="1.8" d="M158.22,-142.26C188.81,-142.26 224.75,-142.26 257.71,-142.26"/>
<polygon fill="#e65100" stroke="#e65100" stroke-width="1.8" points="250,-145.76 260,-142.26 250,-138.76 250,-145.76"/>
<text xml:space="preserve" text-anchor="middle" x="210.47" y="-153.21" font-family="Helvetica,sans-Serif" font-size="9.00"> PULL (no inbound</text>
<text xml:space="preserve" text-anchor="middle" x="210.47" y="-143.46" font-family="Helvetica,sans-Serif" font-size="9.00"> from control)</text>
</g>
<!-- ORCH -->
<g id="node6" class="node">
<title>ORCH</title>
<path fill="#c8e6c9" stroke="#2e7d32" stroke-width="1.4" d="M1415.1,-254.52C1415.1,-254.52 1262.13,-254.52 1262.13,-254.52 1256.13,-254.52 1250.13,-248.52 1250.13,-242.52 1250.13,-242.52 1250.13,-210 1250.13,-210 1250.13,-204 1256.13,-198 1262.13,-198 1262.13,-198 1415.1,-198 1415.1,-198 1421.1,-198 1427.1,-204 1427.1,-210 1427.1,-210 1427.1,-242.52 1427.1,-242.52 1427.1,-248.52 1421.1,-254.52 1415.1,-254.52"/>
<text xml:space="preserve" text-anchor="middle" x="1338.61" y="-239.26" font-family="Helvetica,sans-Serif" font-size="10.00">Orchestrator</text>
<text xml:space="preserve" text-anchor="middle" x="1338.61" y="-228.01" font-family="Helvetica,sans-Serif" font-size="10.00">canonical record &#45;&gt; Temporal history</text>
<text xml:space="preserve" text-anchor="middle" x="1338.61" y="-216.76" font-family="Helvetica,sans-Serif" font-size="10.00">(bounded, SAFELY deserialized,</text>
<text xml:space="preserve" text-anchor="middle" x="1338.61" y="-205.51" font-family="Helvetica,sans-Serif" font-size="10.00">no complex objects)</text>
</g>
<!-- DS&#45;&gt;ORCH -->
<g id="edge8" class="edge">
<title>DS&#45;&gt;ORCH</title>
<path fill="none" stroke="#c62828" stroke-width="2.2" stroke-dasharray="5,2" d="M150.72,-120.1C183.96,-110.14 225.03,-99.47 262.72,-94.26 622.66,-44.47 717.27,-72.11 1080.28,-88.26 1115.27,-89.82 1132.25,-72.39 1158.78,-95.26 1190.3,-122.42 1151.54,-156.65 1180.78,-186.26 1197.9,-203.6 1221.42,-213.78 1245.04,-219.66"/>
<polygon fill="#c62828" stroke="#c62828" stroke-width="2.2" points="1249.84,-215.66 1247.54,-225.39 1245.59,-224.93 1247.9,-215.2 1249.84,-215.66"/>
<polyline fill="none" stroke="#c62828" stroke-width="2.2" points="1249.66,-220.76 1244.8,-219.61"/>
<text xml:space="preserve" text-anchor="start" x="608.41" y="-79.19" font-family="Helvetica,sans-Serif" font-weight="bold" font-size="9.00" fill="#b71c1c">NEVER</text>
<text xml:space="preserve" text-anchor="start" x="639.91" y="-79.19" font-family="Helvetica,sans-Serif" font-size="9.00" fill="#b71c1c">: raw detonation output</text>
<text xml:space="preserve" text-anchor="start" x="609.91" y="-70.19" font-family="Helvetica,sans-Serif" font-size="9.00" fill="#b71c1c">is not deserialized by the core</text>
</g>
<!-- QSPOOL -->
<g id="node3" class="node">
<title>QSPOOL</title>
<path fill="#ffe0b2" stroke="#ef6c00" stroke-width="1.4" d="M586.41,-156.99C586.41,-158.79 565.74,-160.26 540.3,-160.26 514.86,-160.26 494.19,-158.79 494.19,-156.99 494.19,-156.99 494.19,-127.53 494.19,-127.53 494.19,-125.73 514.86,-124.26 540.3,-124.26 565.74,-124.26 586.41,-125.73 586.41,-127.53 586.41,-127.53 586.41,-156.99 586.41,-156.99"/>
<path fill="none" stroke="#ef6c00" stroke-width="1.4" d="M586.41,-156.99C586.41,-155.18 565.74,-153.71 540.3,-153.71 514.86,-153.71 494.19,-155.18 494.19,-156.99"/>
<text xml:space="preserve" text-anchor="middle" x="540.3" y="-138.38" font-family="Helvetica,sans-Serif" font-size="10.00">Quarantine spool</text>
</g>
<!-- MOVER&#45;&gt;QSPOOL -->
<g id="edge1" class="edge">
<title>MOVER&#45;&gt;QSPOOL</title>
<path fill="none" stroke="#37474f" stroke-width="1.3" d="M449.87,-142.26C465.05,-142.26 480.24,-142.26 493.68,-142.26"/>
</g>
<!-- VAL -->
<g id="node4" class="node">
<title>VAL</title>
<path fill="#ffe082" stroke="#f9a825" stroke-width="1.4" d="M928.88,-181.77C928.88,-181.77 766.91,-181.77 766.91,-181.77 760.91,-181.77 754.91,-175.77 754.91,-169.77 754.91,-169.77 754.91,-114.75 754.91,-114.75 754.91,-108.75 760.91,-102.75 766.91,-102.75 766.91,-102.75 928.88,-102.75 928.88,-102.75 934.88,-102.75 940.88,-108.75 940.88,-114.75 940.88,-114.75 940.88,-169.77 940.88,-169.77 940.88,-175.77 934.88,-181.77 928.88,-181.77"/>
<text xml:space="preserve" text-anchor="middle" x="847.89" y="-166.51" font-family="Helvetica,sans-Serif" font-size="10.00">Validate vs strict JSON&#45;Schema</text>
<text xml:space="preserve" text-anchor="middle" x="847.89" y="-155.26" font-family="Helvetica,sans-Serif" font-size="10.00">&#45; size / array / string caps</text>
<text xml:space="preserve" text-anchor="middle" x="847.89" y="-144.01" font-family="Helvetica,sans-Serif" font-size="10.00"> &#160;(total size &lt;= Temporal payload limit)</text>
<text xml:space="preserve" text-anchor="middle" x="847.89" y="-132.76" font-family="Helvetica,sans-Serif" font-size="10.00">&#45; field allow&#45;list, type/regex</text>
<text xml:space="preserve" text-anchor="middle" x="847.89" y="-121.51" font-family="Helvetica,sans-Serif" font-size="10.00">&#45; artifact hash exists in bundle</text>
<text xml:space="preserve" text-anchor="middle" x="847.89" y="-110.26" font-family="Helvetica,sans-Serif" font-size="10.00">&#45; NO pickle, NO Any, NO nesting</text>
</g>
<!-- QSPOOL&#45;&gt;VAL -->
<g id="edge4" class="edge">
<title>QSPOOL&#45;&gt;VAL</title>
<path fill="none" stroke="#ef6c00" stroke-width="1.6" d="M587.05,-142.26C627.91,-142.26 689.29,-142.26 742.13,-142.26"/>
<polygon fill="#ef6c00" stroke="#ef6c00" stroke-width="1.6" points="734.49,-145.76 744.49,-142.26 734.49,-138.76 734.49,-145.76"/>
<text xml:space="preserve" text-anchor="middle" x="670.66" y="-143.46" font-family="Helvetica,sans-Serif" font-size="9.00"> local pipe/fd</text>
</g>
<!-- DEC -->
<g id="node5" class="node">
<title>DEC</title>
<polygon fill="#fff3e0" stroke="#e65100" stroke-width="1.4" points="1029.08,-174.66 985.88,-142.26 1029.08,-109.86 1072.28,-142.26 1029.08,-174.66"/>
<text xml:space="preserve" text-anchor="middle" x="1029.08" y="-138.38" font-family="Helvetica,sans-Serif" font-size="10.00">valid?</text>
</g>
<!-- VAL&#45;&gt;DEC -->
<g id="edge2" class="edge">
<title>VAL&#45;&gt;DEC</title>
<path fill="none" stroke="#37474f" stroke-width="1.3" d="M941.37,-142.26C952.2,-142.26 962.98,-142.26 973.06,-142.26"/>
<polygon fill="#37474f" stroke="#37474f" stroke-width="1.3" points="973.01,-145.76 983.01,-142.26 973.01,-138.76 973.01,-145.76"/>
</g>
<!-- DEC&#45;&gt;ORCH -->
<g id="edge5" class="edge">
<title>DEC&#45;&gt;ORCH</title>
<path fill="none" stroke="#2e7d32" stroke-width="1.8" d="M1057.24,-154.32C1068.55,-159.06 1081.91,-164.3 1094.28,-168.26 1140.6,-183.06 1192.95,-196.02 1237.2,-205.9"/>
<polygon fill="#2e7d32" stroke="#2e7d32" stroke-width="1.8" points="1229.04,-208.27 1239.43,-206.22 1230.03,-201.34 1229.04,-208.27"/>
<text xml:space="preserve" text-anchor="middle" x="1126.53" y="-196.46" font-family="Helvetica,sans-Serif" font-size="9.00"> YES: canonical</text>
<text xml:space="preserve" text-anchor="middle" x="1126.53" y="-186.71" font-family="Helvetica,sans-Serif" font-size="9.00"> schema only</text>
</g>
<!-- WORM -->
<g id="node7" class="node">
<title>WORM</title>
<path fill="#cfd8dc" stroke="#546e7a" stroke-width="1.4" d="M1392.22,-167.72C1392.22,-170.85 1368.2,-173.38 1338.61,-173.38 1309.03,-173.38 1285,-170.85 1285,-167.72 1285,-167.72 1285,-116.79 1285,-116.79 1285,-113.67 1309.03,-111.14 1338.61,-111.14 1368.2,-111.14 1392.22,-113.67 1392.22,-116.79 1392.22,-116.79 1392.22,-167.72 1392.22,-167.72"/>
<path fill="none" stroke="#546e7a" stroke-width="1.4" d="M1392.22,-167.72C1392.22,-164.6 1368.2,-162.06 1338.61,-162.06 1309.03,-162.06 1285,-164.6 1285,-167.72"/>
<text xml:space="preserve" text-anchor="middle" x="1338.61" y="-149.63" font-family="Helvetica,sans-Serif" font-size="10.00">WORM vault</text>
<text xml:space="preserve" text-anchor="middle" x="1338.61" y="-138.38" font-family="Helvetica,sans-Serif" font-size="10.00">artifact bytes copied</text>
<text xml:space="preserve" text-anchor="middle" x="1338.61" y="-127.13" font-family="Helvetica,sans-Serif" font-size="10.00">AFTER validation</text>
</g>
<!-- DEC&#45;&gt;WORM -->
<g id="edge6" class="edge">
<title>DEC&#45;&gt;WORM</title>
<path fill="none" stroke="#2e7d32" stroke-width="1.4" d="M1073.17,-142.26C1124.97,-142.26 1212.44,-142.26 1272.5,-142.26"/>
<polygon fill="#2e7d32" stroke="#2e7d32" stroke-width="1.4" points="1272.39,-145.76 1282.39,-142.26 1272.39,-138.76 1272.39,-145.76"/>
<text xml:space="preserve" text-anchor="middle" x="1126.53" y="-153.21" font-family="Helvetica,sans-Serif" font-size="9.00"> YES: copy</text>
<text xml:space="preserve" text-anchor="middle" x="1126.53" y="-143.46" font-family="Helvetica,sans-Serif" font-size="9.00"> artifact bytes</text>
</g>
<!-- REJECT -->
<g id="node8" class="node">
<title>REJECT</title>
<path fill="#ffcdd2" stroke="#b71c1c" stroke-width="2" d="M1496.45,-37.29C1496.45,-37.29 1496.45,-49.23 1496.45,-49.23 1496.45,-55.2 1490.69,-62.76 1484.93,-64.33 1484.93,-64.33 1415.51,-83.36 1415.51,-83.36 1409.75,-84.94 1398.02,-86.52 1392.05,-86.52 1392.05,-86.52 1285.18,-86.52 1285.18,-86.52 1279.21,-86.52 1267.48,-84.94 1261.72,-83.36 1261.72,-83.36 1192.3,-64.33 1192.3,-64.33 1186.54,-62.76 1180.78,-55.2 1180.78,-49.23 1180.78,-49.23 1180.78,-37.29 1180.78,-37.29 1180.78,-31.31 1186.54,-23.76 1192.3,-22.18 1192.3,-22.18 1261.72,-3.16 1261.72,-3.16 1267.48,-1.58 1279.21,0 1285.18,0 1285.18,0 1392.05,0 1392.05,0 1398.02,0 1409.75,-1.58 1415.51,-3.16 1415.51,-3.16 1484.93,-22.18 1484.93,-22.18 1490.69,-23.76 1496.45,-31.31 1496.45,-37.29"/>
<text xml:space="preserve" text-anchor="middle" x="1338.61" y="-56.26" font-family="Helvetica,sans-Serif" font-size="10.00" fill="#b71c1c">FAIL&#45;CLOSED</text>
<text xml:space="preserve" text-anchor="middle" x="1338.61" y="-45.01" font-family="Helvetica,sans-Serif" font-size="10.00" fill="#b71c1c">run &#45;&gt; crashed / suspicious</text>
<text xml:space="preserve" text-anchor="middle" x="1338.61" y="-33.76" font-family="Helvetica,sans-Serif" font-size="10.00" fill="#b71c1c">payload DROPPED (never parsed by core)</text>
<text xml:space="preserve" text-anchor="middle" x="1338.61" y="-22.51" font-family="Helvetica,sans-Serif" font-size="10.00" fill="#b71c1c">incident logged</text>
</g>
<!-- DEC&#45;&gt;REJECT -->
<g id="edge7" class="edge">
<title>DEC&#45;&gt;REJECT</title>
<path fill="none" stroke="#c62828" stroke-width="1.8" stroke-dasharray="5,2" d="M1060.41,-132.5C1097.91,-120.42 1163.91,-99.18 1222.11,-80.44"/>
<polygon fill="#c62828" stroke="#c62828" stroke-width="1.8" points="1222.97,-83.84 1231.42,-77.45 1220.83,-77.18 1222.97,-83.84"/>
<text xml:space="preserve" text-anchor="middle" x="1126.53" y="-122.07" font-family="Helvetica,sans-Serif" font-size="9.00"> NO</text>
</g>
<!-- HONEST -->
<g id="node9" class="node">
<title>HONEST</title>
<polygon fill="#ffebee" stroke="#c62828" stroke-width="1.4" points="1744.17,-78.27 1523.7,-78.27 1523.7,-8.25 1750.17,-8.25 1750.17,-72.27 1744.17,-78.27"/>
<polyline fill="none" stroke="#c62828" stroke-width="1.4" points="1744.17,-78.27 1744.17,-72.27"/>
<polyline fill="none" stroke="#c62828" stroke-width="1.4" points="1750.17,-72.27 1744.17,-72.27"/>
<text xml:space="preserve" text-anchor="middle" x="1636.93" y="-63.96" font-family="Helvetica,sans-Serif" font-size="9.00">PARSE&#45;SAFE, NOT HONEST: the pump proves the</text>
<text xml:space="preserve" text-anchor="middle" x="1636.93" y="-54.21" font-family="Helvetica,sans-Serif" font-size="9.00">result is well&#45;formed, not that it is true. A result</text>
<text xml:space="preserve" text-anchor="middle" x="1636.93" y="-44.46" font-family="Helvetica,sans-Serif" font-size="9.00">from a compromised detonation host can be a</text>
<text xml:space="preserve" text-anchor="middle" x="1636.93" y="-34.71" font-family="Helvetica,sans-Serif" font-size="9.00">schema&#45;valid LIE &#45; so a benign result never lowers</text>
<text xml:space="preserve" text-anchor="middle" x="1636.93" y="-24.96" font-family="Helvetica,sans-Serif" font-size="9.00">a verdict, and escape indicators floor the run</text>
<text xml:space="preserve" text-anchor="middle" x="1636.93" y="-15.21" font-family="Helvetica,sans-Serif" font-size="9.00">(diagram 03 / 06).</text>
</g>
<!-- BLAST -->
<g id="node10" class="node">
<title>BLAST</title>
<polygon fill="#fff8e1" stroke="#f9a825" stroke-width="1.4" points="1749.42,-133.52 1518.45,-133.52 1518.45,-83 1755.42,-83 1755.42,-127.52 1749.42,-133.52"/>
<polyline fill="none" stroke="#f9a825" stroke-width="1.4" points="1749.42,-133.52 1749.42,-127.52"/>
<polyline fill="none" stroke="#f9a825" stroke-width="1.4" points="1755.42,-127.52 1749.42,-127.52"/>
<text xml:space="preserve" text-anchor="middle" x="1636.93" y="-119.21" font-family="Helvetica,sans-Serif" font-size="9.00">IF THE VALIDATOR FALLS (residual R8): blast radius</text>
<text xml:space="preserve" text-anchor="middle" x="1636.93" y="-109.46" font-family="Helvetica,sans-Serif" font-size="9.00">bounded by the 2&#45;process split (mover holds no</text>
<text xml:space="preserve" text-anchor="middle" x="1636.93" y="-99.71" font-family="Helvetica,sans-Serif" font-size="9.00">control creds) + continuous fuzzing + strict caps.</text>
<text xml:space="preserve" text-anchor="middle" x="1636.93" y="-89.96" font-family="Helvetica,sans-Serif" font-size="9.00">Hardware data diode = highest&#45;assurance option.</text>
</g>
</g>
</svg>
