<?xml version="1.0" encoding="UTF-8" standalone="no"?>
<!DOCTYPE svg PUBLIC "-//W3C//DTD SVG 1.1//EN"
 "http://www.w3.org/Graphics/SVG/1.1/DTD/svg11.dtd">
<!-- Generated by graphviz version 14.1.4 (20260321.0153)
 -->
<!-- Title: lifecycle Pages: 1 -->
<svg width="905pt" height="1044pt"
 viewBox="0.00 0.00 905.00 1044.00" xmlns="http://www.w3.org/2000/svg" xmlns:xlink="http://www.w3.org/1999/xlink">
<g id="graph0" class="graph" transform="scale(1 1) rotate(0) translate(28.8 1015.44)">
<title>lifecycle</title>
<polygon fill="white" stroke="none" points="-28.8,28.8 -28.8,-1015.44 876.36,-1015.44 876.36,28.8 -28.8,28.8"/>
<text xml:space="preserve" text-anchor="start" x="275.66" y="-973.19" font-family="Helvetica,sans-Serif" font-weight="bold" font-size="11.00">MalAnalyzer &#45; Sample Lifecycle (fail&#45;closed at every gate)</text>
<text xml:space="preserve" text-anchor="start" x="165.78" y="-963.14" font-family="Helvetica,sans-Serif" font-size="10.00">Plane colour = where each step runs. Amber octagons are fail&#45;closed gates: no path here yields BENIGN by omission.</text>
<!-- SUBMIT -->
<g id="node1" class="node">
<title>SUBMIT</title>
<path fill="#c8e6c9" stroke="#2e7d32" stroke-width="1.3" d="M367.78,-957.64C367.78,-957.64 274.88,-957.64 274.88,-957.64 268.88,-957.64 262.88,-951.64 262.88,-945.64 262.88,-945.64 262.88,-933.64 262.88,-933.64 262.88,-927.64 268.88,-921.64 274.88,-921.64 274.88,-921.64 367.78,-921.64 367.78,-921.64 373.78,-921.64 379.78,-927.64 379.78,-933.64 379.78,-933.64 379.78,-945.64 379.78,-945.64 379.78,-951.64 373.78,-957.64 367.78,-957.64"/>
<text xml:space="preserve" text-anchor="middle" x="321.33" y="-941.39" font-family="Helvetica,sans-Serif" font-size="10.00">(1) Submit &#45;&gt; gateway</text>
<text xml:space="preserve" text-anchor="middle" x="321.33" y="-930.14" font-family="Helvetica,sans-Serif" font-size="10.00">OIDC, OPA, audit</text>
</g>
<!-- VAULT -->
<g id="node2" class="node">
<title>VAULT</title>
<path fill="#cfd8dc" stroke="#546e7a" stroke-width="1.3" d="M417.28,-880.57C417.28,-882.82 374.28,-884.64 321.33,-884.64 268.38,-884.64 225.38,-882.82 225.38,-880.57 225.38,-880.57 225.38,-843.92 225.38,-843.92 225.38,-841.67 268.38,-839.84 321.33,-839.84 374.28,-839.84 417.28,-841.67 417.28,-843.92 417.28,-843.92 417.28,-880.57 417.28,-880.57"/>
<path fill="none" stroke="#546e7a" stroke-width="1.3" d="M417.28,-880.57C417.28,-878.32 374.28,-876.5 321.33,-876.5 268.38,-876.5 225.38,-878.32 225.38,-880.57"/>
<text xml:space="preserve" text-anchor="middle" x="321.33" y="-863.99" font-family="Helvetica,sans-Serif" font-size="10.00">Vault write</text>
<text xml:space="preserve" text-anchor="middle" x="321.33" y="-852.74" font-family="Helvetica,sans-Serif" font-size="10.00">SHA&#45;256 dedup, envelope&#45;enc, WORM</text>
</g>
<!-- SUBMIT&#45;&gt;VAULT -->
<g id="edge1" class="edge">
<title>SUBMIT&#45;&gt;VAULT</title>
<path fill="none" stroke="#37474f" stroke-width="1.2" d="M321.33,-921.15C321.33,-913.88 321.33,-905.18 321.33,-896.76"/>
<polygon fill="#37474f" stroke="#37474f" stroke-width="1.2" points="324.83,-897.04 321.33,-887.04 317.83,-897.04 324.83,-897.04"/>
</g>
<!-- ROOT -->
<g id="node3" class="node">
<title>ROOT</title>
<path fill="#c8e6c9" stroke="#2e7d32" stroke-width="1.3" d="M377.16,-802.84C377.16,-802.84 265.5,-802.84 265.5,-802.84 259.5,-802.84 253.5,-796.84 253.5,-790.84 253.5,-790.84 253.5,-778.84 253.5,-778.84 253.5,-772.84 259.5,-766.84 265.5,-766.84 265.5,-766.84 377.16,-766.84 377.16,-766.84 383.16,-766.84 389.16,-772.84 389.16,-778.84 389.16,-778.84 389.16,-790.84 389.16,-790.84 389.16,-796.84 383.16,-802.84 377.16,-802.84"/>
<text xml:space="preserve" text-anchor="middle" x="321.33" y="-780.97" font-family="Helvetica,sans-Serif" font-size="10.00">(2) Temporal root workflow</text>
</g>
<!-- VAULT&#45;&gt;ROOT -->
<g id="edge2" class="edge">
<title>VAULT&#45;&gt;ROOT</title>
<path fill="none" stroke="#37474f" stroke-width="1.2" d="M321.33,-839.43C321.33,-831.81 321.33,-823.12 321.33,-815"/>
<polygon fill="#37474f" stroke="#37474f" stroke-width="1.2" points="324.83,-815.12 321.33,-805.12 317.83,-815.12 324.83,-815.12"/>
</g>
<!-- IDENT -->
<g id="node4" class="node">
<title>IDENT</title>
<path fill="#bbdefb" stroke="#1565c0" stroke-width="1.3" d="M387.28,-729.84C387.28,-729.84 255.38,-729.84 255.38,-729.84 249.38,-729.84 243.38,-723.84 243.38,-717.84 243.38,-717.84 243.38,-705.84 243.38,-705.84 243.38,-699.84 249.38,-693.84 255.38,-693.84 255.38,-693.84 387.28,-693.84 387.28,-693.84 393.28,-693.84 399.28,-699.84 399.28,-705.84 399.28,-705.84 399.28,-717.84 399.28,-717.84 399.28,-723.84 393.28,-729.84 387.28,-729.84"/>
<text xml:space="preserve" text-anchor="middle" x="321.33" y="-713.59" font-family="Helvetica,sans-Serif" font-size="10.00">(3) Identify (Magika)</text>
<text xml:space="preserve" text-anchor="middle" x="321.33" y="-702.34" font-family="Helvetica,sans-Serif" font-size="10.00">sandboxed, true type &#45;&gt; routing</text>
</g>
<!-- ROOT&#45;&gt;IDENT -->
<g id="edge3" class="edge">
<title>ROOT&#45;&gt;IDENT</title>
<path fill="none" stroke="#37474f" stroke-width="1.2" d="M321.33,-766.29C321.33,-758.9 321.33,-750.09 321.33,-741.79"/>
<polygon fill="#37474f" stroke="#37474f" stroke-width="1.2" points="324.83,-742.01 321.33,-732.01 317.83,-742.01 324.83,-742.01"/>
</g>
<!-- EXTRACT -->
<g id="node5" class="node">
<title>EXTRACT</title>
<path fill="#bbdefb" stroke="#1565c0" stroke-width="1.3" d="M400.03,-637.28C400.03,-637.28 242.62,-637.28 242.62,-637.28 236.62,-637.28 230.62,-631.28 230.62,-625.28 230.62,-625.28 230.62,-613.28 230.62,-613.28 230.62,-607.28 236.62,-601.28 242.62,-601.28 242.62,-601.28 400.03,-601.28 400.03,-601.28 406.03,-601.28 412.03,-607.28 412.03,-613.28 412.03,-613.28 412.03,-625.28 412.03,-625.28 412.03,-631.28 406.03,-637.28 400.03,-637.28"/>
<text xml:space="preserve" text-anchor="middle" x="321.33" y="-621.03" font-family="Helvetica,sans-Serif" font-size="10.00">(4) Extract (sandboxed)</text>
<text xml:space="preserve" text-anchor="middle" x="321.33" y="-609.78" font-family="Helvetica,sans-Serif" font-size="10.00">reject symlink/abs/.., size/entry caps</text>
</g>
<!-- IDENT&#45;&gt;EXTRACT -->
<g id="edge4" class="edge">
<title>IDENT&#45;&gt;EXTRACT</title>
<path fill="none" stroke="#37474f" stroke-width="1.2" d="M321.33,-693.38C321.33,-680.85 321.33,-663.69 321.33,-649.13"/>
<polygon fill="#37474f" stroke="#37474f" stroke-width="1.2" points="324.83,-649.5 321.33,-639.5 317.83,-649.5 324.83,-649.5"/>
</g>
<!-- STATIC -->
<g id="node6" class="node">
<title>STATIC</title>
<path fill="#bbdefb" stroke="#1565c0" stroke-width="1.3" d="M531.66,-544.72C531.66,-544.72 111,-544.72 111,-544.72 105,-544.72 99,-538.72 99,-532.72 99,-532.72 99,-520.72 99,-520.72 99,-514.72 105,-508.72 111,-508.72 111,-508.72 531.66,-508.72 531.66,-508.72 537.66,-508.72 543.66,-514.72 543.66,-520.72 543.66,-520.72 543.66,-532.72 543.66,-532.72 543.66,-538.72 537.66,-544.72 531.66,-544.72"/>
<text xml:space="preserve" text-anchor="middle" x="321.33" y="-528.47" font-family="Helvetica,sans-Serif" font-size="10.00">(5) Static fan&#45;out (single&#45;use, tenant&#45;partitioned)</text>
<text xml:space="preserve" text-anchor="middle" x="321.33" y="-517.22" font-family="Helvetica,sans-Serif" font-size="10.00">ML pre&#45;verdict (non&#45;authoritative), DIE/PE, FLOSS, capa/ATT&amp;CK, doc/script/shellcode, YARA&#45;X</text>
</g>
<!-- EXTRACT&#45;&gt;STATIC -->
<g id="edge5" class="edge">
<title>EXTRACT&#45;&gt;STATIC</title>
<path fill="none" stroke="#37474f" stroke-width="1.2" d="M321.33,-600.82C321.33,-588.29 321.33,-571.12 321.33,-556.57"/>
<polygon fill="#37474f" stroke="#37474f" stroke-width="1.2" points="324.83,-556.94 321.33,-546.94 317.83,-556.94 324.83,-556.94"/>
</g>
<!-- FC1 -->
<g id="node14" class="node">
<title>FC1</title>
<polygon fill="#ffe082" stroke="#e65100" stroke-width="1.6" points="737.03,-603.72 737.03,-634.84 656.37,-656.84 542.29,-656.84 461.63,-634.84 461.63,-603.72 542.29,-581.72 656.37,-581.72 737.03,-603.72"/>
<text xml:space="preserve" text-anchor="middle" x="599.33" y="-630.23" font-family="Helvetica,sans-Serif" font-size="9.00">FAIL&#45;CLOSED</text>
<text xml:space="preserve" text-anchor="middle" x="599.33" y="-620.48" font-family="Helvetica,sans-Serif" font-size="9.00">cap/zip&#45;bomb/traversal &#45;&gt;</text>
<text xml:space="preserve" text-anchor="middle" x="599.33" y="-610.73" font-family="Helvetica,sans-Serif" font-size="9.00">truncate + flag, branch = SUSPICIOUS</text>
<text xml:space="preserve" text-anchor="middle" x="599.33" y="-600.98" font-family="Helvetica,sans-Serif" font-size="9.00">+ analysis_incomplete (never BENIGN)</text>
</g>
<!-- EXTRACT&#45;&gt;FC1 -->
<g id="edge14" class="edge">
<title>EXTRACT&#45;&gt;FC1</title>
<path fill="none" stroke="#e65100" stroke-width="1.2" stroke-dasharray="1,5" d="M412.55,-619.28C428.72,-619.28 444.89,-619.28 461.07,-619.28"/>
</g>
<!-- WARRANT -->
<g id="node7" class="node">
<title>WARRANT</title>
<polygon fill="#fff3e0" stroke="#e65100" stroke-width="1.3" points="321.33,-459.09 223.67,-426.69 321.33,-394.29 418.99,-426.69 321.33,-459.09"/>
<text xml:space="preserve" text-anchor="middle" x="321.33" y="-422.81" font-family="Helvetica,sans-Serif" font-size="10.00">(6) detonation warranted?</text>
</g>
<!-- STATIC&#45;&gt;WARRANT -->
<g id="edge6" class="edge">
<title>STATIC&#45;&gt;WARRANT</title>
<path fill="none" stroke="#37474f" stroke-width="1.2" d="M321.33,-508.19C321.33,-497.9 321.33,-484.4 321.33,-471.41"/>
<polygon fill="#37474f" stroke="#37474f" stroke-width="1.2" points="324.83,-471.54 321.33,-461.54 317.83,-471.54 324.83,-471.54"/>
</g>
<!-- DETON -->
<g id="node8" class="node">
<title>DETON</title>
<path fill="#ffcdd2" stroke="#c62828" stroke-width="1.3" d="M345.16,-306.6C345.16,-306.6 125.5,-306.6 125.5,-306.6 119.5,-306.6 113.5,-300.6 113.5,-294.6 113.5,-294.6 113.5,-282.6 113.5,-282.6 113.5,-276.6 119.5,-270.6 125.5,-270.6 125.5,-270.6 345.16,-270.6 345.16,-270.6 351.16,-270.6 357.16,-276.6 357.16,-282.6 357.16,-282.6 357.16,-294.6 357.16,-294.6 357.16,-300.6 351.16,-306.6 345.16,-306.6"/>
<text xml:space="preserve" text-anchor="middle" x="235.33" y="-290.35" font-family="Helvetica,sans-Serif" font-size="10.00">(7) Detonate (slot&#45;admitted, budget&#45;gated)</text>
<text xml:space="preserve" text-anchor="middle" x="235.33" y="-279.1" font-family="Helvetica,sans-Serif" font-size="10.00">out&#45;of&#45;band evidence &#45;&gt; pump &#45;&gt; canonical schema</text>
</g>
<!-- WARRANT&#45;&gt;DETON -->
<g id="edge7" class="edge">
<title>WARRANT&#45;&gt;DETON</title>
<path fill="none" stroke="#e65100" stroke-width="1.2" d="M304.75,-399.45C289.78,-375.77 267.84,-341.05 252.65,-317.01"/>
<polygon fill="#e65100" stroke="#e65100" stroke-width="1.2" points="255.67,-315.23 247.37,-308.65 249.75,-318.97 255.67,-315.23"/>
<text xml:space="preserve" text-anchor="middle" x="324.41" y="-355.11" font-family="Helvetica,sans-Serif" font-size="9.00" fill="#e65100"> YES / inconclusive</text>
<text xml:space="preserve" text-anchor="middle" x="324.41" y="-345.36" font-family="Helvetica,sans-Serif" font-size="9.00" fill="#e65100"> (fail toward dynamic)</text>
</g>
<!-- AGG -->
<g id="node9" class="node">
<title>AGG</title>
<path fill="#fff3e0" stroke="#e65100" stroke-width="1.3" d="M405.28,-205.85C405.28,-205.85 237.38,-205.85 237.38,-205.85 231.38,-205.85 225.38,-199.85 225.38,-193.85 225.38,-193.85 225.38,-174.02 225.38,-174.02 225.38,-168.02 231.38,-162.02 237.38,-162.02 237.38,-162.02 405.28,-162.02 405.28,-162.02 411.28,-162.02 417.28,-168.02 417.28,-174.02 417.28,-174.02 417.28,-193.85 417.28,-193.85 417.28,-199.85 411.28,-205.85 405.28,-205.85"/>
<text xml:space="preserve" text-anchor="middle" x="321.33" y="-191.31" font-family="Helvetica,sans-Serif" font-size="10.00">(8) Aggregate</text>
<text xml:space="preserve" text-anchor="middle" x="321.33" y="-180.06" font-family="Helvetica,sans-Serif" font-size="10.00">monotone max over unique DAG nodes</text>
<text xml:space="preserve" text-anchor="middle" x="321.33" y="-168.81" font-family="Helvetica,sans-Serif" font-size="10.00">+ diversity signal</text>
</g>
<!-- WARRANT&#45;&gt;AGG -->
<g id="edge8" class="edge">
<title>WARRANT&#45;&gt;AGG</title>
<path fill="none" stroke="#37474f" stroke-width="1.2" d="M347.84,-402.73C358.2,-392.03 368.89,-378.41 374.33,-363.66 382.27,-342.16 400.16,-337.95 369.33,-251.03 364.83,-238.34 357.06,-225.98 349.08,-215.43"/>
<polygon fill="#37474f" stroke="#37474f" stroke-width="1.2" points="351.89,-213.34 342.9,-207.73 346.42,-217.72 351.89,-213.34"/>
<text xml:space="preserve" text-anchor="middle" x="433.24" y="-289.8" font-family="Helvetica,sans-Serif" font-size="9.00"> NO &#45; clearly benign</text>
<text xml:space="preserve" text-anchor="middle" x="433.24" y="-280.05" font-family="Helvetica,sans-Serif" font-size="9.00"> with full coverage only</text>
</g>
<!-- FC2 -->
<g id="node15" class="node">
<title>FC2</title>
<polygon fill="#ffe082" stroke="#e65100" stroke-width="1.6" points="762.21,-408.04 762.21,-445.34 676.17,-471.72 554.49,-471.72 468.45,-445.34 468.45,-408.04 554.49,-381.66 676.17,-381.66 762.21,-408.04"/>
<text xml:space="preserve" text-anchor="middle" x="615.33" y="-442.51" font-family="Helvetica,sans-Serif" font-size="9.00">FAIL&#45;CLOSED</text>
<text xml:space="preserve" text-anchor="middle" x="615.33" y="-432.76" font-family="Helvetica,sans-Serif" font-size="9.00">static&#45;inconclusive routes to dynamic;</text>
<text xml:space="preserve" text-anchor="middle" x="615.33" y="-423.01" font-family="Helvetica,sans-Serif" font-size="9.00">unanalyzed_region (overlay / entropy tail /</text>
<text xml:space="preserve" text-anchor="middle" x="615.33" y="-413.26" font-family="Helvetica,sans-Serif" font-size="9.00">unknown container) is a suspicion signal;</text>
<text xml:space="preserve" text-anchor="middle" x="615.33" y="-403.51" font-family="Helvetica,sans-Serif" font-size="9.00">no slot &#45;&gt; analysis_incomplete, not benign</text>
</g>
<!-- WARRANT&#45;&gt;FC2 -->
<g id="edge15" class="edge">
<title>WARRANT&#45;&gt;FC2</title>
<path fill="none" stroke="#e65100" stroke-width="1.2" stroke-dasharray="1,5" d="M420.96,-426.69C436.52,-426.69 452.09,-426.69 467.65,-426.69"/>
</g>
<!-- DETON&#45;&gt;AGG -->
<g id="edge9" class="edge">
<title>DETON&#45;&gt;AGG</title>
<path fill="none" stroke="#37474f" stroke-width="1.2" d="M249.92,-270.18C262.49,-255.18 280.92,-233.17 295.91,-215.28"/>
<polygon fill="#37474f" stroke="#37474f" stroke-width="1.2" points="298.48,-217.66 302.22,-207.75 293.11,-213.17 298.48,-217.66"/>
</g>
<!-- FC3 -->
<g id="node16" class="node">
<title>FC3</title>
<polygon fill="#ffe082" stroke="#e65100" stroke-width="1.6" points="847.56,-273.04 847.56,-304.16 753.11,-326.16 619.55,-326.16 525.1,-304.16 525.1,-273.04 619.55,-251.03 753.11,-251.03 847.56,-273.04"/>
<text xml:space="preserve" text-anchor="middle" x="686.33" y="-299.55" font-family="Helvetica,sans-Serif" font-size="9.00">FAIL&#45;CLOSED</text>
<text xml:space="preserve" text-anchor="middle" x="686.33" y="-289.8" font-family="Helvetica,sans-Serif" font-size="9.00">truncation/timeout/crash &#45;&gt; SUSPICIOUS;</text>
<text xml:space="preserve" text-anchor="middle" x="686.33" y="-280.05" font-family="Helvetica,sans-Serif" font-size="9.00">escape / anti&#45;analysis indicator &#45;&gt; MALICIOUS;</text>
<text xml:space="preserve" text-anchor="middle" x="686.33" y="-270.3" font-family="Helvetica,sans-Serif" font-size="9.00">benign in&#45;guest self&#45;report never lowers</text>
</g>
<!-- DETON&#45;&gt;FC3 -->
<g id="edge16" class="edge">
<title>DETON&#45;&gt;FC3</title>
<path fill="none" stroke="#e65100" stroke-width="1.2" stroke-dasharray="1,5" d="M268.2,-307.2C298.46,-323.18 345.13,-345 388.83,-353.91 463.18,-369.07 547.66,-346.71 607.54,-324.14"/>
</g>
<!-- VERDICT -->
<g id="node10" class="node">
<title>VERDICT</title>
<path fill="#c8e6c9" stroke="#2e7d32" stroke-width="1.3" d="M410.53,-116.83C410.53,-116.83 232.12,-116.83 232.12,-116.83 226.12,-116.83 220.12,-110.83 220.12,-104.83 220.12,-104.83 220.12,-92.83 220.12,-92.83 220.12,-86.83 226.12,-80.83 232.12,-80.83 232.12,-80.83 410.53,-80.83 410.53,-80.83 416.53,-80.83 422.53,-86.83 422.53,-92.83 422.53,-92.83 422.53,-104.83 422.53,-104.83 422.53,-110.83 416.53,-116.83 410.53,-116.83"/>
<text xml:space="preserve" text-anchor="middle" x="321.33" y="-100.58" font-family="Helvetica,sans-Serif" font-size="10.00">(9) Deterministic explainable verdict</text>
<text xml:space="preserve" text-anchor="middle" x="321.33" y="-89.33" font-family="Helvetica,sans-Serif" font-size="10.00">every point &#45;&gt; finding + engine + ATT&amp;CK</text>
</g>
<!-- AGG&#45;&gt;VERDICT -->
<g id="edge10" class="edge">
<title>AGG&#45;&gt;VERDICT</title>
<path fill="none" stroke="#37474f" stroke-width="1.2" d="M321.33,-161.53C321.33,-151.65 321.33,-139.75 321.33,-129.06"/>
<polygon fill="#37474f" stroke="#37474f" stroke-width="1.2" points="324.83,-129.06 321.33,-119.06 317.83,-129.06 324.83,-129.06"/>
</g>
<!-- FC4 -->
<g id="node17" class="node">
<title>FC4</title>
<polygon fill="#ffe082" stroke="#e65100" stroke-width="1.6" points="797.58,-171.46 797.58,-196.4 700.78,-214.03 563.88,-214.03 467.08,-196.4 467.08,-171.46 563.88,-153.83 700.78,-153.83 797.58,-171.46"/>
<text xml:space="preserve" text-anchor="middle" x="632.33" y="-190.01" font-family="Helvetica,sans-Serif" font-size="9.00">INVARIANT: benign never masks malicious;</text>
<text xml:space="preserve" text-anchor="middle" x="632.33" y="-180.26" font-family="Helvetica,sans-Serif" font-size="9.00">padding can&#39;t dilute; SUSPICIOUS&#45;by&#45;truncation</text>
<text xml:space="preserve" text-anchor="middle" x="632.33" y="-170.51" font-family="Helvetica,sans-Serif" font-size="9.00">is blocking&#45;severity (diagram 06)</text>
</g>
<!-- AGG&#45;&gt;FC4 -->
<g id="edge17" class="edge">
<title>AGG&#45;&gt;FC4</title>
<path fill="none" stroke="#e65100" stroke-width="1.2" stroke-dasharray="1,5" d="M417.91,-183.93C434.1,-183.93 450.3,-183.93 466.49,-183.93"/>
</g>
<!-- PRESENT -->
<g id="node11" class="node">
<title>PRESENT</title>
<path fill="#c8e6c9" stroke="#2e7d32" stroke-width="1.3" d="M216.66,-39.91C216.66,-39.91 12,-39.91 12,-39.91 6,-39.91 0,-33.91 0,-27.91 0,-27.91 0,-15.91 0,-15.91 0,-9.91 6,-3.91 12,-3.91 12,-3.91 216.66,-3.91 216.66,-3.91 222.66,-3.91 228.66,-9.91 228.66,-15.91 228.66,-15.91 228.66,-27.92 228.66,-27.92 228.66,-33.91 222.66,-39.91 216.66,-39.91"/>
<text xml:space="preserve" text-anchor="middle" x="114.33" y="-23.66" font-family="Helvetica,sans-Serif" font-size="10.00">(10) Present &amp; collaborate (mediated, defanged)</text>
<text xml:space="preserve" text-anchor="middle" x="114.33" y="-12.41" font-family="Helvetica,sans-Serif" font-size="10.00">, (11) Export STIX/PDF/YARA/MISP &#45; defanged</text>
</g>
<!-- VERDICT&#45;&gt;PRESENT -->
<g id="edge11" class="edge">
<title>VERDICT&#45;&gt;PRESENT</title>
<path fill="none" stroke="#37474f" stroke-width="1.2" d="M272.8,-80.27C243.19,-69.55 205.12,-55.77 173.72,-44.41"/>
<polygon fill="#37474f" stroke="#37474f" stroke-width="1.2" points="175.22,-41.23 164.62,-41.12 172.84,-47.81 175.22,-41.23"/>
</g>
<!-- HUNT -->
<g id="node12" class="node">
<title>HUNT</title>
<path fill="#e8f5e9" stroke="#2e7d32" stroke-width="1.3" stroke-dasharray="5,2" d="M377.16,-39.91C377.16,-39.91 265.5,-39.91 265.5,-39.91 259.5,-39.91 253.5,-33.91 253.5,-27.91 253.5,-27.91 253.5,-15.91 253.5,-15.91 253.5,-9.91 259.5,-3.91 265.5,-3.91 265.5,-3.91 377.16,-3.91 377.16,-3.91 383.16,-3.91 389.16,-9.91 389.16,-15.91 389.16,-15.91 389.16,-27.92 389.16,-27.92 389.16,-33.91 383.16,-39.91 377.16,-39.91"/>
<text xml:space="preserve" text-anchor="middle" x="321.33" y="-23.66" font-family="Helvetica,sans-Serif" font-size="10.00">Enrich &amp; hunt (P2)</text>
<text xml:space="preserve" text-anchor="middle" x="321.33" y="-12.41" font-family="Helvetica,sans-Serif" font-size="10.00">TI, MCRIT, livehunt, graph</text>
</g>
<!-- VERDICT&#45;&gt;HUNT -->
<g id="edge12" class="edge">
<title>VERDICT&#45;&gt;HUNT</title>
<path fill="none" stroke="#9e9e9e" stroke-width="1.2" stroke-dasharray="5,2" d="M321.33,-80.45C321.33,-72.01 321.33,-61.62 321.33,-52.01"/>
<polygon fill="#9e9e9e" stroke="#9e9e9e" stroke-width="1.2" points="324.83,-52.27 321.33,-42.27 317.83,-52.27 324.83,-52.27"/>
</g>
<!-- AI -->
<g id="node13" class="node">
<title>AI</title>
<path fill="#e0f2f1" stroke="#00695c" stroke-width="1.3" stroke-dasharray="5,2" d="M602.03,-43.83C602.03,-43.83 426.62,-43.83 426.62,-43.83 420.62,-43.83 414.62,-37.83 414.62,-31.83 414.62,-31.83 414.62,-12 414.62,-12 414.62,-6 420.62,0 426.62,0 426.62,0 602.03,0 602.03,0 608.03,0 614.03,-6 614.03,-12 614.03,-12 614.03,-31.83 614.03,-31.83 614.03,-37.83 608.03,-43.83 602.03,-43.83"/>
<text xml:space="preserve" text-anchor="middle" x="514.33" y="-29.29" font-family="Helvetica,sans-Serif" font-size="10.00">AI assist (P2)</text>
<text xml:space="preserve" text-anchor="middle" x="514.33" y="-18.04" font-family="Helvetica,sans-Serif" font-size="10.00">quarantined, per&#45;case, entailment&#45;verified</text>
<text xml:space="preserve" text-anchor="middle" x="514.33" y="-6.79" font-family="Helvetica,sans-Serif" font-size="10.00">advisory, never a verdict field</text>
</g>
<!-- VERDICT&#45;&gt;AI -->
<g id="edge13" class="edge">
<title>VERDICT&#45;&gt;AI</title>
<path fill="none" stroke="#9e9e9e" stroke-width="1.2" stroke-dasharray="5,2" d="M366.58,-80.27C390.87,-70.84 421.25,-59.04 448.14,-48.61"/>
<polygon fill="#9e9e9e" stroke="#9e9e9e" stroke-width="1.2" points="449.28,-51.92 457.34,-45.04 446.75,-45.39 449.28,-51.92"/>
</g>
</g>
</svg>
