<?xml version="1.0" encoding="UTF-8" standalone="no"?>
<!DOCTYPE svg PUBLIC "-//W3C//DTD SVG 1.1//EN"
 "http://www.w3.org/Graphics/SVG/1.1/DTD/svg11.dtd">
<!-- Generated by graphviz version 14.1.4 (20260321.0153)
 -->
<!-- Title: dag_aggregation Pages: 1 -->
<svg width="602pt" height="693pt"
 viewBox="0.00 0.00 602.00 693.00" xmlns="http://www.w3.org/2000/svg" xmlns:xlink="http://www.w3.org/1999/xlink">
<g id="graph0" class="graph" transform="scale(1 1) rotate(0) translate(28.8 663.88)">
<title>dag_aggregation</title>
<polygon fill="white" stroke="none" points="-28.8,28.8 -28.8,-663.88 573.55,-663.88 573.55,28.8 -28.8,28.8"/>
<text xml:space="preserve" text-anchor="start" x="124.25" y="-621.63" font-family="Helvetica,sans-Serif" font-weight="bold" font-size="11.00">MalAnalyzer &#45; Verdict Aggregation over the dedup&#39;d DAG</text>
<text xml:space="preserve" text-anchor="start" x="8" y="-611.58" font-family="Helvetica,sans-Serif" font-size="10.00">Monotone max over UNIQUE nodes + a separate diversity signal. There is no input that turns a malicious sample benign.</text>
<g id="clust1" class="cluster">
<title>cluster_diamond</title>
<path fill="white" stroke="#90a4ae" stroke-width="1.4" d="M38.38,-316.27C38.38,-316.27 506.38,-316.27 506.38,-316.27 512.38,-316.27 518.38,-322.27 518.38,-328.27 518.38,-328.27 518.38,-586.08 518.38,-586.08 518.38,-592.08 512.38,-598.08 506.38,-598.08 506.38,-598.08 38.38,-598.08 38.38,-598.08 32.38,-598.08 26.38,-592.08 26.38,-586.08 26.38,-586.08 26.38,-328.27 26.38,-328.27 26.38,-322.27 32.38,-316.27 38.38,-316.27"/>
<text xml:space="preserve" text-anchor="start" x="34.25" y="-584.63" font-family="Helvetica,sans-Serif" font-weight="bold" font-size="11.00">Worked diamond</text>
<text xml:space="preserve" text-anchor="start" x="123.5" y="-584.63" font-family="Helvetica,sans-Serif" font-size="11.00">: a ZIP with </text>
<text xml:space="preserve" text-anchor="start" x="181.25" y="-584.63" font-family="Helvetica,sans-Serif" font-style="italic" font-size="11.00">dropper.exe</text>
<text xml:space="preserve" text-anchor="start" x="238.25" y="-584.63" font-family="Helvetica,sans-Serif" font-size="11.00"> twice + one benign PDF + 10,000 benign padding PDFs</text>
</g>
<!-- ZIP -->
<g id="node1" class="node">
<title>ZIP</title>
<path fill="#ffcdd2" stroke="#c62828" stroke-width="2" d="M291.83,-570.08C291.83,-570.08 198.92,-570.08 198.92,-570.08 192.92,-570.08 186.92,-564.08 186.92,-558.08 186.92,-558.08 186.92,-536.81 186.92,-536.81 186.92,-530.81 192.92,-524.81 198.92,-524.81 198.92,-524.81 291.83,-524.81 291.83,-524.81 297.83,-524.81 303.83,-530.81 303.83,-536.81 303.83,-536.81 303.83,-558.08 303.83,-558.08 303.83,-564.08 297.83,-570.08 291.83,-570.08"/>
<text xml:space="preserve" text-anchor="middle" x="245.38" y="-554.82" font-family="Helvetica,sans-Serif" font-size="10.00">ZIP (root)</text>
<text xml:space="preserve" text-anchor="middle" x="245.38" y="-543.57" font-family="Helvetica,sans-Serif" font-size="10.00">own=UNKNOWN</text>
<text xml:space="preserve" text-anchor="middle" x="245.38" y="-532.32" font-family="Helvetica,sans-Serif" font-size="10.00">rollup =&gt; MALICIOUS</text>
</g>
<!-- eA -->
<g id="node2" class="node">
<title>eA</title>
<ellipse fill="#90a4ae" stroke="#90a4ae" stroke-width="1.4" cx="178.38" cy="-457.17" rx="2.16" ry="2.16"/>
</g>
<!-- ZIP&#45;&gt;eA -->
<g id="edge1" class="edge">
<title>ZIP&#45;&gt;eA</title>
<path fill="none" stroke="#37474f" stroke-width="1.2" d="M228.47,-524.17C210.79,-500.88 184.87,-466.73 179.41,-459.53"/>
</g>
<!-- eB -->
<g id="node3" class="node">
<title>eB</title>
<ellipse fill="#90a4ae" stroke="#90a4ae" stroke-width="1.4" cx="212.38" cy="-457.17" rx="2.16" ry="2.16"/>
</g>
<!-- ZIP&#45;&gt;eB -->
<g id="edge2" class="edge">
<title>ZIP&#45;&gt;eB</title>
<path fill="none" stroke="#37474f" stroke-width="1.2" d="M237.05,-524.17C228.49,-501.29 216.02,-467.92 213.03,-459.94"/>
</g>
<!-- PDF -->
<g id="node5" class="node">
<title>PDF</title>
<path fill="#c8e6c9" stroke="#2e7d32" stroke-width="1.4" d="M300.83,-475.17C300.83,-475.17 255.92,-475.17 255.92,-475.17 249.92,-475.17 243.92,-469.17 243.92,-463.17 243.92,-463.17 243.92,-451.17 243.92,-451.17 243.92,-445.17 249.92,-439.17 255.92,-439.17 255.92,-439.17 300.83,-439.17 300.83,-439.17 306.83,-439.17 312.83,-445.17 312.83,-451.17 312.83,-451.17 312.83,-463.17 312.83,-463.17 312.83,-469.17 306.83,-475.17 300.83,-475.17"/>
<text xml:space="preserve" text-anchor="middle" x="278.38" y="-458.92" font-family="Helvetica,sans-Serif" font-size="10.00">readme.pdf</text>
<text xml:space="preserve" text-anchor="middle" x="278.38" y="-447.67" font-family="Helvetica,sans-Serif" font-size="10.00">BENIGN</text>
</g>
<!-- ZIP&#45;&gt;PDF -->
<g id="edge5" class="edge">
<title>ZIP&#45;&gt;PDF</title>
<path fill="none" stroke="#37474f" stroke-width="1.2" d="M253.7,-524.17C257.96,-512.79 263.18,-498.82 267.72,-486.67"/>
<polygon fill="#37474f" stroke="#37474f" stroke-width="1.2" points="270.96,-488.01 271.18,-477.41 264.4,-485.56 270.96,-488.01"/>
</g>
<!-- PAD -->
<g id="node6" class="node">
<title>PAD</title>
<path fill="#c8e6c9" stroke="#2e7d32" stroke-width="1.4" d="M418.95,-479.81C418.95,-479.81 353.8,-479.81 353.8,-479.81 347.8,-479.81 341.8,-473.81 341.8,-467.81 341.8,-467.81 341.8,-446.54 341.8,-446.54 341.8,-440.54 347.8,-434.54 353.8,-434.54 353.8,-434.54 418.95,-434.54 418.95,-434.54 424.95,-434.54 430.95,-440.54 430.95,-446.54 430.95,-446.54 430.95,-467.81 430.95,-467.81 430.95,-473.81 424.95,-479.81 418.95,-479.81"/>
<text xml:space="preserve" text-anchor="middle" x="386.38" y="-464.55" font-family="Helvetica,sans-Serif" font-size="10.00">x 10,000 benign</text>
<text xml:space="preserve" text-anchor="middle" x="386.38" y="-453.3" font-family="Helvetica,sans-Serif" font-size="10.00">padding PDFs</text>
<text xml:space="preserve" text-anchor="middle" x="386.38" y="-442.05" font-family="Helvetica,sans-Serif" font-size="10.00">BENIGN</text>
</g>
<!-- ZIP&#45;&gt;PAD -->
<g id="edge6" class="edge">
<title>ZIP&#45;&gt;PAD</title>
<path fill="none" stroke="#37474f" stroke-width="1.2" d="M281.32,-523.94C299.52,-512.55 321.81,-498.59 341.17,-486.48"/>
<polygon fill="#37474f" stroke="#37474f" stroke-width="1.2" points="342.83,-489.57 349.44,-481.29 339.11,-483.63 342.83,-489.57"/>
</g>
<!-- DROP -->
<g id="node4" class="node">
<title>DROP</title>
<path fill="#ef9a9a" stroke="#b71c1c" stroke-width="2" d="M251.83,-380.79C251.83,-380.79 140.92,-380.79 140.92,-380.79 134.92,-380.79 128.92,-374.79 128.92,-368.79 128.92,-368.79 128.92,-336.27 128.92,-336.27 128.92,-330.27 134.92,-324.27 140.92,-324.27 140.92,-324.27 251.83,-324.27 251.83,-324.27 257.83,-324.27 263.83,-330.27 263.83,-336.27 263.83,-336.27 263.83,-368.79 263.83,-368.79 263.83,-374.79 257.83,-380.79 251.83,-380.79"/>
<text xml:space="preserve" text-anchor="middle" x="196.38" y="-365.53" font-family="Helvetica,sans-Serif" font-size="10.00">dropper.exe</text>
<text xml:space="preserve" text-anchor="middle" x="196.38" y="-354.28" font-family="Helvetica,sans-Serif" font-size="10.00">(same hash &#45;&gt; ONE node,</text>
<text xml:space="preserve" text-anchor="middle" x="196.38" y="-343.03" font-family="Helvetica,sans-Serif" font-size="10.00">two incoming edges)</text>
<text xml:space="preserve" text-anchor="middle" x="196.38" y="-331.78" font-family="Helvetica,sans-Serif" font-size="10.00">MALICIOUS</text>
</g>
<!-- eA&#45;&gt;DROP -->
<g id="edge3" class="edge">
<title>eA&#45;&gt;DROP</title>
<path fill="none" stroke="#37474f" stroke-width="1.2" d="M178.69,-454.39C179.99,-446.99 185.09,-417.9 189.48,-392.85"/>
<polygon fill="#37474f" stroke="#37474f" stroke-width="1.2" points="192.9,-393.59 191.18,-383.14 186.01,-392.38 192.9,-393.59"/>
</g>
<!-- eB&#45;&gt;DROP -->
<g id="edge4" class="edge">
<title>eB&#45;&gt;DROP</title>
<path fill="none" stroke="#37474f" stroke-width="1.2" d="M212.1,-454.39C210.94,-446.99 206.41,-417.9 202.5,-392.85"/>
<polygon fill="#37474f" stroke="#37474f" stroke-width="1.2" points="205.99,-392.49 200.99,-383.14 199.07,-393.56 205.99,-392.49"/>
<text xml:space="preserve" text-anchor="middle" x="219.58" y="-403.99" font-family="Helvetica,sans-Serif" font-size="9.00"> dedup</text>
</g>
<!-- RES -->
<g id="node7" class="node">
<title>RES</title>
<polygon fill="#ffebee" stroke="#c62828" stroke-width="1.4" points="314.83,-279.27 71.92,-279.27 71.92,-238.5 320.83,-238.5 320.83,-273.27 314.83,-279.27"/>
<polyline fill="none" stroke="#c62828" stroke-width="1.4" points="314.83,-279.27 314.83,-273.27"/>
<polyline fill="none" stroke="#c62828" stroke-width="1.4" points="320.83,-273.27 314.83,-273.27"/>
<text xml:space="preserve" text-anchor="middle" x="196.38" y="-264.49" font-family="Helvetica,sans-Serif" font-size="9.50">rollup: dropper counted ONCE (no 2x inflation);</text>
<text xml:space="preserve" text-anchor="middle" x="196.38" y="-254.73" font-family="Helvetica,sans-Serif" font-size="9.50">10,000 benign PDFs cannot dilute the max.</text>
<text xml:space="preserve" text-anchor="middle" x="196.38" y="-244.98" font-family="Helvetica,sans-Serif" font-size="9.50">node_verdict(ZIP) = MALICIOUS, &#160;diversity_signal = 1</text>
</g>
<!-- DROP&#45;&gt;RES -->
<g id="edge7" class="edge">
<title>DROP&#45;&gt;RES</title>
<path fill="none" stroke="#c62828" stroke-width="1.2" stroke-dasharray="1,5" d="M196.38,-323.29C196.38,-309.19 196.38,-292.48 196.38,-279.75"/>
</g>
<!-- RULES -->
<g id="node8" class="node">
<title>RULES</title>
<path fill="lightgrey" stroke="none" stroke-width="1.4" d="M347.75,-193.5C347.75,-193.5 45,-193.5 45,-193.5 39,-193.5 33,-187.5 33,-181.5 33,-181.5 33,-12 33,-12 33,-6 39,0 45,0 45,0 347.75,0 347.75,0 353.75,0 359.75,-6 359.75,-12 359.75,-12 359.75,-181.5 359.75,-181.5 359.75,-187.5 353.75,-193.5 347.75,-193.5"/>
<polygon fill="#37474f" stroke="none" points="34,-169.25 34,-192.5 358.75,-192.5 358.75,-169.25 34,-169.25"/>
<text xml:space="preserve" text-anchor="start" x="119.5" y="-178" font-family="Helvetica,sans-Serif" font-weight="bold" font-size="10.00" fill="white">Aggregation rules (deterministic)</text>
<text xml:space="preserve" text-anchor="start" x="40" y="-154.75" font-family="Helvetica,sans-Serif" font-weight="bold" font-size="10.00">node_verdict</text>
<text xml:space="preserve" text-anchor="start" x="100" y="-154.75" font-family="Helvetica,sans-Serif" font-size="10.00"> = max( own_local , max over each </text>
<text xml:space="preserve" text-anchor="start" x="256.75" y="-154.75" font-family="Helvetica,sans-Serif" font-weight="bold" font-size="10.00">UNIQUE</text>
<text xml:space="preserve" text-anchor="start" x="296.5" y="-154.75" font-family="Helvetica,sans-Serif" font-size="10.00"> child )</text>
<text xml:space="preserve" text-anchor="start" x="40" y="-131.5" font-family="Helvetica,sans-Serif" font-weight="bold" font-size="10.00">diversity_signal</text>
<text xml:space="preserve" text-anchor="start" x="113.5" y="-131.5" font-family="Helvetica,sans-Serif" font-size="10.00"> = count of DISTINCT malicious child hashes</text>
<text xml:space="preserve" text-anchor="start" x="58" y="-121.5" font-family="Helvetica,sans-Serif" font-size="10.00">(50 distinct droppers: diversity 50, surfaced to analyst)</text>
<text xml:space="preserve" text-anchor="start" x="40" y="-99.5" font-family="Helvetica,sans-Serif" font-weight="bold" font-size="10.00">flags</text>
<text xml:space="preserve" text-anchor="start" x="62.5" y="-99.5" font-family="Helvetica,sans-Serif" font-size="10.00"> += potential_evasion if </text>
<text xml:space="preserve" text-anchor="start" x="167.5" y="-99.5" font-family="Helvetica,sans-Serif" font-weight="bold" font-size="10.00">any</text>
<text xml:space="preserve" text-anchor="start" x="184" y="-99.5" font-family="Helvetica,sans-Serif" font-size="10.00"> branch truncated</text>
<text xml:space="preserve" text-anchor="start" x="40" y="-76.5" font-family="Helvetica,sans-Serif" font-size="10.00" fill="#2e7d32">BENIGN never lowers / masks MALICIOUS (monotone)</text>
<text xml:space="preserve" text-anchor="start" x="40" y="-53" font-family="Helvetica,sans-Serif" font-size="10.00" fill="#c62828">cap&#45;blow on a branch: that branch = SUSPICIOUS</text>
<text xml:space="preserve" text-anchor="start" x="40" y="-43" font-family="Helvetica,sans-Serif" font-size="10.00" fill="#c62828">+ analysis_incomplete = </text>
<text xml:space="preserve" text-anchor="start" x="149.5" y="-43" font-family="Helvetica,sans-Serif" font-weight="bold" font-size="10.00" fill="#c62828">blocking&#45;severity</text>
<text xml:space="preserve" text-anchor="start" x="229" y="-43" font-family="Helvetica,sans-Serif" font-size="10.00" fill="#c62828"> (not &quot;allow pending review&quot;)</text>
<text xml:space="preserve" text-anchor="start" x="40" y="-21.25" font-family="Helvetica,sans-Serif" font-size="10.00" fill="#c62828">detonation escape / anti&#45;analysis indicator: MALICIOUS;</text>
<text xml:space="preserve" text-anchor="start" x="53.88" y="-10" font-family="Helvetica,sans-Serif" font-size="10.00" fill="#c62828">a benign in&#45;guest self&#45;report never lowers a verdict</text>
<polygon fill="none" stroke="#37474f" points="33,0 33,-193.5 359.75,-193.5 359.75,0 33,0"/>
</g>
<!-- RES&#45;&gt;RULES -->
</g>
</svg>
