<?xml version="1.0" encoding="UTF-8" standalone="no"?>
<!DOCTYPE svg PUBLIC "-//W3C//DTD SVG 1.1//EN"
 "http://www.w3.org/Graphics/SVG/1.1/DTD/svg11.dtd">
<!-- Generated by graphviz version 14.1.4 (20260321.0153)
 -->
<!-- Title: ai_quarantine Pages: 1 -->
<svg width="1556pt" height="489pt"
 viewBox="0.00 0.00 1556.00 489.00" xmlns="http://www.w3.org/2000/svg" xmlns:xlink="http://www.w3.org/1999/xlink">
<g id="graph0" class="graph" transform="scale(1 1) rotate(0) translate(28.8 460.44)">
<title>ai_quarantine</title>
<polygon fill="white" stroke="none" points="-28.8,28.8 -28.8,-460.44 1527.65,-460.44 1527.65,28.8 -28.8,28.8"/>
<text xml:space="preserve" text-anchor="start" x="600.92" y="-418.19" font-family="Helvetica,sans-Serif" font-weight="bold" font-size="11.00">MalAnalyzer &#45; AI Quarantine (dual&#45;LLM / CaMeL), Phase&#45;2</text>
<text xml:space="preserve" text-anchor="start" x="432.17" y="-408.13" font-family="Helvetica,sans-Serif" font-size="10.00">Quarantine caps blast radius; it does not make the planner uninfluenced. The planner&#39;s authority is the control. AI is advisory, never a verdict field.</text>
<g id="clust1" class="cluster">
<title>cluster_q</title>
<path fill="#e0f2f1" stroke="#00695c" stroke-width="2" d="M234.72,-224.63C234.72,-224.63 396.97,-224.63 396.97,-224.63 402.97,-224.63 408.97,-230.63 408.97,-236.63 408.97,-236.63 408.97,-294.63 408.97,-294.63 408.97,-300.63 402.97,-306.63 396.97,-306.63 396.97,-306.63 234.72,-306.63 234.72,-306.63 228.72,-306.63 222.72,-300.63 222.72,-294.63 222.72,-294.63 222.72,-236.63 222.72,-236.63 222.72,-230.63 228.72,-224.63 234.72,-224.63"/>
<text xml:space="preserve" text-anchor="start" x="230.72" y="-293.19" font-family="Helvetica,sans-Serif" font-weight="bold" font-size="11.00" fill="#00695c">QUARANTINED model</text>
<text xml:space="preserve" text-anchor="start" x="349.22" y="-293.19" font-family="Helvetica,sans-Serif" font-size="11.00" fill="#00695c"> &#45; NO tools</text>
</g>
<g id="clust2" class="cluster">
<title>cluster_p</title>
<path fill="#e3f2fd" stroke="#1565c0" stroke-width="2" d="M556.97,-221.63C556.97,-221.63 957.16,-221.63 957.16,-221.63 963.16,-221.63 969.16,-227.63 969.16,-233.63 969.16,-233.63 969.16,-382.63 969.16,-382.63 969.16,-388.63 963.16,-394.63 957.16,-394.63 957.16,-394.63 556.97,-394.63 556.97,-394.63 550.97,-394.63 544.97,-388.63 544.97,-382.63 544.97,-382.63 544.97,-233.63 544.97,-233.63 544.97,-227.63 550.97,-221.63 556.97,-221.63"/>
<text xml:space="preserve" text-anchor="start" x="617.56" y="-381.19" font-family="Helvetica,sans-Serif" font-weight="bold" font-size="11.00" fill="#0d47a1">PRIVILEGED planner</text>
<text xml:space="preserve" text-anchor="start" x="727.81" y="-381.19" font-family="Helvetica,sans-Serif" font-size="11.00" fill="#0d47a1"> &#45; tool&#45;calling, never sees raw bytes</text>
</g>
<g id="clust3" class="cluster">
<title>cluster_tools</title>
<path fill="#e8f5e9" stroke="#2e7d32" stroke-width="1.2" d="M867.19,-229.63C867.19,-229.63 949.16,-229.63 949.16,-229.63 955.16,-229.63 961.16,-235.63 961.16,-241.63 961.16,-241.63 961.16,-354.63 961.16,-354.63 961.16,-360.63 955.16,-366.63 949.16,-366.63 949.16,-366.63 867.19,-366.63 867.19,-366.63 861.19,-366.63 855.19,-360.63 855.19,-354.63 855.19,-354.63 855.19,-241.63 855.19,-241.63 855.19,-235.63 861.19,-229.63 867.19,-229.63"/>
<text xml:space="preserve" text-anchor="middle" x="908.17" y="-352.19" font-family="Helvetica,sans-Serif" font-size="11.00" fill="#1b5e20">tools available</text>
</g>
<!-- HOSTILE -->
<g id="node1" class="node">
<title>HOSTILE</title>
<path fill="#ffcdd2" stroke="#c62828" stroke-width="1.4" d="M143.22,-278.27C143.22,-278.27 12,-278.27 12,-278.27 6,-278.27 0,-272.27 0,-266.27 0,-266.27 0,-245 0,-245 0,-239 6,-233 12,-233 12,-233 143.22,-233 143.22,-233 149.22,-233 155.22,-239 155.22,-245 155.22,-245 155.22,-266.27 155.22,-266.27 155.22,-272.27 149.22,-278.27 143.22,-278.27"/>
<text xml:space="preserve" text-anchor="middle" x="77.61" y="-263.01" font-family="Helvetica,sans-Serif" font-size="10.00">Sample&#45;derived content</text>
<text xml:space="preserve" text-anchor="middle" x="77.61" y="-251.76" font-family="Helvetica,sans-Serif" font-size="10.00">strings, decompiled text, config</text>
<text xml:space="preserve" text-anchor="middle" x="77.61" y="-240.51" font-family="Helvetica,sans-Serif" font-size="10.00">(HOSTILE input to the model)</text>
</g>
<!-- QMODEL -->
<g id="node2" class="node">
<title>QMODEL</title>
<path fill="#b2dfdb" stroke="#00695c" stroke-width="1.4" d="M387.7,-278.27C387.7,-278.27 242.98,-278.27 242.98,-278.27 236.98,-278.27 230.98,-272.27 230.98,-266.27 230.98,-266.27 230.98,-245 230.98,-245 230.98,-239 236.98,-233 242.98,-233 242.98,-233 387.7,-233 387.7,-233 393.7,-233 399.7,-239 399.7,-245 399.7,-245 399.7,-266.27 399.7,-266.27 399.7,-272.27 393.7,-278.27 387.7,-278.27"/>
<text xml:space="preserve" text-anchor="middle" x="315.34" y="-263.01" font-family="Helvetica,sans-Serif" font-size="10.00">reads hostile content</text>
<text xml:space="preserve" text-anchor="middle" x="315.34" y="-251.76" font-family="Helvetica,sans-Serif" font-size="10.00">returns ONLY schema&#45;constrained</text>
<text xml:space="preserve" text-anchor="middle" x="315.34" y="-240.51" font-family="Helvetica,sans-Serif" font-size="10.00">extractions (typed fields)</text>
</g>
<!-- HOSTILE&#45;&gt;QMODEL -->
<g id="edge3" class="edge">
<title>HOSTILE&#45;&gt;QMODEL</title>
<path fill="none" stroke="#37474f" stroke-width="1.2" d="M155.8,-255.63C175.97,-255.63 197.94,-255.63 218.93,-255.63"/>
<polygon fill="#37474f" stroke="#37474f" stroke-width="1.2" points="210.9,-259.14 220.9,-255.64 210.9,-252.14 210.9,-259.14"/>
<text xml:space="preserve" text-anchor="middle" x="192.97" y="-256.83" font-family="Helvetica,sans-Serif" font-size="9.00"> reads</text>
</g>
<!-- PLAN -->
<g id="node3" class="node">
<title>PLAN</title>
<path fill="#bbdefb" stroke="#1565c0" stroke-width="1.4" d="M698.44,-278.27C698.44,-278.27 564.97,-278.27 564.97,-278.27 558.97,-278.27 552.97,-272.27 552.97,-266.27 552.97,-266.27 552.97,-245 552.97,-245 552.97,-239 558.97,-233 564.97,-233 564.97,-233 698.44,-233 698.44,-233 704.44,-233 710.44,-239 710.44,-245 710.44,-245 710.44,-266.27 710.44,-266.27 710.44,-272.27 704.44,-278.27 698.44,-278.27"/>
<text xml:space="preserve" text-anchor="middle" x="631.7" y="-263.01" font-family="Helvetica,sans-Serif" font-size="10.00">plans multi&#45;step investigation</text>
<text xml:space="preserve" text-anchor="middle" x="631.7" y="-251.76" font-family="Helvetica,sans-Serif" font-size="10.00">over a PER&#45;CASE tool set</text>
<text xml:space="preserve" text-anchor="middle" x="631.7" y="-240.51" font-family="Helvetica,sans-Serif" font-size="10.00">(capability subset of a human&#39;s)</text>
</g>
<!-- QMODEL&#45;&gt;PLAN -->
<g id="edge4" class="edge">
<title>QMODEL&#45;&gt;PLAN</title>
<path fill="none" stroke="#c62828" stroke-width="1.6" d="M408.97,-255.63C450.42,-255.63 499.12,-255.63 540.3,-255.63"/>
<polygon fill="#c62828" stroke="#c62828" stroke-width="1.6" points="532.55,-259.14 542.55,-255.64 532.55,-252.14 532.55,-259.14"/>
<text xml:space="preserve" text-anchor="middle" x="476.97" y="-266.58" font-family="Helvetica,sans-Serif" font-size="9.00" fill="#b71c1c"> schema values</text>
<text xml:space="preserve" text-anchor="middle" x="476.97" y="-256.83" font-family="Helvetica,sans-Serif" font-size="9.00" fill="#b71c1c"> (attacker&#45;INFLUENCED)</text>
</g>
<!-- T1 -->
<g id="node4" class="node">
<title>T1</title>
<path fill="#c8e6c9" stroke="#2e7d32" stroke-width="1.4" d="M935.16,-273.63C935.16,-273.63 881.19,-273.63 881.19,-273.63 875.19,-273.63 869.19,-267.63 869.19,-261.63 869.19,-261.63 869.19,-249.63 869.19,-249.63 869.19,-243.63 875.19,-237.63 881.19,-237.63 881.19,-237.63 935.16,-237.63 935.16,-237.63 941.16,-237.63 947.16,-243.63 947.16,-249.63 947.16,-249.63 947.16,-261.63 947.16,-261.63 947.16,-267.63 941.16,-273.63 935.16,-273.63"/>
<text xml:space="preserve" text-anchor="middle" x="908.17" y="-251.96" font-family="Helvetica,sans-Serif" font-size="9.00">this&#45;artifact RE</text>
</g>
<!-- PLAN&#45;&gt;T1 -->
<!-- T2 -->
<g id="node5" class="node">
<title>T2</title>
<path fill="#c8e6c9" stroke="#2e7d32" stroke-width="1.4" d="M941.16,-338.63C941.16,-338.63 875.19,-338.63 875.19,-338.63 869.19,-338.63 863.19,-332.63 863.19,-326.63 863.19,-326.63 863.19,-314.63 863.19,-314.63 863.19,-308.63 869.19,-302.63 875.19,-302.63 875.19,-302.63 941.16,-302.63 941.16,-302.63 947.16,-302.63 953.16,-308.63 953.16,-314.63 953.16,-314.63 953.16,-326.63 953.16,-326.63 953.16,-332.63 947.16,-338.63 941.16,-338.63"/>
<text xml:space="preserve" text-anchor="middle" x="908.17" y="-316.96" font-family="Helvetica,sans-Serif" font-size="9.00">per&#45;case retrieval</text>
</g>
<!-- PLAN&#45;&gt;T2 -->
<!-- ABSENT -->
<g id="node6" class="node">
<title>ABSENT</title>
<path fill="#ffebee" stroke="#c62828" stroke-width="1.4" stroke-dasharray="5,2" d="M991.41,-208.77C991.41,-208.77 824.94,-208.77 824.94,-208.77 818.94,-208.77 812.94,-202.77 812.94,-196.77 812.94,-196.77 812.94,-160.5 812.94,-160.5 812.94,-154.5 818.94,-148.5 824.94,-148.5 824.94,-148.5 991.41,-148.5 991.41,-148.5 997.41,-148.5 1003.41,-154.5 1003.41,-160.5 1003.41,-160.5 1003.41,-196.77 1003.41,-196.77 1003.41,-202.77 997.41,-208.77 991.41,-208.77"/>
<text xml:space="preserve" text-anchor="middle" x="908.17" y="-194.46" font-family="Helvetica,sans-Serif" font-size="9.00" fill="#b71c1c">TOOLS DELIBERATELY ABSENT (barred)</text>
<text xml:space="preserve" text-anchor="middle" x="908.17" y="-184.71" font-family="Helvetica,sans-Serif" font-size="9.00" fill="#b71c1c">x cross&#45;case &#160;&#160;x cross&#45;tenant</text>
<text xml:space="preserve" text-anchor="middle" x="908.17" y="-174.96" font-family="Helvetica,sans-Serif" font-size="9.00" fill="#b71c1c">x global retrohunt/query</text>
<text xml:space="preserve" text-anchor="middle" x="908.17" y="-165.21" font-family="Helvetica,sans-Serif" font-size="9.00" fill="#b71c1c">x external comms / egress</text>
<text xml:space="preserve" text-anchor="middle" x="908.17" y="-155.46" font-family="Helvetica,sans-Serif" font-size="9.00" fill="#b71c1c">(human&#45;initiated only)</text>
</g>
<!-- PLAN&#45;&gt;ABSENT -->
<g id="edge8" class="edge">
<title>PLAN&#45;&gt;ABSENT</title>
<path fill="none" stroke="#c62828" stroke-width="2" stroke-dasharray="5,2" d="M715.48,-232.41C744.69,-224.22 777.83,-214.92 808.25,-206.39"/>
<polygon fill="#c62828" stroke="#c62828" stroke-width="2" points="713.3,-238.22 710.6,-228.59 712.53,-228.05 715.23,-237.68 713.3,-238.22"/>
<polyline fill="none" stroke="#c62828" stroke-width="2" points="710.99,-233.67 715.8,-232.32"/>
<polygon fill="#c62828" stroke="#c62828" stroke-width="2" points="810.4,-200.59 813.1,-210.22 811.17,-210.76 808.47,-201.13 810.4,-200.59"/>
<polyline fill="none" stroke="#c62828" stroke-width="2" points="812.71,-205.14 807.9,-206.49"/>
<text xml:space="preserve" text-anchor="middle" x="759.81" y="-227.5" font-family="Helvetica,sans-Serif" font-size="9.00" fill="#b71c1c"> no access</text>
</g>
<!-- ENTAIL -->
<g id="node7" class="node">
<title>ENTAIL</title>
<path fill="#fff3e0" stroke="#e65100" stroke-width="1.4" d="M995.16,-119.27C995.16,-119.27 821.19,-119.27 821.19,-119.27 815.19,-119.27 809.19,-113.27 809.19,-107.27 809.19,-107.27 809.19,-86 809.19,-86 809.19,-80 815.19,-74 821.19,-74 821.19,-74 995.16,-74 995.16,-74 1001.16,-74 1007.16,-80 1007.16,-86 1007.16,-86 1007.16,-107.27 1007.16,-107.27 1007.16,-113.27 1001.16,-119.27 995.16,-119.27"/>
<text xml:space="preserve" text-anchor="middle" x="908.17" y="-104.01" font-family="Helvetica,sans-Serif" font-size="10.00">Entailment verifier</text>
<text xml:space="preserve" text-anchor="middle" x="908.17" y="-92.76" font-family="Helvetica,sans-Serif" font-size="10.00">structured claim &#45;&gt; cited evidence</text>
<text xml:space="preserve" text-anchor="middle" x="908.17" y="-81.51" font-family="Helvetica,sans-Serif" font-size="10.00">reject uncited AND cited&#45;but&#45;unsupported</text>
</g>
<!-- PLAN&#45;&gt;ENTAIL -->
<g id="edge5" class="edge">
<title>PLAN&#45;&gt;ENTAIL</title>
<path fill="none" stroke="#37474f" stroke-width="1.2" d="M675.47,-221.64C710.1,-195.23 760.89,-158.96 809.19,-133.63 815.37,-130.39 821.9,-127.29 828.54,-124.36"/>
<polygon fill="#37474f" stroke="#37474f" stroke-width="1.2" points="829.52,-127.75 837.35,-120.61 826.78,-121.31 829.52,-127.75"/>
<text xml:space="preserve" text-anchor="middle" x="759.81" y="-177.46" font-family="Helvetica,sans-Serif" font-size="9.00"> draft claims</text>
</g>
<!-- CLOUD -->
<g id="node11" class="node">
<title>CLOUD</title>
<path fill="#eceff1" stroke="#546e7a" stroke-width="1.4" stroke-dasharray="5,2" d="M142.84,-203.89C142.84,-203.89 12.37,-203.89 12.37,-203.89 6.37,-203.89 0.37,-197.89 0.37,-191.89 0.37,-191.89 0.37,-159.38 0.37,-159.38 0.37,-153.38 6.37,-147.38 12.37,-147.38 12.37,-147.38 142.84,-147.38 142.84,-147.38 148.84,-147.38 154.84,-153.38 154.84,-159.38 154.84,-159.38 154.84,-191.89 154.84,-191.89 154.84,-197.89 148.84,-203.89 142.84,-203.89"/>
<text xml:space="preserve" text-anchor="middle" x="77.61" y="-188.63" font-family="Helvetica,sans-Serif" font-size="10.00">Cloud escalation</text>
<text xml:space="preserve" text-anchor="middle" x="77.61" y="-177.38" font-family="Helvetica,sans-Serif" font-size="10.00">HUMAN out&#45;of&#45;band, structural</text>
<text xml:space="preserve" text-anchor="middle" x="77.61" y="-166.13" font-family="Helvetica,sans-Serif" font-size="10.00">derivatives only, two&#45;person</text>
<text xml:space="preserve" text-anchor="middle" x="77.61" y="-154.88" font-family="Helvetica,sans-Serif" font-size="10.00">(impossible in air&#45;gap mode)</text>
</g>
<!-- PLAN&#45;&gt;CLOUD -->
<g id="edge10" class="edge">
<title>PLAN&#45;&gt;CLOUD</title>
<path fill="none" stroke="#9e9e9e" stroke-width="1.2" stroke-dasharray="5,2" d="M552.35,-236.46C510.1,-226.71 456.92,-215.36 408.97,-207.88 327.46,-195.17 233.81,-186.59 167.08,-181.5"/>
<polygon fill="#9e9e9e" stroke="#9e9e9e" stroke-width="1.2" points="167.4,-178.01 157.17,-180.76 166.88,-184.99 167.4,-178.01"/>
<text xml:space="preserve" text-anchor="middle" x="315.34" y="-209.08" font-family="Helvetica,sans-Serif" font-size="9.00"> only via human</text>
</g>
<!-- INERT -->
<g id="node8" class="node">
<title>INERT</title>
<path fill="#ede7f6" stroke="#6a1b9a" stroke-width="1.4" d="M1203.63,-119.27C1203.63,-119.27 1070.16,-119.27 1070.16,-119.27 1064.16,-119.27 1058.16,-113.27 1058.16,-107.27 1058.16,-107.27 1058.16,-86 1058.16,-86 1058.16,-80 1064.16,-74 1070.16,-74 1070.16,-74 1203.63,-74 1203.63,-74 1209.63,-74 1215.63,-80 1215.63,-86 1215.63,-86 1215.63,-107.27 1215.63,-107.27 1215.63,-113.27 1209.63,-119.27 1203.63,-119.27"/>
<text xml:space="preserve" text-anchor="middle" x="1136.89" y="-104.01" font-family="Helvetica,sans-Serif" font-size="10.00">Inert&#45;render / defang</text>
<text xml:space="preserve" text-anchor="middle" x="1136.89" y="-92.76" font-family="Helvetica,sans-Serif" font-size="10.00">(AI output is attacker&#45;influenced</text>
<text xml:space="preserve" text-anchor="middle" x="1136.89" y="-81.51" font-family="Helvetica,sans-Serif" font-size="10.00">content &#45; no live links)</text>
</g>
<!-- ENTAIL&#45;&gt;INERT -->
<g id="edge6" class="edge">
<title>ENTAIL&#45;&gt;INERT</title>
<path fill="none" stroke="#37474f" stroke-width="1.2" d="M1007.63,-96.63C1020.44,-96.63 1033.51,-96.63 1046.16,-96.63"/>
<polygon fill="#37474f" stroke="#37474f" stroke-width="1.2" points="1045.83,-100.14 1055.83,-96.64 1045.83,-93.14 1045.83,-100.14"/>
</g>
<!-- ANALYST -->
<g id="node9" class="node">
<title>ANALYST</title>
<path fill="#e1bee7" stroke="#6a1b9a" stroke-width="1.4" d="M1486.85,-60.27C1486.85,-60.27 1374.38,-60.27 1374.38,-60.27 1368.38,-60.27 1362.38,-54.27 1362.38,-48.27 1362.38,-48.27 1362.38,-27 1362.38,-27 1362.38,-21 1368.38,-15 1374.38,-15 1374.38,-15 1486.85,-15 1486.85,-15 1492.85,-15 1498.85,-21 1498.85,-27 1498.85,-27 1498.85,-48.27 1498.85,-48.27 1498.85,-54.27 1492.85,-60.27 1486.85,-60.27"/>
<text xml:space="preserve" text-anchor="middle" x="1430.62" y="-45.01" font-family="Helvetica,sans-Serif" font-size="10.00">Analyst</text>
<text xml:space="preserve" text-anchor="middle" x="1430.62" y="-33.76" font-family="Helvetica,sans-Serif" font-size="10.00">AI shown beside evidence,</text>
<text xml:space="preserve" text-anchor="middle" x="1430.62" y="-22.51" font-family="Helvetica,sans-Serif" font-size="10.00">labeled advisory</text>
</g>
<!-- INERT&#45;&gt;ANALYST -->
<g id="edge7" class="edge">
<title>INERT&#45;&gt;ANALYST</title>
<path fill="none" stroke="#37474f" stroke-width="1.2" d="M1216.07,-80.82C1257.72,-72.4 1308.84,-62.06 1350.61,-53.61"/>
<polygon fill="#37474f" stroke="#37474f" stroke-width="1.2" points="1351.25,-57.06 1360.35,-51.64 1349.86,-50.2 1351.25,-57.06"/>
</g>
<!-- VERDICT -->
<g id="node10" class="node">
<title>VERDICT</title>
<path fill="#c8e6c9" stroke="#2e7d32" stroke-width="2" d="M1201.38,-45.27C1201.38,-45.27 1072.41,-45.27 1072.41,-45.27 1066.41,-45.27 1060.41,-39.27 1060.41,-33.27 1060.41,-33.27 1060.41,-12 1060.41,-12 1060.41,-6 1066.41,0 1072.41,0 1072.41,0 1201.38,0 1201.38,0 1207.38,0 1213.38,-6 1213.38,-12 1213.38,-12 1213.38,-33.27 1213.38,-33.27 1213.38,-39.27 1207.38,-45.27 1201.38,-45.27"/>
<text xml:space="preserve" text-anchor="middle" x="1136.89" y="-30.01" font-family="Helvetica,sans-Serif" font-size="10.00">Deterministic verdict</text>
<text xml:space="preserve" text-anchor="middle" x="1136.89" y="-18.76" font-family="Helvetica,sans-Serif" font-size="10.00">(engines only &#45; LLM is NEVER</text>
<text xml:space="preserve" text-anchor="middle" x="1136.89" y="-7.51" font-family="Helvetica,sans-Serif" font-size="10.00">a field in the scored record)</text>
</g>
<!-- VERDICT&#45;&gt;ANALYST -->
<g id="edge9" class="edge">
<title>VERDICT&#45;&gt;ANALYST</title>
<path fill="none" stroke="#2e7d32" stroke-width="1.2" stroke-dasharray="5,2" d="M1214.16,-26.56C1255.98,-28.71 1307.76,-31.37 1350.08,-33.55"/>
<polygon fill="#2e7d32" stroke="#2e7d32" stroke-width="1.2" points="1349.77,-37.03 1359.94,-34.05 1350.13,-30.04 1349.77,-37.03"/>
<text xml:space="preserve" text-anchor="middle" x="1289" y="-33.98" font-family="Helvetica,sans-Serif" font-size="9.00"> authoritative (separate)</text>
</g>
</g>
</svg>
