<?xml version="1.0" encoding="UTF-8" standalone="no"?>
<!DOCTYPE svg PUBLIC "-//W3C//DTD SVG 1.1//EN"
 "http://www.w3.org/Graphics/SVG/1.1/DTD/svg11.dtd">
<!-- Generated by graphviz version 14.1.4 (20260321.0153)
 -->
<!-- Title: deployment_tiers Pages: 1 -->
<svg width="939pt" height="553pt"
 viewBox="0.00 0.00 939.00 553.00" xmlns="http://www.w3.org/2000/svg" xmlns:xlink="http://www.w3.org/1999/xlink">
<g id="graph0" class="graph" transform="scale(1 1) rotate(0) translate(28.8 524.4)">
<title>deployment_tiers</title>
<polygon fill="white" stroke="none" points="-28.8,28.8 -28.8,-524.4 910.38,-524.4 910.38,28.8 -28.8,28.8"/>
<text xml:space="preserve" text-anchor="start" x="278.79" y="-482.15" font-family="Helvetica,sans-Serif" font-weight="bold" font-size="11.00">MalAnalyzer &#45; Deployment Tiers &amp; the Per&#45;Topology Dead&#45;End</text>
<text xml:space="preserve" text-anchor="start" x="134.04" y="-472.1" font-family="Helvetica,sans-Serif" font-size="10.00">Boundary (3) (the escape&#45;containment boundary) exists only when detonation is a physically separate node. All&#45;in&#45;one single&#45;node has no (3).</text>
<g id="clust1" class="cluster">
<title>cluster_solo</title>
<path fill="#fff5f5" stroke="#c62828" stroke-width="1.8" d="M23,-318.86C23,-318.86 741,-318.86 741,-318.86 747,-318.86 753,-324.86 753,-330.86 753,-330.86 753,-446.6 753,-446.6 753,-452.6 747,-458.6 741,-458.6 741,-458.6 23,-458.6 23,-458.6 17,-458.6 11,-452.6 11,-446.6 11,-446.6 11,-330.86 11,-330.86 11,-324.86 17,-318.86 23,-318.86"/>
<text xml:space="preserve" text-anchor="start" x="236.12" y="-445.15" font-family="Helvetica,sans-Serif" font-weight="bold" font-size="11.00" fill="#b71c1c">SOLO / all&#45;in&#45;one</text>
<text xml:space="preserve" text-anchor="start" x="324.62" y="-445.15" font-family="Helvetica,sans-Serif" font-size="11.00" fill="#b71c1c"> , &#160;compose/Podman, 32&#45;64 GB, dev / eval</text>
</g>
<g id="clust3" class="cluster">
<title>cluster_team</title>
<path fill="#f4fbf4" stroke="#2e7d32" stroke-width="1.8" d="M42,-205.57C42,-205.57 689,-205.57 689,-205.57 695,-205.57 701,-211.57 701,-217.57 701,-217.57 701,-298.86 701,-298.86 701,-304.86 695,-310.86 689,-310.86 689,-310.86 42,-310.86 42,-310.86 36,-310.86 30,-304.86 30,-298.86 30,-298.86 30,-217.57 30,-217.57 30,-211.57 36,-205.57 42,-205.57"/>
<text xml:space="preserve" text-anchor="start" x="237.62" y="-297.41" font-family="Helvetica,sans-Serif" font-weight="bold" font-size="11.00" fill="#1b5e20">TEAM / small air&#45;gap</text>
<text xml:space="preserve" text-anchor="start" x="345.62" y="-297.41" font-family="Helvetica,sans-Serif" font-size="11.00" fill="#1b5e20"> , &#160;K3s + 1+ bare&#45;metal + GPU</text>
</g>
<g id="clust5" class="cluster">
<title>cluster_ent</title>
<path fill="#f4fbf4" stroke="#2e7d32" stroke-width="1.8" d="M20,-92.27C20,-92.27 802,-92.27 802,-92.27 808,-92.27 814,-98.27 814,-104.27 814,-104.27 814,-185.57 814,-185.57 814,-191.57 808,-197.57 802,-197.57 802,-197.57 20,-197.57 20,-197.57 14,-197.57 8,-191.57 8,-185.57 8,-185.57 8,-104.27 8,-104.27 8,-98.27 14,-92.27 20,-92.27"/>
<text xml:space="preserve" text-anchor="start" x="249" y="-184.12" font-family="Helvetica,sans-Serif" font-weight="bold" font-size="11.00" fill="#1b5e20">ENTERPRISE</text>
<text xml:space="preserve" text-anchor="start" x="321" y="-184.12" font-family="Helvetica,sans-Serif" font-size="11.00" fill="#1b5e20"> , &#160;K8s (stateless) + out&#45;of&#45;band detonation controller</text>
</g>
<!-- SHOST -->
<g id="node1" class="node">
<title>SHOST</title>
<path fill="#ffe0e0" stroke="#c62828" stroke-width="1.4" d="M275.21,-401.37C275.21,-401.37 30.79,-401.37 30.79,-401.37 24.79,-401.37 18.79,-395.37 18.79,-389.37 18.79,-389.37 18.79,-368.1 18.79,-368.1 18.79,-362.1 24.79,-356.1 30.79,-356.1 30.79,-356.1 275.21,-356.1 275.21,-356.1 281.21,-356.1 287.21,-362.1 287.21,-368.1 287.21,-368.1 287.21,-389.37 287.21,-389.37 287.21,-395.37 281.21,-401.37 275.21,-401.37"/>
<text xml:space="preserve" text-anchor="middle" x="153" y="-386.11" font-family="Helvetica,sans-Serif" font-size="10.00">ONE host, ONE kernel</text>
<text xml:space="preserve" text-anchor="middle" x="153" y="-374.86" font-family="Helvetica,sans-Serif" font-size="10.00">control services + Tier&#45;1 EMULATION (same kernel)</text>
<text xml:space="preserve" text-anchor="middle" x="153" y="-363.61" font-family="Helvetica,sans-Serif" font-size="10.00">Ollama, extraction&#45;only AI, PG(+pgvector/AGE), PG&#45;FTS</text>
</g>
<!-- SB -->
<g id="node2" class="node">
<title>SB</title>
<path fill="#ffcdd2" stroke="#b71c1c" stroke-width="1.8" d="M569.07,-369.25C569.07,-369.25 569.07,-388.22 569.07,-388.22 569.07,-394.22 563.53,-402.51 557.98,-404.81 557.98,-404.81 506.89,-426 506.89,-426 501.35,-428.3 489.81,-430.6 483.81,-430.6 483.81,-430.6 404.19,-430.6 404.19,-430.6 398.19,-430.6 386.65,-428.3 381.11,-426 381.11,-426 330.02,-404.81 330.02,-404.81 324.47,-402.51 318.93,-394.22 318.93,-388.22 318.93,-388.22 318.93,-369.25 318.93,-369.25 318.93,-363.25 324.47,-354.95 330.02,-352.65 330.02,-352.65 381.11,-331.46 381.11,-331.46 386.65,-329.16 398.19,-326.86 404.19,-326.86 404.19,-326.86 483.81,-326.86 483.81,-326.86 489.81,-326.86 501.35,-329.16 506.89,-331.46 506.89,-331.46 557.98,-352.65 557.98,-352.65 563.53,-354.95 569.07,-363.25 569.07,-369.25"/>
<text xml:space="preserve" text-anchor="middle" x="444" y="-397.36" font-family="Helvetica,sans-Serif" font-size="10.00" fill="#b71c1c">boundary (3) ABSENT</text>
<text xml:space="preserve" text-anchor="middle" x="444" y="-386.11" font-family="Helvetica,sans-Serif" font-size="10.00" fill="#b71c1c">a guest escape lands on the</text>
<text xml:space="preserve" text-anchor="middle" x="444" y="-374.86" font-family="Helvetica,sans-Serif" font-size="10.00" fill="#b71c1c">control plane + keys</text>
<text xml:space="preserve" text-anchor="middle" x="444" y="-363.61" font-family="Helvetica,sans-Serif" font-size="10.00" fill="#b71c1c">NOT escape&#45;contained &#45;&gt;</text>
<text xml:space="preserve" text-anchor="middle" x="444" y="-352.36" font-family="Helvetica,sans-Serif" font-size="10.00" fill="#b71c1c">Tier&#45;1 emu / simulated&#45;net ONLY</text>
</g>
<!-- SHOST&#45;&gt;SB -->
<!-- TC -->
<g id="node4" class="node">
<title>TC</title>
<path fill="#c8e6c9" stroke="#2e7d32" stroke-width="1.4" d="M256.08,-270.85C256.08,-270.85 49.92,-270.85 49.92,-270.85 43.92,-270.85 37.92,-264.85 37.92,-258.85 37.92,-258.85 37.92,-237.58 37.92,-237.58 37.92,-231.58 43.92,-225.58 49.92,-225.58 49.92,-225.58 256.08,-225.58 256.08,-225.58 262.08,-225.58 268.08,-231.58 268.08,-237.58 268.08,-237.58 268.08,-258.85 268.08,-258.85 268.08,-264.85 262.08,-270.85 256.08,-270.85"/>
<text xml:space="preserve" text-anchor="middle" x="153" y="-255.59" font-family="Helvetica,sans-Serif" font-size="10.00">Control node (K3s)</text>
<text xml:space="preserve" text-anchor="middle" x="153" y="-244.34" font-family="Helvetica,sans-Serif" font-size="10.00">gateway, orchestrator, stores</text>
<text xml:space="preserve" text-anchor="middle" x="153" y="-233.09" font-family="Helvetica,sans-Serif" font-size="10.00">Qdrant + graph + OpenSearch, vLLM (&gt;=24 GB)</text>
</g>
<!-- SHOST&#45;&gt;TC -->
<!-- SREM -->
<g id="node3" class="node">
<title>SREM</title>
<path fill="#eceff1" stroke="#546e7a" stroke-width="1.4" stroke-dasharray="5,2" d="M733.33,-401.37C733.33,-401.37 612.67,-401.37 612.67,-401.37 606.67,-401.37 600.67,-395.37 600.67,-389.37 600.67,-389.37 600.67,-368.1 600.67,-368.1 600.67,-362.1 606.67,-356.1 612.67,-356.1 612.67,-356.1 733.33,-356.1 733.33,-356.1 739.33,-356.1 745.33,-362.1 745.33,-368.1 745.33,-368.1 745.33,-389.37 745.33,-389.37 745.33,-395.37 739.33,-401.37 733.33,-401.37"/>
<text xml:space="preserve" text-anchor="middle" x="673" y="-386.11" font-family="Helvetica,sans-Serif" font-size="10.00">(optional) remote detonation</text>
<text xml:space="preserve" text-anchor="middle" x="673" y="-374.86" font-family="Helvetica,sans-Serif" font-size="10.00">to a shared SEPARATE pool</text>
<text xml:space="preserve" text-anchor="middle" x="673" y="-363.61" font-family="Helvetica,sans-Serif" font-size="10.00">= borrows Team&#45;tier (3)</text>
</g>
<!-- SB&#45;&gt;SREM -->
<!-- TB -->
<g id="node5" class="node">
<title>TB</title>
<path fill="#c8e6c9" stroke="#2e7d32" stroke-width="1.8" d="M522.29,-243.43C522.29,-243.43 522.29,-253 522.29,-253 522.29,-257.78 517.72,-263.99 513.16,-265.41 513.16,-265.41 466.23,-280.02 466.23,-280.02 461.67,-281.44 452.31,-282.86 447.53,-282.86 447.53,-282.86 374.47,-282.86 374.47,-282.86 369.69,-282.86 360.33,-281.44 355.77,-280.02 355.77,-280.02 308.84,-265.41 308.84,-265.41 304.28,-263.99 299.71,-257.78 299.71,-253 299.71,-253 299.71,-243.43 299.71,-243.43 299.71,-238.65 304.28,-232.44 308.84,-231.02 308.84,-231.02 355.77,-216.41 355.77,-216.41 360.33,-214.99 369.69,-213.57 374.47,-213.57 374.47,-213.57 447.53,-213.57 447.53,-213.57 452.31,-213.57 461.67,-214.99 466.23,-216.41 466.23,-216.41 513.16,-231.02 513.16,-231.02 517.72,-232.44 522.29,-238.65 522.29,-243.43"/>
<text xml:space="preserve" text-anchor="middle" x="411" y="-255.59" font-family="Helvetica,sans-Serif" font-size="10.00" fill="#1b5e20">boundary (3) PRESENT</text>
<text xml:space="preserve" text-anchor="middle" x="411" y="-244.34" font-family="Helvetica,sans-Serif" font-size="10.00" fill="#1b5e20">own kernel + own network</text>
<text xml:space="preserve" text-anchor="middle" x="411" y="-233.09" font-family="Helvetica,sans-Serif" font-size="10.00" fill="#1b5e20">no route / no creds to control</text>
</g>
<!-- TC&#45;&gt;TB -->
<!-- EC -->
<g id="node7" class="node">
<title>EC</title>
<path fill="#c8e6c9" stroke="#2e7d32" stroke-width="1.4" d="M277.83,-157.55C277.83,-157.55 28.17,-157.55 28.17,-157.55 22.17,-157.55 16.17,-151.55 16.17,-145.55 16.17,-145.55 16.17,-124.28 16.17,-124.28 16.17,-118.28 22.17,-112.28 28.17,-112.28 28.17,-112.28 277.83,-112.28 277.83,-112.28 283.83,-112.28 289.83,-118.28 289.83,-124.28 289.83,-124.28 289.83,-145.55 289.83,-145.55 289.83,-151.55 283.83,-157.55 277.83,-157.55"/>
<text xml:space="preserve" text-anchor="middle" x="153" y="-142.29" font-family="Helvetica,sans-Serif" font-size="10.00">K8s stateless planes</text>
<text xml:space="preserve" text-anchor="middle" x="153" y="-131.04" font-family="Helvetica,sans-Serif" font-size="10.00">HA PG (split OLTP/analytics), Qdrant, graph, OpenSearch</text>
<text xml:space="preserve" text-anchor="middle" x="153" y="-119.79" font-family="Helvetica,sans-Serif" font-size="10.00">vLLM fleet (A100/H100) + gated cloud</text>
</g>
<!-- TC&#45;&gt;EC -->
<!-- TD -->
<g id="node6" class="node">
<title>TD</title>
<path fill="#ffcdd2" stroke="#c62828" stroke-width="1.4" d="M681.33,-270.85C681.33,-270.85 566.67,-270.85 566.67,-270.85 560.67,-270.85 554.67,-264.85 554.67,-258.85 554.67,-258.85 554.67,-237.58 554.67,-237.58 554.67,-231.58 560.67,-225.58 566.67,-225.58 566.67,-225.58 681.33,-225.58 681.33,-225.58 687.33,-225.58 693.33,-231.58 693.33,-237.58 693.33,-237.58 693.33,-258.85 693.33,-258.85 693.33,-264.85 687.33,-270.85 681.33,-270.85"/>
<text xml:space="preserve" text-anchor="middle" x="624" y="-255.59" font-family="Helvetica,sans-Serif" font-size="10.00">SEPARATE bare&#45;metal</text>
<text xml:space="preserve" text-anchor="middle" x="624" y="-244.34" font-family="Helvetica,sans-Serif" font-size="10.00">detonation node</text>
<text xml:space="preserve" text-anchor="middle" x="624" y="-233.09" font-family="Helvetica,sans-Serif" font-size="10.00">T1&#45;T2 KVM, optional 1 Xen</text>
</g>
<!-- TB&#45;&gt;TD -->
<!-- EB -->
<g id="node8" class="node">
<title>EB</title>
<path fill="#c8e6c9" stroke="#2e7d32" stroke-width="1.8" d="M589.68,-130.13C589.68,-130.13 589.68,-139.7 589.68,-139.7 589.68,-144.49 585.05,-150.47 580.42,-151.67 580.42,-151.67 520.63,-167.17 520.63,-167.17 516,-168.37 506.59,-169.57 501.8,-169.57 501.8,-169.57 410.2,-169.57 410.2,-169.57 405.41,-169.57 396,-168.37 391.37,-167.17 391.37,-167.17 331.58,-151.67 331.58,-151.67 326.95,-150.47 322.32,-144.49 322.32,-139.7 322.32,-139.7 322.32,-130.13 322.32,-130.13 322.32,-125.35 326.95,-119.37 331.58,-118.17 331.58,-118.17 391.37,-102.67 391.37,-102.67 396,-101.47 405.41,-100.27 410.2,-100.27 410.2,-100.27 501.8,-100.27 501.8,-100.27 506.59,-100.27 516,-101.47 520.63,-102.67 520.63,-102.67 580.42,-118.17 580.42,-118.17 585.05,-119.37 589.68,-125.35 589.68,-130.13"/>
<text xml:space="preserve" text-anchor="middle" x="456" y="-142.29" font-family="Helvetica,sans-Serif" font-size="10.00" fill="#1b5e20">boundary (3) PRESENT (strongest)</text>
<text xml:space="preserve" text-anchor="middle" x="456" y="-131.04" font-family="Helvetica,sans-Serif" font-size="10.00" fill="#1b5e20">dedicated HW pools</text>
<text xml:space="preserve" text-anchor="middle" x="456" y="-119.79" font-family="Helvetica,sans-Serif" font-size="10.00" fill="#1b5e20">out&#45;of&#45;K8s controller</text>
</g>
<!-- EC&#45;&gt;EB -->
<!-- ED -->
<g id="node9" class="node">
<title>ED</title>
<path fill="#ffcdd2" stroke="#c62828" stroke-width="1.4" d="M793.83,-157.55C793.83,-157.55 634.17,-157.55 634.17,-157.55 628.17,-157.55 622.17,-151.55 622.17,-145.55 622.17,-145.55 622.17,-124.28 622.17,-124.28 622.17,-118.28 628.17,-112.28 634.17,-112.28 634.17,-112.28 793.83,-112.28 793.83,-112.28 799.83,-112.28 805.83,-118.28 805.83,-124.28 805.83,-124.28 805.83,-145.55 805.83,-145.55 805.83,-151.55 799.83,-157.55 793.83,-157.55"/>
<text xml:space="preserve" text-anchor="middle" x="714" y="-142.29" font-family="Helvetica,sans-Serif" font-size="10.00">Bare&#45;metal detonation pools</text>
<text xml:space="preserve" text-anchor="middle" x="714" y="-131.04" font-family="Helvetica,sans-Serif" font-size="10.00">T1&#45;T3 + bare&#45;metal + BYO&#45;mac</text>
<text xml:space="preserve" text-anchor="middle" x="714" y="-119.79" font-family="Helvetica,sans-Serif" font-size="10.00">physically bounded (not pod&#45;scalable)</text>
</g>
<!-- EB&#45;&gt;ED -->
<!-- NOTE -->
<g id="node10" class="node">
<title>NOTE</title>
<polygon fill="#fff8e1" stroke="#e65100" stroke-width="1.4" points="875.58,-60.27 546.42,-60.27 546.42,0 881.58,0 881.58,-54.27 875.58,-60.27"/>
<polyline fill="none" stroke="#e65100" stroke-width="1.4" points="875.58,-60.27 875.58,-54.27"/>
<polyline fill="none" stroke="#e65100" stroke-width="1.4" points="881.58,-54.27 875.58,-54.27"/>
<text xml:space="preserve" text-anchor="middle" x="714" y="-45.48" font-family="Helvetica,sans-Serif" font-size="9.50">Escape&#45;containment REQUIRES a physically separate detonation node.</text>
<text xml:space="preserve" text-anchor="middle" x="714" y="-35.73" font-family="Helvetica,sans-Serif" font-size="9.50">All&#45;in&#45;one single&#45;node (Solo) has no boundary (3) &#45; use it for dev/eval or</text>
<text xml:space="preserve" text-anchor="middle" x="714" y="-25.98" font-family="Helvetica,sans-Serif" font-size="9.50">Tier&#45;1&#45;emulation / simulated&#45;net only, never for escape&#45;risk detonation.</text>
<text xml:space="preserve" text-anchor="middle" x="714" y="-16.23" font-family="Helvetica,sans-Serif" font-size="9.50">Phase&#45;1 reference deploy = control node + ONE separate detonation host.</text>
<text xml:space="preserve" text-anchor="middle" x="714" y="-6.48" font-family="Helvetica,sans-Serif" font-size="9.50">(DESIGN&#45;AUDIT A1, residual R10)</text>
</g>
<!-- ED&#45;&gt;NOTE -->
</g>
</svg>
