<?xml version="1.0" encoding="UTF-8" standalone="no"?>
<!DOCTYPE svg PUBLIC "-//W3C//DTD SVG 1.1//EN"
 "http://www.w3.org/Graphics/SVG/1.1/DTD/svg11.dtd">
<!-- Generated by graphviz version 14.1.4 (20260321.0153)
 -->
<!-- Title: licensing Pages: 1 -->
<svg width="1742pt" height="407pt"
 viewBox="0.00 0.00 1742.00 407.00" xmlns="http://www.w3.org/2000/svg" xmlns:xlink="http://www.w3.org/1999/xlink">
<g id="graph0" class="graph" transform="scale(1 1) rotate(0) translate(28.8 377.8)">
<title>licensing</title>
<polygon fill="white" stroke="none" points="-28.8,28.8 -28.8,-377.8 1713.22,-377.8 1713.22,28.8 -28.8,28.8"/>
<text xml:space="preserve" text-anchor="start" x="681.34" y="-335.55" font-family="Helvetica,sans-Serif" font-weight="bold" font-size="11.00">MalAnalyzer &#45; Licensing Isolation (transport per license class)</text>
<text xml:space="preserve" text-anchor="start" x="514.84" y="-325.5" font-family="Helvetica,sans-Serif" font-size="10.00">In&#45;process import = a combined/derivative work regardless of containers. Process separation is mandatory; copyleft workers never link Apache gRPC.</text>
<g id="clust1" class="cluster">
<title>cluster_copyleft</title>
<path fill="#efebe9" stroke="#8d6e63" stroke-width="1.8" d="M12,-8C12,-8 404.5,-8 404.5,-8 410.5,-8 416.5,-14 416.5,-20 416.5,-20 416.5,-300 416.5,-300 416.5,-306 410.5,-312 404.5,-312 404.5,-312 12,-312 12,-312 6,-312 0,-306 0,-300 0,-300 0,-20 0,-20 0,-14 6,-8 12,-8"/>
<text xml:space="preserve" text-anchor="start" x="8" y="-298.55" font-family="Helvetica,sans-Serif" font-weight="bold" font-size="11.00" fill="#4e342e">Copyleft engines</text>
<text xml:space="preserve" text-anchor="start" x="96.5" y="-298.55" font-family="Helvetica,sans-Serif" font-size="11.00" fill="#4e342e"> &#45; each its OWN separately&#45;licensed, process&#45;isolated component</text>
</g>
<g id="clust2" class="cluster">
<title>cluster_core</title>
<path fill="#e8f5e9" stroke="#2e7d32" stroke-width="2.2" d="M1097.61,-122C1097.61,-122 1664.42,-122 1664.42,-122 1670.42,-122 1676.42,-128 1676.42,-134 1676.42,-134 1676.42,-186 1676.42,-186 1676.42,-192 1670.42,-198 1664.42,-198 1664.42,-198 1097.61,-198 1097.61,-198 1091.61,-198 1085.61,-192 1085.61,-186 1085.61,-186 1085.61,-134 1085.61,-134 1085.61,-128 1091.61,-122 1097.61,-122"/>
<text xml:space="preserve" text-anchor="start" x="1211.52" y="-184.55" font-family="Helvetica,sans-Serif" font-weight="bold" font-size="11.00" fill="#1b5e20">Apache&#45;2.0 CORE</text>
<text xml:space="preserve" text-anchor="start" x="1305.27" y="-184.55" font-family="Helvetica,sans-Serif" font-size="11.00" fill="#1b5e20"> &#45; links only permissive (Apache/BSD/MIT/MPL&#45;file)</text>
</g>
<!-- GPL2 -->
<g id="node1" class="node">
<title>GPL2</title>
<path fill="#ffcdd2" stroke="#c62828" stroke-width="1.4" d="M273.01,-284C273.01,-284 142.49,-284 142.49,-284 136.49,-284 130.49,-278 130.49,-272 130.49,-272 130.49,-260 130.49,-260 130.49,-254 136.49,-248 142.49,-248 142.49,-248 273.01,-248 273.01,-248 279.01,-248 285.01,-254 285.01,-260 285.01,-260 285.01,-272 285.01,-272 285.01,-278 279.01,-284 273.01,-284"/>
<text xml:space="preserve" text-anchor="middle" x="207.75" y="-266.73" font-family="Helvetica,sans-Serif" font-size="9.50">GPLv2: Qiling+Unicorn ,</text>
<text xml:space="preserve" text-anchor="middle" x="207.75" y="-256.98" font-family="Helvetica,sans-Serif" font-size="9.50">Speakeasy&#45;&gt;Unicorn (emulation)</text>
</g>
<!-- GATE -->
<g id="node6" class="node">
<title>GATE</title>
<path fill="#fff3e0" stroke="#e65100" stroke-width="2" d="M882.86,-143.35C882.86,-143.35 882.86,-156.65 882.86,-156.65 882.86,-162.65 877.09,-170.3 871.33,-171.95 871.33,-171.95 802.25,-191.72 802.25,-191.72 796.48,-193.38 784.71,-195.03 778.71,-195.03 778.71,-195.03 672.4,-195.03 672.4,-195.03 666.4,-195.03 654.63,-193.38 648.86,-191.72 648.86,-191.72 579.79,-171.95 579.79,-171.95 574.02,-170.3 568.25,-162.65 568.25,-156.65 568.25,-156.65 568.25,-143.35 568.25,-143.35 568.25,-137.35 574.02,-129.7 579.79,-128.05 579.79,-128.05 648.86,-108.28 648.86,-108.28 654.63,-106.62 666.4,-104.97 672.4,-104.97 672.4,-104.97 778.71,-104.97 778.71,-104.97 784.71,-104.97 796.48,-106.62 802.25,-108.28 802.25,-108.28 871.33,-128.05 871.33,-128.05 877.09,-129.7 882.86,-137.35 882.86,-143.35"/>
<text xml:space="preserve" text-anchor="middle" x="725.56" y="-165.35" font-family="Helvetica,sans-Serif" font-size="9.50" fill="#e65100">CI LICENSE GATE</text>
<text xml:space="preserve" text-anchor="middle" x="725.56" y="-155.6" font-family="Helvetica,sans-Serif" font-size="9.50" fill="#e65100">(bidirectional, transitive)</text>
<text xml:space="preserve" text-anchor="middle" x="725.56" y="-145.85" font-family="Helvetica,sans-Serif" font-size="9.50" fill="#e65100">fails on: copyleft &#45;&gt; core</text>
<text xml:space="preserve" text-anchor="middle" x="725.56" y="-136.1" font-family="Helvetica,sans-Serif" font-size="9.50" fill="#e65100">AND Apache/incompatible &#45;&gt; copyleft worker</text>
<text xml:space="preserve" text-anchor="middle" x="725.56" y="-126.35" font-family="Helvetica,sans-Serif" font-size="9.50" fill="#e65100">catches Speakeasy &#45;&gt; Unicorn</text>
</g>
<!-- GPL2&#45;&gt;GATE -->
<g id="edge2" class="edge">
<title>GPL2&#45;&gt;GATE</title>
<path fill="none" stroke="#c62828" stroke-width="1.5" d="M285.5,-266.69C351.85,-265.56 449.8,-259.73 532.25,-238 567.98,-228.58 605.33,-212.97 637.51,-197.49"/>
<polygon fill="#c62828" stroke="#c62828" stroke-width="1.5" points="638.73,-200.79 646.17,-193.25 635.65,-194.5 638.73,-200.79"/>
<text xml:space="preserve" text-anchor="middle" x="488.38" y="-275.74" font-family="Helvetica,sans-Serif" font-size="9.00" fill="#b71c1c"> CLI/pipe or BSD</text>
<text xml:space="preserve" text-anchor="middle" x="488.38" y="-265.99" font-family="Helvetica,sans-Serif" font-size="9.00" fill="#b71c1c"> proto&#45;over&#45;UDS</text>
<text xml:space="preserve" text-anchor="middle" x="488.38" y="-256.24" font-family="Helvetica,sans-Serif" font-size="9.00" fill="#b71c1c"> (NOT Apache gRPC)</text>
</g>
<!-- CORE -->
<g id="node7" class="node">
<title>CORE</title>
<path fill="#c8e6c9" stroke="#2e7d32" stroke-width="1.4" d="M1267.64,-169.66C1267.64,-169.66 1105.61,-169.66 1105.61,-169.66 1099.61,-169.66 1093.61,-163.66 1093.61,-157.66 1093.61,-157.66 1093.61,-142.34 1093.61,-142.34 1093.61,-136.34 1099.61,-130.34 1105.61,-130.34 1105.61,-130.34 1267.64,-130.34 1267.64,-130.34 1273.64,-130.34 1279.64,-136.34 1279.64,-142.34 1279.64,-142.34 1279.64,-157.66 1279.64,-157.66 1279.64,-163.66 1273.64,-169.66 1267.64,-169.66"/>
<text xml:space="preserve" text-anchor="middle" x="1186.63" y="-155.6" font-family="Helvetica,sans-Serif" font-size="9.50">gateway, orchestrator (Temporal), pump</text>
<text xml:space="preserve" text-anchor="middle" x="1186.63" y="-145.85" font-family="Helvetica,sans-Serif" font-size="9.50">gRPC/proto contract</text>
<text xml:space="preserve" text-anchor="middle" x="1186.63" y="-136.1" font-family="Helvetica,sans-Serif" font-size="9.50">Ghidra, capa, FLOSS, Magika (Apache)</text>
</g>
<!-- GPL2&#45;&gt;CORE -->
<g id="edge8" class="edge">
<title>GPL2&#45;&gt;CORE</title>
<path fill="none" stroke="#c62828" stroke-width="2.2" stroke-dasharray="5,2" d="M290.26,-258.62C375.09,-249.18 499.99,-229.74 532.25,-195 572.46,-151.7 521.14,-102.68 568.25,-67 735.5,59.7 834.87,-65.04 1037.36,-120 1053.69,-124.43 1071.2,-128.54 1088.25,-132.19"/>
<polygon fill="#c62828" stroke="#c62828" stroke-width="2.2" points="287.14,-263.99 286.04,-254.05 288.03,-253.84 289.12,-263.78 287.14,-263.99"/>
<polyline fill="none" stroke="#c62828" stroke-width="2.2" points="285.6,-259.13 290.57,-258.59"/>
<polygon fill="#c62828" stroke="#c62828" stroke-width="2.2" points="1093.01,-128.09 1090.93,-137.87 1088.98,-137.46 1091.05,-127.68 1093.01,-128.09"/>
<polyline fill="none" stroke="#c62828" stroke-width="2.2" points="1092.95,-133.19 1088.06,-132.15"/>
<text xml:space="preserve" text-anchor="start" x="679.81" y="-86.45" font-family="Helvetica,sans-Serif" font-weight="bold" font-size="9.00" fill="#b71c1c">NO in&#45;process import</text>
<text xml:space="preserve" text-anchor="start" x="630.31" y="-77.45" font-family="Helvetica,sans-Serif" font-size="9.00" fill="#b71c1c">in&#45;process = derivative regardless of container;</text>
<text xml:space="preserve" text-anchor="start" x="646.43" y="-68.45" font-family="Helvetica,sans-Serif" font-size="9.00" fill="#b71c1c">Apache&#45;2.0 ↔ GPLv2 are incompatible</text>
</g>
<!-- GPL3 -->
<g id="node2" class="node">
<title>GPL3</title>
<path fill="#ffe0b2" stroke="#ef6c00" stroke-width="1.4" d="M288.39,-226C288.39,-226 127.11,-226 127.11,-226 121.11,-226 115.11,-220 115.11,-214 115.11,-214 115.11,-202 115.11,-202 115.11,-196 121.11,-190 127.11,-190 127.11,-190 288.39,-190 288.39,-190 294.39,-190 300.39,-196 300.39,-202 300.39,-202 300.39,-214 300.39,-214 300.39,-220 294.39,-226 288.39,-226"/>
<text xml:space="preserve" text-anchor="middle" x="207.75" y="-208.72" font-family="Helvetica,sans-Serif" font-size="9.50">GPLv3: CAPE technique</text>
<text xml:space="preserve" text-anchor="middle" x="207.75" y="-198.97" font-family="Helvetica,sans-Serif" font-size="9.50">(clean&#45;room Apache, or isolated worker)</text>
</g>
<!-- GPL3&#45;&gt;GATE -->
<g id="edge3" class="edge">
<title>GPL3&#45;&gt;GATE</title>
<path fill="none" stroke="#ef6c00" stroke-width="1.2" d="M300.97,-197.63C371.61,-189.69 471.02,-178.51 555.78,-168.98"/>
<polygon fill="#ef6c00" stroke="#ef6c00" stroke-width="1.2" points="556.02,-172.47 565.57,-167.88 555.24,-165.52 556.02,-172.47"/>
<text xml:space="preserve" text-anchor="middle" x="488.38" y="-181.94" font-family="Helvetica,sans-Serif" font-size="9.00"> NET/CLI</text>
</g>
<!-- VSL -->
<g id="node3" class="node">
<title>VSL</title>
<path fill="#e1bee7" stroke="#6a1b9a" stroke-width="1.4" d="M272.64,-168C272.64,-168 142.86,-168 142.86,-168 136.86,-168 130.86,-162 130.86,-156 130.86,-156 130.86,-144 130.86,-144 130.86,-138 136.86,-132 142.86,-132 142.86,-132 272.64,-132 272.64,-132 278.64,-132 284.64,-138 284.64,-144 284.64,-144 284.64,-156 284.64,-156 284.64,-162 278.64,-168 272.64,-168"/>
<text xml:space="preserve" text-anchor="middle" x="207.75" y="-150.72" font-family="Helvetica,sans-Serif" font-size="9.50">VSL: Volatility 3</text>
<text xml:space="preserve" text-anchor="middle" x="207.75" y="-140.97" font-family="Helvetica,sans-Serif" font-size="9.50">(publish source, wrapper clause)</text>
</g>
<!-- VSL&#45;&gt;GATE -->
<g id="edge4" class="edge">
<title>VSL&#45;&gt;GATE</title>
<path fill="none" stroke="#6a1b9a" stroke-width="1.2" d="M285.14,-150C356.14,-150 464.36,-150 555.64,-150"/>
<polygon fill="#6a1b9a" stroke="#6a1b9a" stroke-width="1.2" points="555.44,-153.5 565.44,-150 555.44,-146.5 555.44,-153.5"/>
<text xml:space="preserve" text-anchor="middle" x="488.38" y="-151.2" font-family="Helvetica,sans-Serif" font-size="9.00"> NET (isolated)</text>
</g>
<!-- AGPL -->
<g id="node4" class="node">
<title>AGPL</title>
<path fill="#d7ccc8" stroke="#5d4037" stroke-width="1.4" d="M303.01,-110C303.01,-110 112.49,-110 112.49,-110 106.48,-110 100.49,-104 100.49,-98 100.49,-98 100.49,-86 100.49,-86 100.49,-80 106.49,-74 112.49,-74 112.49,-74 303.01,-74 303.01,-74 309.01,-74 315.01,-80 315.01,-86 315.01,-86 315.01,-98 315.01,-98 315.01,-104 309.01,-110 303.01,-110"/>
<text xml:space="preserve" text-anchor="middle" x="207.75" y="-92.72" font-family="Helvetica,sans-Serif" font-size="9.50">AGPLv3: MemProcFS, MISP ,</text>
<text xml:space="preserve" text-anchor="middle" x="207.75" y="-82.97" font-family="Helvetica,sans-Serif" font-size="9.50">Grafana, Loki (ship UNMODIFIED, section 13)</text>
</g>
<!-- AGPL&#45;&gt;GATE -->
<g id="edge5" class="edge">
<title>AGPL&#45;&gt;GATE</title>
<path fill="none" stroke="#5d4037" stroke-width="1.2" d="M315.63,-104.02C384.95,-111.81 476.76,-122.14 555.82,-131.03"/>
<polygon fill="#5d4037" stroke="#5d4037" stroke-width="1.2" points="555.26,-134.49 565.59,-132.12 556.04,-127.53 555.26,-134.49"/>
<text xml:space="preserve" text-anchor="middle" x="488.38" y="-129.1" font-family="Helvetica,sans-Serif" font-size="9.00"> SVC (unmodified)</text>
</g>
<!-- LGPL -->
<g id="node5" class="node">
<title>LGPL</title>
<path fill="#bbdefb" stroke="#1565c0" stroke-width="1.4" d="M250.89,-52C250.89,-52 164.61,-52 164.61,-52 158.61,-52 152.61,-46 152.61,-40 152.61,-40 152.61,-28 152.61,-28 152.61,-22 158.61,-16 164.61,-16 164.61,-16 250.89,-16 250.89,-16 256.89,-16 262.89,-22 262.89,-28 262.89,-28 262.89,-40 262.89,-40 262.89,-46 256.89,-52 250.89,-52"/>
<text xml:space="preserve" text-anchor="middle" x="207.75" y="-34.73" font-family="Helvetica,sans-Serif" font-size="9.50">LGPLv3: radare2 core</text>
<text xml:space="preserve" text-anchor="middle" x="207.75" y="-24.98" font-family="Helvetica,sans-Serif" font-size="9.50">(dynamic link&#45;safe)</text>
</g>
<!-- LGPL&#45;&gt;GATE -->
<g id="edge6" class="edge">
<title>LGPL&#45;&gt;GATE</title>
<path fill="none" stroke="#1565c0" stroke-width="1.2" d="M263.34,-39.56C305.45,-44.34 365,-52.19 416.5,-63 480.11,-76.36 549.89,-95.67 606.93,-112.7"/>
<polygon fill="#1565c0" stroke="#1565c0" stroke-width="1.2" points="605.84,-116.03 616.43,-115.56 607.86,-109.33 605.84,-116.03"/>
<text xml:space="preserve" text-anchor="middle" x="488.38" y="-91.27" font-family="Helvetica,sans-Serif" font-size="9.00"> dynamic link</text>
</g>
<!-- GATE&#45;&gt;CORE -->
<g id="edge7" class="edge">
<title>GATE&#45;&gt;CORE</title>
<path fill="none" stroke="#2e7d32" stroke-width="1.6" d="M883.58,-150C948.67,-150 1022.42,-150 1080.76,-150"/>
<polygon fill="#2e7d32" stroke="#2e7d32" stroke-width="1.6" points="1073.19,-153.5 1083.19,-150 1073.19,-146.5 1073.19,-153.5"/>
<text xml:space="preserve" text-anchor="middle" x="960.11" y="-160.95" font-family="Helvetica,sans-Serif" font-size="9.00"> normalized schema</text>
<text xml:space="preserve" text-anchor="middle" x="960.11" y="-151.2" font-family="Helvetica,sans-Serif" font-size="9.00"> over IPC boundary</text>
</g>
<!-- NOTE -->
<g id="node9" class="node">
<title>NOTE</title>
<polygon fill="#fff8e1" stroke="#e65100" stroke-width="1.4" points="1329.89,-108.54 1037.36,-108.54 1037.36,-59.46 1335.89,-59.46 1335.89,-102.54 1329.89,-108.54"/>
<polyline fill="none" stroke="#e65100" stroke-width="1.4" points="1329.89,-108.54 1329.89,-102.54"/>
<polyline fill="none" stroke="#e65100" stroke-width="1.4" points="1335.89,-102.54 1329.89,-102.54"/>
<text xml:space="preserve" text-anchor="middle" x="1186.63" y="-94.95" font-family="Helvetica,sans-Serif" font-size="9.00">Phase&#45;1 flag (A7 section 7): shellcode emulation via Speakeasy pulls</text>
<text xml:space="preserve" text-anchor="middle" x="1186.63" y="-85.2" font-family="Helvetica,sans-Serif" font-size="9.00">Unicorn GPLv2 &#45;&gt; either drop emulation&#45;based shellcode from</text>
<text xml:space="preserve" text-anchor="middle" x="1186.63" y="-75.45" font-family="Helvetica,sans-Serif" font-size="9.00">Phase&#45;1 (permissive static only) or ship a GPLv2&#45;isolated worker.</text>
<text xml:space="preserve" text-anchor="middle" x="1186.63" y="-65.7" font-family="Helvetica,sans-Serif" font-size="9.00">Needs counsel sign&#45;off (LICENSING&#45;BRIEF Q1/Q2).</text>
</g>
<!-- GATE&#45;&gt;NOTE -->
<!-- PERM -->
<g id="node8" class="node">
<title>PERM</title>
<path fill="#c8e6c9" stroke="#2e7d32" stroke-width="1.4" d="M1656.42,-169.66C1656.42,-169.66 1420.89,-169.66 1420.89,-169.66 1414.89,-169.66 1408.89,-163.66 1408.89,-157.66 1408.89,-157.66 1408.89,-142.34 1408.89,-142.34 1408.89,-136.34 1414.89,-130.34 1420.89,-130.34 1420.89,-130.34 1656.42,-130.34 1656.42,-130.34 1662.42,-130.34 1668.42,-136.34 1668.42,-142.34 1668.42,-142.34 1668.42,-157.66 1668.42,-157.66 1668.42,-163.66 1662.42,-169.66 1656.42,-169.66"/>
<text xml:space="preserve" text-anchor="middle" x="1538.66" y="-155.6" font-family="Helvetica,sans-Serif" font-size="9.50">permissive infra:</text>
<text xml:space="preserve" text-anchor="middle" x="1538.66" y="-145.85" font-family="Helvetica,sans-Serif" font-size="9.50">Qdrant, OpenSearch, SeaweedFS, JanusGraph (Apache)</text>
<text xml:space="preserve" text-anchor="middle" x="1538.66" y="-136.1" font-family="Helvetica,sans-Serif" font-size="9.50">YARA&#45;X, Valkey (BSD), OpenBao (MPL&#45;file)</text>
</g>
<!-- CORE&#45;&gt;PERM -->
</g>
</svg>
