<?xml version="1.0" encoding="UTF-8" standalone="no"?>
<!DOCTYPE svg PUBLIC "-//W3C//DTD SVG 1.1//EN"
 "http://www.w3.org/Graphics/SVG/1.1/DTD/svg11.dtd">
<!-- Generated by graphviz version 14.1.4 (20260321.0153)
 -->
<!-- Title: phase1_components Pages: 1 -->
<svg width="1350pt" height="1038pt"
 viewBox="0.00 0.00 1350.00 1038.00" xmlns="http://www.w3.org/2000/svg" xmlns:xlink="http://www.w3.org/1999/xlink">
<g id="graph0" class="graph" transform="scale(1 1) rotate(0) translate(28.8 1008.8)">
<title>phase1_components</title>
<polygon fill="white" stroke="none" points="-28.8,28.8 -28.8,-1008.8 1320.7,-1008.8 1320.7,28.8 -28.8,28.8"/>
<text xml:space="preserve" text-anchor="start" x="486.95" y="-966.55" font-family="Helvetica,sans-Serif" font-weight="bold" font-size="11.00">MalAnalyzer &#45; Phase&#45;1 Components &amp; Data Paths (corrected)</text>
<text xml:space="preserve" text-anchor="start" x="323.83" y="-956.5" font-family="Helvetica,sans-Serif" font-size="10.00">Workers hold no store credentials (mounted fd in, UDS out; orchestrator brokers writes). Detonation is a separate host. The pump is two processes.</text>
<g id="clust1" class="cluster">
<title>cluster_ctrl</title>
<path fill="#e8f5e9" stroke="#2e7d32" stroke-width="2" d="M252.16,-440C252.16,-440 1258.28,-440 1258.28,-440 1264.28,-440 1270.28,-446 1270.28,-452 1270.28,-452 1270.28,-642 1270.28,-642 1270.28,-648 1264.28,-654 1258.28,-654 1258.28,-654 252.16,-654 252.16,-654 246.16,-654 240.16,-648 240.16,-642 240.16,-642 240.16,-452 240.16,-452 240.16,-446 246.16,-440 252.16,-440"/>
<text xml:space="preserve" text-anchor="start" x="656.22" y="-640.55" font-family="Helvetica,sans-Serif" font-weight="bold" font-size="11.00" fill="#1b5e20">CONTROL PLANE</text>
<text xml:space="preserve" text-anchor="start" x="752.22" y="-640.55" font-family="Helvetica,sans-Serif" font-size="11.00" fill="#1b5e20"> , &#160;single control node</text>
</g>
<g id="clust2" class="cluster">
<title>cluster_data</title>
<path fill="#e3f2fd" stroke="#1565c0" stroke-width="2" d="M229.28,-244C229.28,-244 678.59,-244 678.59,-244 684.59,-244 690.59,-250 690.59,-256 690.59,-256 690.59,-420 690.59,-420 690.59,-426 684.59,-432 678.59,-432 678.59,-432 229.28,-432 229.28,-432 223.28,-432 217.28,-426 217.28,-420 217.28,-420 217.28,-256 217.28,-256 217.28,-250 223.28,-244 229.28,-244"/>
<text xml:space="preserve" text-anchor="start" x="292.31" y="-418.55" font-family="Helvetica,sans-Serif" font-weight="bold" font-size="11.00" fill="#0d47a1">DATA PLANE</text>
<text xml:space="preserve" text-anchor="start" x="362.81" y="-418.55" font-family="Helvetica,sans-Serif" font-size="11.00" fill="#0d47a1"> , &#160;single&#45;use, empty netns, seccomp, NO store creds</text>
</g>
<g id="clust3" class="cluster">
<title>cluster_store</title>
<path fill="#eceff1" stroke="#546e7a" stroke-width="1.6" d="M840.09,-662C840.09,-662 967.12,-662 967.12,-662 973.12,-662 979.12,-668 979.12,-674 979.12,-674 979.12,-931 979.12,-931 979.12,-937 973.12,-943 967.12,-943 967.12,-943 840.09,-943 840.09,-943 834.09,-943 828.09,-937 828.09,-931 828.09,-931 828.09,-674 828.09,-674 828.09,-668 834.09,-662 840.09,-662"/>
<text xml:space="preserve" text-anchor="start" x="880.73" y="-929.55" font-family="Helvetica,sans-Serif" font-weight="bold" font-size="11.00" fill="#37474f">STORES</text>
</g>
<g id="clust4" class="cluster">
<title>cluster_det</title>
<path fill="#ffebee" stroke="#c62828" stroke-width="2" d="M20,-34C20,-34 942,-34 942,-34 948,-34 954,-40 954,-46 954,-46 954,-176 954,-176 954,-182 948,-188 942,-188 942,-188 20,-188 20,-188 14,-188 8,-182 8,-176 8,-176 8,-46 8,-46 8,-40 14,-34 20,-34"/>
<text xml:space="preserve" text-anchor="start" x="284.87" y="-174.55" font-family="Helvetica,sans-Serif" font-weight="bold" font-size="11.00" fill="#b71c1c">DETONATION PLANE</text>
<text xml:space="preserve" text-anchor="start" x="398.12" y="-174.55" font-family="Helvetica,sans-Serif" font-size="11.00" fill="#b71c1c"> , &#160;SEPARATE host, no route/creds to control (diagram 03)</text>
</g>
<!-- U -->
<g id="node1" class="node">
<title>U</title>
<path fill="#e1bee7" stroke="#6a1b9a" stroke-width="1.4" d="M113.14,-626C113.14,-626 83.14,-626 83.14,-626 77.14,-626 71.14,-620 71.14,-614 71.14,-614 71.14,-602 71.14,-602 71.14,-596 77.14,-590 83.14,-590 83.14,-590 113.14,-590 113.14,-590 119.14,-590 125.14,-596 125.14,-602 125.14,-602 125.14,-614 125.14,-614 125.14,-620 119.14,-626 113.14,-626"/>
<text xml:space="preserve" text-anchor="middle" x="98.14" y="-604.12" font-family="Helvetica,sans-Serif" font-size="10.00">Analyst</text>
</g>
<!-- WEB -->
<g id="node2" class="node">
<title>WEB</title>
<path fill="#c8e6c9" stroke="#2e7d32" stroke-width="1.4" d="M371.19,-626C371.19,-626 260.16,-626 260.16,-626 254.16,-626 248.16,-620 248.16,-614 248.16,-614 248.16,-602 248.16,-602 248.16,-596 254.16,-590 260.16,-590 260.16,-590 371.19,-590 371.19,-590 377.19,-590 383.19,-596 383.19,-602 383.19,-602 383.19,-614 383.19,-614 383.19,-620 377.19,-626 371.19,-626"/>
<text xml:space="preserve" text-anchor="middle" x="315.67" y="-609.75" font-family="Helvetica,sans-Serif" font-size="10.00">mal&#45;web (TS/React)</text>
<text xml:space="preserve" text-anchor="middle" x="315.67" y="-598.5" font-family="Helvetica,sans-Serif" font-size="10.00">triage queue, evidence tree</text>
</g>
<!-- U&#45;&gt;WEB -->
<g id="edge1" class="edge">
<title>U&#45;&gt;WEB</title>
<path fill="none" stroke="#37474f" stroke-width="1.2" d="M125.57,-608C153.03,-608 197.34,-608 236.17,-608"/>
<polygon fill="#37474f" stroke="#37474f" stroke-width="1.2" points="235.93,-611.5 245.93,-608 235.93,-604.5 235.93,-611.5"/>
</g>
<!-- GW -->
<g id="node3" class="node">
<title>GW</title>
<path fill="#c8e6c9" stroke="#2e7d32" stroke-width="1.4" d="M639.09,-626C639.09,-626 535.56,-626 535.56,-626 529.56,-626 523.56,-620 523.56,-614 523.56,-614 523.56,-602 523.56,-602 523.56,-596 529.56,-590 535.56,-590 535.56,-590 639.09,-590 639.09,-590 645.09,-590 651.09,-596 651.09,-602 651.09,-602 651.09,-614 651.09,-614 651.09,-620 645.09,-626 639.09,-626"/>
<text xml:space="preserve" text-anchor="middle" x="587.33" y="-609.75" font-family="Helvetica,sans-Serif" font-size="10.00">mal&#45;gateway (Go)</text>
<text xml:space="preserve" text-anchor="middle" x="587.33" y="-598.5" font-family="Helvetica,sans-Serif" font-size="10.00">OIDC, OPA, audit, intake</text>
</g>
<!-- WEB&#45;&gt;GW -->
<g id="edge2" class="edge">
<title>WEB&#45;&gt;GW</title>
<path fill="none" stroke="#37474f" stroke-width="1.2" d="M383.67,-608C422.43,-608 471.3,-608 511.33,-608"/>
<polygon fill="#37474f" stroke="#37474f" stroke-width="1.2" points="511.1,-611.5 521.1,-608 511.1,-604.5 511.1,-611.5"/>
</g>
<!-- ORCH -->
<g id="node4" class="node">
<title>ORCH</title>
<path fill="#c8e6c9" stroke="#2e7d32" stroke-width="1.4" d="M985.37,-491.92C985.37,-491.92 821.84,-491.92 821.84,-491.92 815.84,-491.92 809.84,-485.92 809.84,-479.92 809.84,-479.92 809.84,-460.08 809.84,-460.08 809.84,-454.08 815.84,-448.08 821.84,-448.08 821.84,-448.08 985.37,-448.08 985.37,-448.08 991.37,-448.08 997.37,-454.08 997.37,-460.08 997.37,-460.08 997.37,-479.92 997.37,-479.92 997.37,-485.92 991.37,-491.92 985.37,-491.92"/>
<text xml:space="preserve" text-anchor="middle" x="903.61" y="-477.38" font-family="Helvetica,sans-Serif" font-size="10.00">mal&#45;orchestrator (Go + Temporal)</text>
<text xml:space="preserve" text-anchor="middle" x="903.61" y="-466.12" font-family="Helvetica,sans-Serif" font-size="10.00">durable DAG, caps, aggregation</text>
<text xml:space="preserve" text-anchor="middle" x="903.61" y="-454.88" font-family="Helvetica,sans-Serif" font-size="10.00">+ persistence BROKER (writes stores)</text>
</g>
<!-- GW&#45;&gt;ORCH -->
<g id="edge3" class="edge">
<title>GW&#45;&gt;ORCH</title>
<path fill="none" stroke="#37474f" stroke-width="1.2" d="M651.53,-612.07C692.33,-612.17 745.5,-607.45 787.84,-587 827.49,-567.85 861.14,-529.1 881.56,-501.44"/>
<polygon fill="#37474f" stroke="#37474f" stroke-width="1.2" points="884.16,-503.81 887.15,-493.65 878.48,-499.73 884.16,-503.81"/>
</g>
<!-- OBJ -->
<g id="node10" class="node">
<title>OBJ</title>
<path fill="#cfd8dc" stroke="#546e7a" stroke-width="1.4" d="M971.12,-844.33C971.12,-846.57 940.86,-848.4 903.61,-848.4 866.35,-848.4 836.09,-846.57 836.09,-844.33 836.09,-844.33 836.09,-807.67 836.09,-807.67 836.09,-805.43 866.35,-803.6 903.61,-803.6 940.86,-803.6 971.12,-805.43 971.12,-807.67 971.12,-807.67 971.12,-844.33 971.12,-844.33"/>
<path fill="none" stroke="#546e7a" stroke-width="1.4" d="M971.12,-844.33C971.12,-842.08 940.86,-840.25 903.61,-840.25 866.35,-840.25 836.09,-842.08 836.09,-844.33"/>
<text xml:space="preserve" text-anchor="middle" x="903.61" y="-827.75" font-family="Helvetica,sans-Serif" font-size="10.00">SeaweedFS</text>
<text xml:space="preserve" text-anchor="middle" x="903.61" y="-816.5" font-family="Helvetica,sans-Serif" font-size="10.00">envelope&#45;enc WORM vault</text>
</g>
<!-- GW&#45;&gt;OBJ -->
<g id="edge4" class="edge">
<title>GW&#45;&gt;OBJ</title>
<path fill="none" stroke="#90a4ae" stroke-width="0.9" d="M606.22,-626.64C641.91,-662.9 725.78,-743.62 809.84,-792 814.95,-794.94 820.36,-797.71 825.9,-800.29"/>
<polygon fill="#90a4ae" stroke="#90a4ae" stroke-width="0.9" points="824.16,-803.35 834.72,-804.19 826.99,-796.94 824.16,-803.35"/>
<text xml:space="preserve" text-anchor="middle" x="746.22" y="-776.89" font-family="Helvetica,sans-Serif" font-size="9.00" fill="#78909c"> stream, enc, WORM</text>
</g>
<!-- BAO -->
<g id="node13" class="node">
<title>BAO</title>
<path fill="#cfd8dc" stroke="#546e7a" stroke-width="1.4" d="M937.37,-911.33C937.37,-913.57 922.24,-915.4 903.61,-915.4 884.97,-915.4 869.84,-913.57 869.84,-911.33 869.84,-911.33 869.84,-874.67 869.84,-874.67 869.84,-872.43 884.97,-870.6 903.61,-870.6 922.24,-870.6 937.37,-872.43 937.37,-874.67 937.37,-874.67 937.37,-911.33 937.37,-911.33"/>
<path fill="none" stroke="#546e7a" stroke-width="1.4" d="M937.37,-911.33C937.37,-909.08 922.24,-907.25 903.61,-907.25 884.97,-907.25 869.84,-909.08 869.84,-911.33"/>
<text xml:space="preserve" text-anchor="middle" x="903.61" y="-894.75" font-family="Helvetica,sans-Serif" font-size="10.00">OpenBao</text>
<text xml:space="preserve" text-anchor="middle" x="903.61" y="-883.5" font-family="Helvetica,sans-Serif" font-size="10.00">keys (KEK)</text>
</g>
<!-- GW&#45;&gt;BAO -->
<g id="edge16" class="edge">
<title>GW&#45;&gt;BAO</title>
<path fill="none" stroke="#90a4ae" stroke-width="0.9" stroke-dasharray="1,5" d="M651.67,-624.98C696.96,-640.52 755.41,-668.24 787.84,-714 825.53,-767.18 768.6,-808.52 809.84,-859 821.83,-873.67 840.74,-882.01 858.36,-886.75"/>
<polygon fill="#90a4ae" stroke="#90a4ae" stroke-width="0.9" points="857.53,-890.15 868.06,-889.01 859.12,-883.33 857.53,-890.15"/>
</g>
<!-- NATS -->
<g id="node5" class="node">
<title>NATS</title>
<path fill="#c8e6c9" stroke="#2e7d32" stroke-width="1.4" d="M1250.28,-486C1250.28,-486 1178.99,-486 1178.99,-486 1172.99,-486 1166.99,-480 1166.99,-474 1166.99,-474 1166.99,-462 1166.99,-462 1166.99,-456 1172.99,-450 1178.99,-450 1178.99,-450 1250.28,-450 1250.28,-450 1256.28,-450 1262.28,-456 1262.28,-462 1262.28,-462 1262.28,-474 1262.28,-474 1262.28,-480 1256.28,-486 1250.28,-486"/>
<text xml:space="preserve" text-anchor="middle" x="1214.63" y="-469.75" font-family="Helvetica,sans-Serif" font-size="10.00">NATS JetStream</text>
<text xml:space="preserve" text-anchor="middle" x="1214.63" y="-458.5" font-family="Helvetica,sans-Serif" font-size="10.00">per&#45;class streams</text>
</g>
<!-- ORCH&#45;&gt;NATS -->
<g id="edge5" class="edge">
<title>ORCH&#45;&gt;NATS</title>
<path fill="none" stroke="#37474f" stroke-width="1.2" d="M997.74,-469.4C1048.7,-469.07 1110.28,-468.67 1154.62,-468.38"/>
<polygon fill="#37474f" stroke="#37474f" stroke-width="1.2" points="1154.56,-471.88 1164.54,-468.32 1154.52,-464.88 1154.56,-471.88"/>
<text xml:space="preserve" text-anchor="middle" x="1067.37" y="-470.44" font-family="Helvetica,sans-Serif" font-size="9.00"> dispatch</text>
</g>
<!-- ORCH&#45;&gt;OBJ -->
<g id="edge14" class="edge">
<title>ORCH&#45;&gt;OBJ</title>
<path fill="none" stroke="#90a4ae" stroke-width="0.9" d="M876.73,-492.29C815.65,-545.62 677.14,-683.41 750.22,-781 767.62,-804.24 796.41,-816 824.38,-821.78"/>
<polygon fill="#90a4ae" stroke="#90a4ae" stroke-width="0.9" points="823.64,-825.21 834.11,-823.54 824.89,-818.32 823.64,-825.21"/>
</g>
<!-- PG -->
<g id="node11" class="node">
<title>PG</title>
<path fill="#cfd8dc" stroke="#546e7a" stroke-width="1.4" d="M965.5,-777.33C965.5,-779.57 937.75,-781.4 903.61,-781.4 869.46,-781.4 841.72,-779.57 841.72,-777.33 841.72,-777.33 841.72,-740.67 841.72,-740.67 841.72,-738.43 869.46,-736.6 903.61,-736.6 937.75,-736.6 965.5,-738.43 965.5,-740.67 965.5,-740.67 965.5,-777.33 965.5,-777.33"/>
<path fill="none" stroke="#546e7a" stroke-width="1.4" d="M965.5,-777.33C965.5,-775.08 937.75,-773.25 903.61,-773.25 869.46,-773.25 841.72,-775.08 841.72,-777.33"/>
<text xml:space="preserve" text-anchor="middle" x="903.61" y="-760.75" font-family="Helvetica,sans-Serif" font-size="10.00">PostgreSQL</text>
<text xml:space="preserve" text-anchor="middle" x="903.61" y="-749.5" font-family="Helvetica,sans-Serif" font-size="10.00">jobs,findings,cases,RLS</text>
</g>
<!-- ORCH&#45;&gt;PG -->
<g id="edge13" class="edge">
<title>ORCH&#45;&gt;PG</title>
<path fill="none" stroke="#90a4ae" stroke-width="0.9" d="M809.22,-474.45C782.65,-480.62 756.48,-492.39 739.82,-514.12 679.76,-592.51 740.46,-654.72 809.84,-725 816,-731.24 823.39,-736.34 831.28,-740.51"/>
<polygon fill="#90a4ae" stroke="#90a4ae" stroke-width="0.9" points="829.72,-743.64 840.26,-744.73 832.7,-737.31 829.72,-743.64"/>
<text xml:space="preserve" text-anchor="middle" x="746.22" y="-515.33" font-family="Helvetica,sans-Serif" font-size="9.00" fill="#78909c"> brokered writes</text>
</g>
<!-- VK -->
<g id="node12" class="node">
<title>VK</title>
<path fill="#cfd8dc" stroke="#546e7a" stroke-width="1.4" d="M930.61,-710.33C930.61,-712.57 918.5,-714.4 903.61,-714.4 888.71,-714.4 876.61,-712.57 876.61,-710.33 876.61,-710.33 876.61,-673.67 876.61,-673.67 876.61,-671.43 888.71,-669.6 903.61,-669.6 918.5,-669.6 930.61,-671.43 930.61,-673.67 930.61,-673.67 930.61,-710.33 930.61,-710.33"/>
<path fill="none" stroke="#546e7a" stroke-width="1.4" d="M930.61,-710.33C930.61,-708.08 918.5,-706.25 903.61,-706.25 888.71,-706.25 876.61,-708.08 876.61,-710.33"/>
<text xml:space="preserve" text-anchor="middle" x="903.61" y="-693.75" font-family="Helvetica,sans-Serif" font-size="10.00">Valkey</text>
<text xml:space="preserve" text-anchor="middle" x="903.61" y="-682.5" font-family="Helvetica,sans-Serif" font-size="10.00">leases</text>
</g>
<!-- ORCH&#45;&gt;VK -->
<g id="edge15" class="edge">
<title>ORCH&#45;&gt;VK</title>
<path fill="none" stroke="#90a4ae" stroke-width="0.9" d="M903.61,-492.55C903.61,-547.69 903.61,-602.84 903.61,-657.99"/>
<polygon fill="#90a4ae" stroke="#90a4ae" stroke-width="0.9" points="900.11,-657.65 903.61,-667.65 907.11,-657.65 900.11,-657.65"/>
</g>
<!-- PUMP -->
<g id="node14" class="node">
<title>PUMP</title>
<path fill="#ffe082" stroke="#f9a825" stroke-width="1.8" d="M1279.9,-244.91C1279.9,-244.91 1149.37,-244.91 1149.37,-244.91 1143.37,-244.91 1137.37,-238.91 1137.37,-232.91 1137.37,-232.91 1137.37,-213.09 1137.37,-213.09 1137.37,-207.09 1143.37,-201.09 1149.37,-201.09 1149.37,-201.09 1279.9,-201.09 1279.9,-201.09 1285.9,-201.09 1291.9,-207.09 1291.9,-213.09 1291.9,-213.09 1291.9,-232.91 1291.9,-232.91 1291.9,-238.91 1285.9,-244.91 1279.9,-244.91"/>
<text xml:space="preserve" text-anchor="middle" x="1214.63" y="-230.38" font-family="Helvetica,sans-Serif" font-size="10.00">mal&#45;pump (Rust)</text>
<text xml:space="preserve" text-anchor="middle" x="1214.63" y="-219.12" font-family="Helvetica,sans-Serif" font-size="10.00">mover + network&#45;dead validator</text>
<text xml:space="preserve" text-anchor="middle" x="1214.63" y="-207.88" font-family="Helvetica,sans-Serif" font-size="10.00">(diagram 04)</text>
</g>
<!-- ORCH&#45;&gt;PUMP -->
<g id="edge17" class="edge">
<title>ORCH&#45;&gt;PUMP</title>
<path fill="none" stroke="#e65100" stroke-width="1.5" d="M995.57,-447.44C1035.55,-434.17 1081.1,-414.13 1115.37,-385 1156.65,-349.92 1185.48,-292.94 1200.8,-256.74"/>
<polygon fill="#e65100" stroke="#e65100" stroke-width="1.5" points="1203.88,-258.46 1204.44,-247.88 1197.4,-255.8 1203.88,-258.46"/>
<text xml:space="preserve" text-anchor="middle" x="1067.37" y="-438.06" font-family="Helvetica,sans-Serif" font-size="9.00"> enqueue job</text>
</g>
<!-- SIDE -->
<g id="node6" class="node">
<title>SIDE</title>
<path fill="#e3f2fd" stroke="#1565c0" stroke-width="1.4" stroke-dasharray="5,2" d="M394.06,-316C394.06,-316 237.28,-316 237.28,-316 231.28,-316 225.28,-310 225.28,-304 225.28,-304 225.28,-292 225.28,-292 225.28,-286 231.28,-280 237.28,-280 237.28,-280 394.06,-280 394.06,-280 400.06,-280 406.06,-286 406.06,-292 406.06,-292 406.06,-304 406.06,-304 406.06,-310 400.06,-316 394.06,-316"/>
<text xml:space="preserve" text-anchor="middle" x="315.67" y="-299.75" font-family="Helvetica,sans-Serif" font-size="10.00">per&#45;job sidecar</text>
<text xml:space="preserve" text-anchor="middle" x="315.67" y="-288.5" font-family="Helvetica,sans-Serif" font-size="10.00">(fetches artifact, mounts read&#45;only fd)</text>
</g>
<!-- NATS&#45;&gt;SIDE -->
<g id="edge6" class="edge">
<title>NATS&#45;&gt;SIDE</title>
<path fill="none" stroke="#37474f" stroke-width="1.2" d="M1212.21,-449.58C1207.61,-404.42 1188.83,-288.33 1115.37,-240 999.66,-163.87 628.85,-219.2 492.06,-241 450.55,-247.62 405.48,-262.44 371.43,-275.31"/>
<polygon fill="#37474f" stroke="#37474f" stroke-width="1.2" points="370.55,-271.9 362.47,-278.75 373.06,-278.43 370.55,-271.9"/>
<text xml:space="preserve" text-anchor="middle" x="746.22" y="-213.2" font-family="Helvetica,sans-Serif" font-size="9.00"> dispatch</text>
</g>
<!-- ID -->
<g id="node7" class="node">
<title>ID</title>
<path fill="#bbdefb" stroke="#1565c0" stroke-width="1.4" d="M618.84,-346C618.84,-346 555.81,-346 555.81,-346 549.81,-346 543.81,-340 543.81,-334 543.81,-334 543.81,-322 543.81,-322 543.81,-316 549.81,-310 555.81,-310 555.81,-310 618.84,-310 618.84,-310 624.84,-310 630.84,-316 630.84,-322 630.84,-322 630.84,-334 630.84,-334 630.84,-340 624.84,-346 618.84,-346"/>
<text xml:space="preserve" text-anchor="middle" x="587.33" y="-329.75" font-family="Helvetica,sans-Serif" font-size="10.00">mal&#45;ident (Rust)</text>
<text xml:space="preserve" text-anchor="middle" x="587.33" y="-318.5" font-family="Helvetica,sans-Serif" font-size="10.00">Magika</text>
</g>
<!-- SIDE&#45;&gt;ID -->
<g id="edge7" class="edge">
<title>SIDE&#45;&gt;ID</title>
<path fill="none" stroke="#37474f" stroke-width="1.2" stroke-dasharray="1,5" d="M406.46,-307.99C452.58,-313.12 506.63,-319.13 543.36,-323.22"/>
<text xml:space="preserve" text-anchor="middle" x="449.06" y="-316" font-family="Helvetica,sans-Serif" font-size="9.00"> mounts fd</text>
</g>
<!-- EX -->
<g id="node8" class="node">
<title>EX</title>
<path fill="#bbdefb" stroke="#1565c0" stroke-width="1.4" d="M626.72,-288C626.72,-288 547.94,-288 547.94,-288 541.94,-288 535.94,-282 535.94,-276 535.94,-276 535.94,-264 535.94,-264 535.94,-258 541.94,-252 547.94,-252 547.94,-252 626.72,-252 626.72,-252 632.72,-252 638.72,-258 638.72,-264 638.72,-264 638.72,-276 638.72,-276 638.72,-282 632.72,-288 626.72,-288"/>
<text xml:space="preserve" text-anchor="middle" x="587.33" y="-271.75" font-family="Helvetica,sans-Serif" font-size="10.00">mal&#45;extract (Rust)</text>
<text xml:space="preserve" text-anchor="middle" x="587.33" y="-260.5" font-family="Helvetica,sans-Serif" font-size="10.00">path&#45;safe unarchive</text>
</g>
<!-- SIDE&#45;&gt;EX -->
<g id="edge8" class="edge">
<title>SIDE&#45;&gt;EX</title>
<path fill="none" stroke="#37474f" stroke-width="1.2" stroke-dasharray="1,5" d="M406.46,-288.68C449.36,-284.22 499.13,-279.05 535.43,-275.29"/>
</g>
<!-- ST -->
<g id="node9" class="node">
<title>ST</title>
<path fill="#bbdefb" stroke="#1565c0" stroke-width="1.4" d="M670.59,-404C670.59,-404 504.06,-404 504.06,-404 498.06,-404 492.06,-398 492.06,-392 492.06,-392 492.06,-380 492.06,-380 492.06,-374 498.06,-368 504.06,-368 504.06,-368 670.59,-368 670.59,-368 676.59,-368 682.59,-374 682.59,-380 682.59,-380 682.59,-392 682.59,-392 682.59,-398 676.59,-404 670.59,-404"/>
<text xml:space="preserve" text-anchor="middle" x="587.33" y="-387.75" font-family="Helvetica,sans-Serif" font-size="10.00">mal&#45;static&#45;* (Python)</text>
<text xml:space="preserve" text-anchor="middle" x="587.33" y="-376.5" font-family="Helvetica,sans-Serif" font-size="10.00">DIE, FLOSS, capa, YARA&#45;X, doc/script</text>
</g>
<!-- SIDE&#45;&gt;ST -->
<g id="edge9" class="edge">
<title>SIDE&#45;&gt;ST</title>
<path fill="none" stroke="#37474f" stroke-width="1.2" stroke-dasharray="1,5" d="M370.67,-316.57C405.29,-328.38 451.24,-343.86 492.06,-357 502.65,-360.41 513.95,-363.96 524.9,-367.36"/>
</g>
<!-- ID&#45;&gt;ORCH -->
<g id="edge10" class="edge">
<title>ID&#45;&gt;ORCH</title>
<path fill="none" stroke="#1565c0" stroke-width="1.2" d="M631.29,-329.23C652.38,-332.22 676.28,-339.62 690.59,-357 714.4,-385.92 677.02,-499.63 704.59,-525 748.89,-565.76 820.82,-528.9 864.71,-499.02"/>
<polygon fill="#1565c0" stroke="#1565c0" stroke-width="1.2" points="866.49,-502.05 872.68,-493.45 862.48,-496.32 866.49,-502.05"/>
<text xml:space="preserve" text-anchor="middle" x="746.22" y="-544.23" font-family="Helvetica,sans-Serif" font-size="9.00"> result via UDS</text>
</g>
<!-- EX&#45;&gt;ORCH -->
<g id="edge11" class="edge">
<title>EX&#45;&gt;ORCH</title>
<path fill="none" stroke="#1565c0" stroke-width="1.2" d="M639.27,-280.14C656.16,-284.62 674.69,-290.77 690.59,-299 763.02,-336.48 834.08,-401.07 872.75,-439.23"/>
<polygon fill="#1565c0" stroke="#1565c0" stroke-width="1.2" points="870.11,-441.54 879.66,-446.13 875.05,-436.59 870.11,-441.54"/>
</g>
<!-- ST&#45;&gt;ORCH -->
<g id="edge12" class="edge">
<title>ST&#45;&gt;ORCH</title>
<path fill="none" stroke="#1565c0" stroke-width="1.2" d="M652.36,-404.63C667.06,-411.83 681.14,-421.67 690.59,-435 707.02,-458.16 683.44,-543.05 704.59,-562 755.7,-607.79 833.54,-542.81 874.75,-500.83"/>
<polygon fill="#1565c0" stroke="#1565c0" stroke-width="1.2" points="877.07,-503.47 881.47,-493.84 872.02,-498.62 877.07,-503.47"/>
</g>
<!-- PUMP&#45;&gt;ORCH -->
<g id="edge25" class="edge">
<title>PUMP&#45;&gt;ORCH</title>
<path fill="none" stroke="#e65100" stroke-width="1.7" d="M1195.51,-245.43C1177.05,-267.25 1146.74,-300.33 1115.37,-323 1076.83,-350.85 1058.98,-343.93 1019.37,-370.25 988.97,-390.45 957.94,-417.92 935.82,-438.92"/>
<polygon fill="#e65100" stroke="#e65100" stroke-width="1.7" points="933.55,-436.25 928.76,-445.7 938.4,-441.29 933.55,-436.25"/>
<text xml:space="preserve" text-anchor="middle" x="1067.37" y="-371.45" font-family="Helvetica,sans-Serif" font-size="9.00"> validated canonical</text>
</g>
<!-- PUMP&#45;&gt;OBJ -->
<g id="edge26" class="edge">
<title>PUMP&#45;&gt;OBJ</title>
<path fill="none" stroke="#e65100" stroke-width="1.1" d="M1136.51,-236.47C1094.61,-248.06 1046.04,-269.38 1019.37,-308.25 958.49,-396.98 1060.98,-705.2 997.37,-792 993.04,-797.9 987.59,-802.78 981.49,-806.81"/>
<polygon fill="#e65100" stroke="#e65100" stroke-width="1.1" points="979.89,-803.69 972.91,-811.66 983.34,-809.79 979.89,-803.69"/>
<text xml:space="preserve" text-anchor="middle" x="1067.37" y="-309.45" font-family="Helvetica,sans-Serif" font-size="9.00"> artifacts after validation</text>
</g>
<!-- DCTRL -->
<g id="node15" class="node">
<title>DCTRL</title>
<path fill="#ffcdd2" stroke="#c62828" stroke-width="1.4" d="M168.28,-94C168.28,-94 28,-94 28,-94 22,-94 16,-88 16,-82 16,-82 16,-70 16,-70 16,-64 22,-58 28,-58 28,-58 168.28,-58 168.28,-58 174.28,-58 180.28,-64 180.28,-70 180.28,-70 180.28,-82 180.28,-82 180.28,-88 174.28,-94 168.28,-94"/>
<text xml:space="preserve" text-anchor="middle" x="98.14" y="-77.75" font-family="Helvetica,sans-Serif" font-size="10.00">detonation&#45;local controller</text>
<text xml:space="preserve" text-anchor="middle" x="98.14" y="-66.5" font-family="Helvetica,sans-Serif" font-size="10.00">leases, libvirt, reconciler (LOCAL)</text>
</g>
<!-- PUMP&#45;&gt;DCTRL -->
<g id="edge18" class="edge">
<title>PUMP&#45;&gt;DCTRL</title>
<path fill="none" stroke="#e65100" stroke-width="1.5" d="M1198.18,-200.39C1157.38,-143.7 1040.57,0 904.61,0 314.67,0 314.67,0 314.67,0 271.7,0 226.5,-13.6 188.66,-29.3"/>
<polygon fill="#e65100" stroke="#e65100" stroke-width="1.5" points="187.59,-25.96 179.77,-33.11 190.34,-32.39 187.59,-25.96"/>
<text xml:space="preserve" text-anchor="middle" x="587.33" y="-10.95" font-family="Helvetica,sans-Serif" font-size="9.00"> job spool: det PULLS</text>
<text xml:space="preserve" text-anchor="middle" x="587.33" y="-1.2" font-family="Helvetica,sans-Serif" font-size="9.00"> (det initiates; no route into det)</text>
</g>
<!-- DET -->
<g id="node16" class="node">
<title>DET</title>
<path fill="#ffcdd2" stroke="#c62828" stroke-width="1.4" d="M370.44,-94C370.44,-94 260.91,-94 260.91,-94 254.91,-94 248.91,-88 248.91,-82 248.91,-82 248.91,-70 248.91,-70 248.91,-64 254.91,-58 260.91,-58 260.91,-58 370.44,-58 370.44,-58 376.44,-58 382.44,-64 382.44,-70 382.44,-70 382.44,-82 382.44,-82 382.44,-88 376.44,-94 370.44,-94"/>
<text xml:space="preserve" text-anchor="middle" x="315.67" y="-77.75" font-family="Helvetica,sans-Serif" font-size="10.00">mal&#45;detonator (Go + libvirt)</text>
<text xml:space="preserve" text-anchor="middle" x="315.67" y="-66.5" font-family="Helvetica,sans-Serif" font-size="10.00">Tier&#45;2 KVM</text>
</g>
<!-- DCTRL&#45;&gt;DET -->
<g id="edge19" class="edge">
<title>DCTRL&#45;&gt;DET</title>
<path fill="none" stroke="#37474f" stroke-width="1.2" d="M180.93,-76C199.2,-76 218.52,-76 236.63,-76"/>
<polygon fill="#37474f" stroke="#37474f" stroke-width="1.2" points="236.52,-79.5 246.52,-76 236.52,-72.5 236.52,-79.5"/>
</g>
<!-- DOBJ -->
<g id="node19" class="node">
<title>DOBJ</title>
<path fill="#ffcdd2" stroke="#c62828" stroke-width="1.4" d="M946,-156.33C946,-158.57 927,-160.4 903.61,-160.4 880.21,-160.4 861.22,-158.57 861.22,-156.33 861.22,-156.33 861.22,-119.67 861.22,-119.67 861.22,-117.43 880.21,-115.6 903.61,-115.6 927,-115.6 946,-117.43 946,-119.67 946,-119.67 946,-156.33 946,-156.33"/>
<path fill="none" stroke="#c62828" stroke-width="1.4" d="M946,-156.33C946,-154.08 927,-152.25 903.61,-152.25 880.21,-152.25 861.22,-154.08 861.22,-156.33"/>
<text xml:space="preserve" text-anchor="middle" x="903.61" y="-139.75" font-family="Helvetica,sans-Serif" font-size="10.00">det&#45;local store</text>
<text xml:space="preserve" text-anchor="middle" x="903.61" y="-128.5" font-family="Helvetica,sans-Serif" font-size="10.00">(per&#45;run, wiped)</text>
</g>
<!-- DCTRL&#45;&gt;DOBJ -->
<g id="edge23" class="edge">
<title>DCTRL&#45;&gt;DOBJ</title>
<path fill="none" stroke="#37474f" stroke-width="1.2" stroke-dasharray="1,5" d="M170.76,-94.66C186.05,-98.35 202.16,-101.99 217.28,-105 338.45,-129.08 368.87,-137.64 492.06,-147 580.04,-153.69 602.37,-148.87 690.59,-147 744.63,-145.85 806.36,-143.07 849.22,-140.89"/>
<polygon fill="#37474f" stroke="#37474f" stroke-width="1.2" points="849.16,-144.4 858.97,-140.39 848.8,-137.41 849.16,-144.4"/>
<text xml:space="preserve" text-anchor="middle" x="449.06" y="-146.26" font-family="Helvetica,sans-Serif" font-size="9.00"> state</text>
</g>
<!-- VM -->
<g id="node17" class="node">
<title>VM</title>
<path fill="#ffcdd2" stroke="#c62828" stroke-width="1.4" d="M636.84,-78C636.84,-78 537.81,-78 537.81,-78 531.81,-78 525.81,-72 525.81,-66 525.81,-66 525.81,-54 525.81,-54 525.81,-48 531.81,-42 537.81,-42 537.81,-42 636.84,-42 636.84,-42 642.84,-42 648.84,-48 648.84,-54 648.84,-54 648.84,-66 648.84,-66 648.84,-72 642.84,-78 636.84,-78"/>
<text xml:space="preserve" text-anchor="middle" x="587.33" y="-61.75" font-family="Helvetica,sans-Serif" font-size="10.00">disposable VM</text>
<text xml:space="preserve" text-anchor="middle" x="587.33" y="-50.5" font-family="Helvetica,sans-Serif" font-size="10.00">qcow2 CoW + snapshot</text>
</g>
<!-- DET&#45;&gt;VM -->
<g id="edge20" class="edge">
<title>DET&#45;&gt;VM</title>
<path fill="none" stroke="#37474f" stroke-width="1.2" d="M382.98,-72.07C422.58,-69.72 472.92,-66.73 513.6,-64.32"/>
<polygon fill="#37474f" stroke="#37474f" stroke-width="1.2" points="513.76,-67.81 523.54,-63.73 513.35,-60.82 513.76,-67.81"/>
</g>
<!-- SIM -->
<g id="node18" class="node">
<title>SIM</title>
<path fill="#ffcdd2" stroke="#c62828" stroke-width="1.4" d="M658.97,-136C658.97,-136 515.69,-136 515.69,-136 509.69,-136 503.69,-130 503.69,-124 503.69,-124 503.69,-112 503.69,-112 503.69,-106 509.69,-100 515.69,-100 515.69,-100 658.97,-100 658.97,-100 664.97,-100 670.97,-106 670.97,-112 670.97,-112 670.97,-124 670.97,-124 670.97,-130 664.97,-136 658.97,-136"/>
<text xml:space="preserve" text-anchor="middle" x="587.33" y="-119.75" font-family="Helvetica,sans-Serif" font-size="10.00">mal&#45;simnet</text>
<text xml:space="preserve" text-anchor="middle" x="587.33" y="-108.5" font-family="Helvetica,sans-Serif" font-size="10.00">INetSim/FakeNet (separate netns)</text>
</g>
<!-- DET&#45;&gt;SIM -->
<g id="edge21" class="edge">
<title>DET&#45;&gt;SIM</title>
<path fill="none" stroke="#37474f" stroke-width="1.2" d="M382.98,-86.33C415.77,-91.43 455.91,-97.69 491.85,-103.29"/>
<polygon fill="#37474f" stroke="#37474f" stroke-width="1.2" points="491.14,-106.72 501.56,-104.8 492.22,-99.8 491.14,-106.72"/>
</g>
<!-- VM&#45;&gt;DOBJ -->
<g id="edge22" class="edge">
<title>VM&#45;&gt;DOBJ</title>
<path fill="none" stroke="#37474f" stroke-width="1.2" d="M649.29,-75.13C707.46,-89.57 794.18,-111.09 849.55,-124.83"/>
<polygon fill="#37474f" stroke="#37474f" stroke-width="1.2" points="848.56,-128.19 859.11,-127.21 850.25,-121.4 848.56,-128.19"/>
<text xml:space="preserve" text-anchor="middle" x="746.22" y="-109.48" font-family="Helvetica,sans-Serif" font-size="9.00"> results</text>
</g>
<!-- DOBJ&#45;&gt;PUMP -->
<g id="edge24" class="edge">
<title>DOBJ&#45;&gt;PUMP</title>
<path fill="none" stroke="#e65100" stroke-width="1.7" d="M953.99,-149.52C996.86,-159.74 1060.49,-175.47 1115.37,-191.25 1121.25,-192.94 1127.31,-194.74 1133.39,-196.6"/>
<polygon fill="#e65100" stroke="#e65100" stroke-width="1.7" points="1132.04,-199.85 1142.63,-199.46 1134.11,-193.16 1132.04,-199.85"/>
<text xml:space="preserve" text-anchor="middle" x="1067.37" y="-192.45" font-family="Helvetica,sans-Serif" font-size="9.00"> control PULLS</text>
</g>
</g>
</svg>
