<?xml version="1.0" encoding="UTF-8" standalone="no"?>
<!DOCTYPE svg PUBLIC "-//W3C//DTD SVG 1.1//EN"
 "http://www.w3.org/Graphics/SVG/1.1/DTD/svg11.dtd">
<!-- Generated by graphviz version 14.1.4 (20260321.0153)
 -->
<!-- Title: supply_chain Pages: 1 -->
<svg width="2128pt" height="287pt"
 viewBox="0.00 0.00 2128.00 287.00" xmlns="http://www.w3.org/2000/svg" xmlns:xlink="http://www.w3.org/1999/xlink">
<g id="graph0" class="graph" transform="scale(1 1) rotate(0) translate(28.8 257.8)">
<title>supply_chain</title>
<polygon fill="white" stroke="none" points="-28.8,28.8 -28.8,-257.8 2099.32,-257.8 2099.32,28.8 -28.8,28.8"/>
<text xml:space="preserve" text-anchor="start" x="878.51" y="-215.55" font-family="Helvetica,sans-Serif" font-weight="bold" font-size="11.00">MalAnalyzer &#45; Supply Chain &amp; Offline Trust (with revocation)</text>
<text xml:space="preserve" text-anchor="start" x="687.63" y="-205.5" font-family="Helvetica,sans-Serif" font-size="10.00">Threshold/witnessed signing so no single key forges; reproducible builds; and an offline revocation feed so a leaked key can&#39;t sign a bundle that verifies forever.</text>
<g id="clust1" class="cluster">
<title>cluster_build</title>
<path fill="#e3f2fd" stroke="#1565c0" stroke-width="1.8" d="M20,-112C20,-112 537.66,-112 537.66,-112 543.66,-112 549.66,-118 549.66,-124 549.66,-124 549.66,-180 549.66,-180 549.66,-186 543.66,-192 537.66,-192 537.66,-192 20,-192 20,-192 14,-192 8,-186 8,-180 8,-180 8,-124 8,-124 8,-118 14,-112 20,-112"/>
<text xml:space="preserve" text-anchor="start" x="218.45" y="-178.55" font-family="Helvetica,sans-Serif" font-weight="bold" font-size="11.00" fill="#0d47a1">BUILD (trusted, online)</text>
</g>
<g id="clust2" class="cluster">
<title>cluster_site</title>
<path fill="#e8f5e9" stroke="#2e7d32" stroke-width="1.8" d="M1210.43,-63C1210.43,-63 1735.8,-63 1735.8,-63 1741.8,-63 1747.8,-69 1747.8,-75 1747.8,-75 1747.8,-137 1747.8,-137 1747.8,-143 1741.8,-149 1735.8,-149 1735.8,-149 1210.43,-149 1210.43,-149 1204.43,-149 1198.43,-143 1198.43,-137 1198.43,-137 1198.43,-75 1198.43,-75 1198.43,-69 1204.43,-63 1210.43,-63"/>
<text xml:space="preserve" text-anchor="start" x="1423.99" y="-135.55" font-family="Helvetica,sans-Serif" font-weight="bold" font-size="11.00" fill="#1b5e20">AIR&#45;GAPPED SITE</text>
</g>
<g id="clust3" class="cluster">
<title>cluster_trust</title>
<path fill="white" stroke="#c62828" stroke-width="1.6" stroke-dasharray="5,2" d="M906.03,-8C906.03,-8 1020.28,-8 1020.28,-8 1026.28,-8 1032.28,-14 1032.28,-20 1032.28,-20 1032.28,-76 1032.28,-76 1032.28,-82 1026.28,-88 1020.28,-88 1020.28,-88 906.03,-88 906.03,-88 900.03,-88 894.03,-82 894.03,-76 894.03,-76 894.03,-20 894.03,-20 894.03,-14 900.03,-8 906.03,-8"/>
<text xml:space="preserve" text-anchor="start" x="902.03" y="-74.55" font-family="Helvetica,sans-Serif" font-weight="bold" font-size="11.00" fill="#b71c1c">OFFLINE TRUST ROOT</text>
</g>
<!-- REPRO -->
<g id="node1" class="node">
<title>REPRO</title>
<path fill="#bbdefb" stroke="#1565c0" stroke-width="1.4" d="M147.97,-160C147.97,-160 28,-160 28,-160 22,-160 16,-154 16,-148 16,-148 16,-136 16,-136 16,-130 22,-124 28,-124 28,-124 147.97,-124 147.97,-124 153.97,-124 159.97,-130 159.97,-136 159.97,-136 159.97,-148 159.97,-148 159.97,-154 153.97,-160 147.97,-160"/>
<text xml:space="preserve" text-anchor="middle" x="87.98" y="-143.75" font-family="Helvetica,sans-Serif" font-size="10.00">Reproducible build</text>
<text xml:space="preserve" text-anchor="middle" x="87.98" y="-132.5" font-family="Helvetica,sans-Serif" font-size="10.00">(independent rebuild&#45;and&#45;diff)</text>
</g>
<!-- SBOM -->
<g id="node2" class="node">
<title>SBOM</title>
<path fill="#bbdefb" stroke="#1565c0" stroke-width="1.4" d="M327.19,-160C327.19,-160 216.97,-160 216.97,-160 210.97,-160 204.97,-154 204.97,-148 204.97,-148 204.97,-136 204.97,-136 204.97,-130 210.97,-124 216.97,-124 216.97,-124 327.19,-124 327.19,-124 333.19,-124 339.19,-130 339.19,-136 339.19,-136 339.19,-148 339.19,-148 339.19,-154 333.19,-160 327.19,-160"/>
<text xml:space="preserve" text-anchor="middle" x="272.08" y="-143.75" font-family="Helvetica,sans-Serif" font-size="10.00">SBOM (Syft / CycloneDX)</text>
<text xml:space="preserve" text-anchor="middle" x="272.08" y="-132.5" font-family="Helvetica,sans-Serif" font-size="10.00">pinned + vetted deps</text>
</g>
<!-- REPRO&#45;&gt;SBOM -->
<g id="edge1" class="edge">
<title>REPRO&#45;&gt;SBOM</title>
<path fill="none" stroke="#37474f" stroke-width="1.2" d="M160.43,-142C171.04,-142 182.02,-142 192.77,-142"/>
<polygon fill="#37474f" stroke="#37474f" stroke-width="1.2" points="192.48,-145.5 202.48,-142 192.48,-138.5 192.48,-145.5"/>
</g>
<!-- ATTEST -->
<g id="node3" class="node">
<title>ATTEST</title>
<path fill="#bbdefb" stroke="#1565c0" stroke-width="1.4" d="M529.66,-163.91C529.66,-163.91 396.19,-163.91 396.19,-163.91 390.19,-163.91 384.19,-157.91 384.19,-151.91 384.19,-151.91 384.19,-132.09 384.19,-132.09 384.19,-126.09 390.19,-120.09 396.19,-120.09 396.19,-120.09 529.66,-120.09 529.66,-120.09 535.66,-120.09 541.66,-126.09 541.66,-132.09 541.66,-132.09 541.66,-151.91 541.66,-151.91 541.66,-157.91 535.66,-163.91 529.66,-163.91"/>
<text xml:space="preserve" text-anchor="middle" x="462.92" y="-149.38" font-family="Helvetica,sans-Serif" font-size="10.00">in&#45;toto attestations</text>
<text xml:space="preserve" text-anchor="middle" x="462.92" y="-138.12" font-family="Helvetica,sans-Serif" font-size="10.00">+ threshold / witness co&#45;signing</text>
<text xml:space="preserve" text-anchor="middle" x="462.92" y="-126.88" font-family="Helvetica,sans-Serif" font-size="10.00">(no single key can forge)</text>
</g>
<!-- SBOM&#45;&gt;ATTEST -->
<g id="edge2" class="edge">
<title>SBOM&#45;&gt;ATTEST</title>
<path fill="none" stroke="#37474f" stroke-width="1.2" d="M339.66,-142C350.11,-142 361.06,-142 371.93,-142"/>
<polygon fill="#37474f" stroke="#37474f" stroke-width="1.2" points="371.85,-145.5 381.85,-142 371.85,-138.5 371.85,-145.5"/>
</g>
<!-- BUNDLE -->
<g id="node4" class="node">
<title>BUNDLE</title>
<polygon fill="#cfd8dc" stroke="#546e7a" stroke-width="1.6" points="824.38,-163.91 821.38,-167.91 800.38,-167.91 797.38,-163.91 586.66,-163.91 586.66,-120.09 824.38,-120.09 824.38,-163.91"/>
<text xml:space="preserve" text-anchor="middle" x="705.52" y="-149.38" font-family="Helvetica,sans-Serif" font-size="10.00">Signed offline bundle</text>
<text xml:space="preserve" text-anchor="middle" x="705.52" y="-138.12" font-family="Helvetica,sans-Serif" font-size="10.00">images + model weights (provenance + scanned)</text>
<text xml:space="preserve" text-anchor="middle" x="705.52" y="-126.88" font-family="Helvetica,sans-Serif" font-size="10.00">+ YARA/family/goodware corpora + signature DBs</text>
</g>
<!-- ATTEST&#45;&gt;BUNDLE -->
<g id="edge5" class="edge">
<title>ATTEST&#45;&gt;BUNDLE</title>
<path fill="none" stroke="#37474f" stroke-width="1.2" d="M549.66,-142C557.8,-142 566.16,-142 574.6,-142"/>
<polygon fill="#37474f" stroke="#37474f" stroke-width="1.2" points="574.36,-145.5 584.36,-142 574.36,-138.5 574.36,-145.5"/>
</g>
<!-- SNEAKER -->
<g id="node5" class="node">
<title>SNEAKER</title>
<polygon fill="#fff8e1" stroke="#e65100" stroke-width="1.4" points="1055.93,-174.58 907.55,-174.58 869.38,-109.42 1017.76,-109.42 1055.93,-174.58"/>
<text xml:space="preserve" text-anchor="middle" x="962.66" y="-143.75" font-family="Helvetica,sans-Serif" font-size="10.00">sneakernet</text>
<text xml:space="preserve" text-anchor="middle" x="962.66" y="-132.5" font-family="Helvetica,sans-Serif" font-size="10.00">(physical media)</text>
</g>
<!-- BUNDLE&#45;&gt;SNEAKER -->
<g id="edge6" class="edge">
<title>BUNDLE&#45;&gt;SNEAKER</title>
<path fill="none" stroke="#37474f" stroke-width="1.2" d="M825.13,-142C842.3,-142 859.69,-142 876.05,-142"/>
<polygon fill="#37474f" stroke="#37474f" stroke-width="1.2" points="875.94,-145.5 885.94,-142 875.94,-138.5 875.94,-145.5"/>
</g>
<!-- VERIFY -->
<g id="node6" class="node">
<title>VERIFY</title>
<path fill="#fff3e0" stroke="#e65100" stroke-width="1.8" d="M1460.11,-92.56C1460.11,-92.56 1460.11,-99.44 1460.11,-99.44 1460.11,-102.89 1456.73,-106.99 1453.35,-107.66 1453.35,-107.66 1392.56,-119.61 1392.56,-119.61 1389.19,-120.27 1382.36,-120.94 1378.92,-120.94 1378.92,-120.94 1287.62,-120.94 1287.62,-120.94 1284.18,-120.94 1277.35,-120.27 1273.98,-119.61 1273.98,-119.61 1213.19,-107.66 1213.19,-107.66 1209.81,-106.99 1206.43,-102.89 1206.43,-99.44 1206.43,-99.44 1206.43,-92.56 1206.43,-92.56 1206.43,-89.11 1209.81,-85.01 1213.19,-84.34 1213.19,-84.34 1273.98,-72.39 1273.98,-72.39 1277.35,-71.73 1284.18,-71.06 1287.62,-71.06 1287.62,-71.06 1378.92,-71.06 1378.92,-71.06 1382.36,-71.06 1389.19,-71.73 1392.56,-72.39 1392.56,-72.39 1453.35,-84.34 1453.35,-84.34 1456.73,-85.01 1460.11,-89.11 1460.11,-92.56"/>
<text xml:space="preserve" text-anchor="middle" x="1333.27" y="-97.75" font-family="Helvetica,sans-Serif" font-size="10.00" fill="#e65100">Verify signature + attestation</text>
<text xml:space="preserve" text-anchor="middle" x="1333.27" y="-86.5" font-family="Helvetica,sans-Serif" font-size="10.00" fill="#e65100">+ check against revocation epoch</text>
</g>
<!-- SNEAKER&#45;&gt;VERIFY -->
<g id="edge7" class="edge">
<title>SNEAKER&#45;&gt;VERIFY</title>
<path fill="none" stroke="#37474f" stroke-width="1.2" d="M1032.56,-133.4C1075.96,-127.99 1133.64,-120.79 1186.81,-114.15"/>
<polygon fill="#37474f" stroke="#37474f" stroke-width="1.2" points="1187.14,-117.64 1196.63,-112.93 1186.28,-110.69 1187.14,-117.64"/>
</g>
<!-- REG -->
<g id="node7" class="node">
<title>REG</title>
<path fill="#c8e6c9" stroke="#2e7d32" stroke-width="1.4" d="M1592.08,-114C1592.08,-114 1517.11,-114 1517.11,-114 1511.11,-114 1505.11,-108 1505.11,-102 1505.11,-102 1505.11,-90 1505.11,-90 1505.11,-84 1511.11,-78 1517.11,-78 1517.11,-78 1592.08,-78 1592.08,-78 1598.08,-78 1604.08,-84 1604.08,-90 1604.08,-90 1604.08,-102 1604.08,-102 1604.08,-108 1598.08,-114 1592.08,-114"/>
<text xml:space="preserve" text-anchor="middle" x="1554.59" y="-92.12" font-family="Helvetica,sans-Serif" font-size="10.00">air&#45;gapped registry</text>
</g>
<!-- VERIFY&#45;&gt;REG -->
<g id="edge3" class="edge">
<title>VERIFY&#45;&gt;REG</title>
<path fill="none" stroke="#37474f" stroke-width="1.2" d="M1460.9,-96C1471.96,-96 1482.78,-96 1492.9,-96"/>
<polygon fill="#37474f" stroke="#37474f" stroke-width="1.2" points="1492.62,-99.5 1502.62,-96 1492.62,-92.5 1492.62,-99.5"/>
</g>
<!-- DEPLOY -->
<g id="node8" class="node">
<title>DEPLOY</title>
<path fill="#c8e6c9" stroke="#2e7d32" stroke-width="1.4" d="M1727.8,-114C1727.8,-114 1661.08,-114 1661.08,-114 1655.08,-114 1649.08,-108 1649.08,-102 1649.08,-102 1649.08,-90 1649.08,-90 1649.08,-84 1655.08,-78 1661.08,-78 1661.08,-78 1727.8,-78 1727.8,-78 1733.8,-78 1739.8,-84 1739.8,-90 1739.8,-90 1739.8,-102 1739.8,-102 1739.8,-108 1733.8,-114 1727.8,-114"/>
<text xml:space="preserve" text-anchor="middle" x="1694.44" y="-92.12" font-family="Helvetica,sans-Serif" font-size="10.00">deploy / upgrade</text>
</g>
<!-- REG&#45;&gt;DEPLOY -->
<g id="edge4" class="edge">
<title>REG&#45;&gt;DEPLOY</title>
<path fill="none" stroke="#37474f" stroke-width="1.2" d="M1604.58,-96C1615.15,-96 1626.4,-96 1637.23,-96"/>
<polygon fill="#37474f" stroke="#37474f" stroke-width="1.2" points="1636.93,-99.5 1646.93,-96 1636.93,-92.5 1636.93,-99.5"/>
</g>
<!-- NOTE -->
<g id="node10" class="node">
<title>NOTE</title>
<polygon fill="#fff8e1" stroke="#e65100" stroke-width="1.4" points="2064.52,-120.54 1784.8,-120.54 1784.8,-71.46 2070.52,-71.46 2070.52,-114.54 2064.52,-120.54"/>
<polyline fill="none" stroke="#e65100" stroke-width="1.4" points="2064.52,-120.54 2064.52,-114.54"/>
<polyline fill="none" stroke="#e65100" stroke-width="1.4" points="2070.52,-114.54 2064.52,-114.54"/>
<text xml:space="preserve" text-anchor="middle" x="1927.66" y="-106.95" font-family="Helvetica,sans-Serif" font-size="9.00">Model weights are untrusted&#45;until&#45;verified: provenance&#45;pinned,</text>
<text xml:space="preserve" text-anchor="middle" x="1927.66" y="-97.2" font-family="Helvetica,sans-Serif" font-size="9.00">signed, scanned; loading arbitrary weights is a privileged, audited</text>
<text xml:space="preserve" text-anchor="middle" x="1927.66" y="-87.45" font-family="Helvetica,sans-Serif" font-size="9.00">action. Leaked&#45;key window is bounded by the revocation epoch +</text>
<text xml:space="preserve" text-anchor="middle" x="1927.66" y="-77.7" font-family="Helvetica,sans-Serif" font-size="9.00">a max&#45;staleness policy, not zero (residual R11).</text>
</g>
<!-- DEPLOY&#45;&gt;NOTE -->
<!-- ROOT -->
<g id="node9" class="node">
<title>ROOT</title>
<path fill="#ffcdd2" stroke="#c62828" stroke-width="1.4" d="M1005.77,-59.91C1005.77,-59.91 919.55,-59.91 919.55,-59.91 913.55,-59.91 907.55,-53.91 907.55,-47.91 907.55,-47.91 907.55,-28.09 907.55,-28.09 907.55,-22.09 913.55,-16.09 919.55,-16.09 919.55,-16.09 1005.77,-16.09 1005.77,-16.09 1011.77,-16.09 1017.77,-22.09 1017.77,-28.09 1017.77,-28.09 1017.77,-47.91 1017.77,-47.91 1017.77,-53.91 1011.77,-59.91 1005.77,-59.91"/>
<text xml:space="preserve" text-anchor="middle" x="962.66" y="-45.38" font-family="Helvetica,sans-Serif" font-size="10.00">trust root + signed</text>
<text xml:space="preserve" text-anchor="middle" x="962.66" y="-34.12" font-family="Helvetica,sans-Serif" font-size="10.00">revocation list</text>
<text xml:space="preserve" text-anchor="middle" x="962.66" y="-22.88" font-family="Helvetica,sans-Serif" font-size="10.00">MONOTONIC epoch</text>
</g>
<!-- ROOT&#45;&gt;SNEAKER -->
<g id="edge8" class="edge">
<title>ROOT&#45;&gt;SNEAKER</title>
<path fill="none" stroke="#c62828" stroke-width="1.2" stroke-dasharray="5,2" d="M962.66,-60.34C962.66,-72.59 962.66,-84.84 962.66,-97.09"/>
<polygon fill="#c62828" stroke="#c62828" stroke-width="1.2" points="959.16,-97.01 962.66,-107.01 966.16,-97.01 959.16,-97.01"/>
</g>
<!-- ROOT&#45;&gt;VERIFY -->
<g id="edge9" class="edge">
<title>ROOT&#45;&gt;VERIFY</title>
<path fill="none" stroke="#c62828" stroke-width="1.2" stroke-dasharray="5,2" d="M1018.44,-46.62C1062.95,-53.62 1127.83,-63.83 1187.06,-73.15"/>
<polygon fill="#c62828" stroke="#c62828" stroke-width="1.2" points="1186.22,-76.56 1196.64,-74.66 1187.31,-69.65 1186.22,-76.56"/>
<text xml:space="preserve" text-anchor="middle" x="1131.18" y="-83.14" font-family="Helvetica,sans-Serif" font-size="9.00" fill="#b71c1c"> fail&#45;closed on stale epoch</text>
<text xml:space="preserve" text-anchor="middle" x="1131.18" y="-73.39" font-family="Helvetica,sans-Serif" font-size="9.00" fill="#b71c1c"> or revoked key</text>
</g>
</g>
</svg>
