<?xml version="1.0" encoding="UTF-8" standalone="no"?>
<!DOCTYPE svg PUBLIC "-//W3C//DTD SVG 1.1//EN"
 "http://www.w3.org/Graphics/SVG/1.1/DTD/svg11.dtd">
<!-- Generated by graphviz version 14.1.4 (20260321.0153)
 -->
<!-- Title: pipeline Pages: 1 -->
<svg width="2228pt" height="606pt"
 viewBox="0.00 0.00 2228.00 606.00" xmlns="http://www.w3.org/2000/svg" xmlns:xlink="http://www.w3.org/1999/xlink">
<g id="graph0" class="graph" transform="scale(1 1) rotate(0) translate(25.2 580.52)">
<title>pipeline</title>
<polygon fill="white" stroke="none" points="-25.2,25.2 -25.2,-580.52 2202.8,-580.52 2202.8,25.2 -25.2,25.2"/>
<text xml:space="preserve" text-anchor="start" x="993.55" y="-541.87" font-family="Helvetica,sans-Serif" font-weight="bold" font-size="11.00">OpenMalLab &#45; Submission to Verdict</text>
<text xml:space="preserve" text-anchor="start" x="846.18" y="-531.82" font-family="Helvetica,sans-Serif" font-size="10.00">content&#45;address, walk the tree in jails, validate at the broker, fold fail&#45;closed; the AI enriches but never disposes</text>
<g id="clust1" class="cluster">
<title>cluster_control</title>
<path fill="#eef6f0" stroke="#2f8f63" d="M786,-237.17C786,-237.17 1293,-237.17 1293,-237.17 1299,-237.17 1305,-243.17 1305,-249.17 1305,-249.17 1305,-426.46 1305,-426.46 1305,-432.46 1299,-438.46 1293,-438.46 1293,-438.46 786,-438.46 786,-438.46 780,-438.46 774,-432.46 774,-426.46 774,-426.46 774,-249.17 774,-249.17 774,-243.17 780,-237.17 786,-237.17"/>
<text xml:space="preserve" text-anchor="start" x="847.5" y="-425.01" font-family="Helvetica,sans-Serif" font-weight="bold" font-size="11.00" fill="#1b5e20">CONTROL PLANE</text>
<text xml:space="preserve" text-anchor="start" x="943.5" y="-425.01" font-family="Helvetica,sans-Serif" font-size="11.00" fill="#1b5e20"> &#160;(trusted; never executes or parses hostile bytes in&#45;process)</text>
</g>
<g id="clust2" class="cluster">
<title>cluster_jail</title>
<path fill="#eef1f8" stroke="#2f628f" d="M20,-119.03C20,-119.03 973,-119.03 973,-119.03 979,-119.03 985,-125.03 985,-131.03 985,-131.03 985,-179.03 985,-179.03 985,-185.03 979,-191.03 973,-191.03 973,-191.03 20,-191.03 20,-191.03 14,-191.03 8,-185.03 8,-179.03 8,-179.03 8,-131.03 8,-131.03 8,-125.03 14,-119.03 20,-119.03"/>
<text xml:space="preserve" text-anchor="start" x="238.88" y="-177.58" font-family="Helvetica,sans-Serif" font-weight="bold" font-size="11.00" fill="#0d47a1">SINGLE&#45;USE JAILS</text>
<text xml:space="preserve" text-anchor="start" x="341.62" y="-177.58" font-family="Helvetica,sans-Serif" font-size="11.00" fill="#0d47a1"> &#160;(network none, all caps dropped, read&#45;only root, non&#45;root 65534, seccomp, bounded)</text>
</g>
<g id="clust3" class="cluster">
<title>cluster_ai</title>
<path fill="#f8f2f2" stroke="#c73338" d="M1135,-8C1135,-8 1522,-8 1522,-8 1528,-8 1534,-14 1534,-20 1534,-20 1534,-183.67 1534,-183.67 1534,-189.67 1528,-195.67 1522,-195.67 1522,-195.67 1135,-195.67 1135,-195.67 1129,-195.67 1123,-189.67 1123,-183.67 1123,-183.67 1123,-20 1123,-20 1123,-14 1129,-8 1135,-8"/>
<text xml:space="preserve" text-anchor="start" x="1130.88" y="-182.22" font-family="Helvetica,sans-Serif" font-weight="bold" font-size="11.00" fill="#b71c1c">AI&#45;ANALYST PLANE</text>
<text xml:space="preserve" text-anchor="start" x="1238.88" y="-182.22" font-family="Helvetica,sans-Serif" font-size="11.00" fill="#b71c1c"> &#160;(isolated, no egress, untrusted; off unless a model is wired)</text>
</g>
<!-- AN -->
<g id="node1" class="node">
<title>AN</title>
<ellipse fill="#e6dcf1" stroke="#6a1b9a" cx="1202" cy="-502.26" rx="122.97" ry="24.06"/>
<text xml:space="preserve" text-anchor="middle" x="1202" y="-504.01" font-family="Helvetica,sans-Serif" font-size="10.00">analyst</text>
<text xml:space="preserve" text-anchor="middle" x="1202" y="-492.76" font-family="Helvetica,sans-Serif" font-size="10.00">(submit file, optional detonate=true)</text>
</g>
<!-- GW -->
<g id="node2" class="node">
<title>GW</title>
<path fill="#dff0e6" stroke="#3d4757" d="M1281.83,-410.46C1281.83,-410.46 1122.17,-410.46 1122.17,-410.46 1116.17,-410.46 1110.17,-404.46 1110.17,-398.46 1110.17,-398.46 1110.17,-377.19 1110.17,-377.19 1110.17,-371.19 1116.17,-365.19 1122.17,-365.19 1122.17,-365.19 1281.83,-365.19 1281.83,-365.19 1287.83,-365.19 1293.83,-371.19 1293.83,-377.19 1293.83,-377.19 1293.83,-398.46 1293.83,-398.46 1293.83,-404.46 1287.83,-410.46 1281.83,-410.46"/>
<text xml:space="preserve" text-anchor="middle" x="1202" y="-395.2" font-family="Helvetica,sans-Serif" font-size="10.00">mal&#45;gateway</text>
<text xml:space="preserve" text-anchor="middle" x="1202" y="-383.95" font-family="Helvetica,sans-Serif" font-size="10.00">hash + content&#45;address, 256 MiB cap</text>
<text xml:space="preserve" text-anchor="middle" x="1202" y="-372.7" font-family="Helvetica,sans-Serif" font-size="10.00">start workflow, read results</text>
</g>
<!-- AN&#45;&gt;GW -->
<g id="edge1" class="edge">
<title>AN&#45;&gt;GW</title>
<path fill="none" stroke="#4a5060" d="M1202,-477.97C1202,-461.9 1202,-440.29 1202,-422.37"/>
<polygon fill="#4a5060" stroke="#4a5060" points="1205.5,-422.46 1202,-412.46 1198.5,-422.46 1205.5,-422.46"/>
<text xml:space="preserve" text-anchor="middle" x="1247.75" y="-447.66" font-family="Helvetica,sans-Serif" font-size="9.00">POST /v1/submissions</text>
</g>
<!-- OR -->
<g id="node3" class="node">
<title>OR</title>
<path fill="#dff0e6" stroke="#3d4757" d="M972.21,-301.69C972.21,-301.69 793.79,-301.69 793.79,-301.69 787.79,-301.69 781.79,-295.69 781.79,-289.69 781.79,-289.69 781.79,-257.17 781.79,-257.17 781.79,-251.17 787.79,-245.17 793.79,-245.17 793.79,-245.17 972.21,-245.17 972.21,-245.17 978.21,-245.17 984.21,-251.17 984.21,-257.17 984.21,-257.17 984.21,-289.69 984.21,-289.69 984.21,-295.69 978.21,-301.69 972.21,-301.69"/>
<text xml:space="preserve" text-anchor="middle" x="883" y="-286.43" font-family="Helvetica,sans-Serif" font-size="10.00">mal&#45;orchestrator (Temporal worker)</text>
<text xml:space="preserve" text-anchor="middle" x="883" y="-275.18" font-family="Helvetica,sans-Serif" font-size="10.00">SubmissionWorkflow: BFS artifact tree</text>
<text xml:space="preserve" text-anchor="middle" x="883" y="-263.93" font-family="Helvetica,sans-Serif" font-size="10.00">(depth&lt;=8, &lt;=200 artifacts), spawns jails,</text>
<text xml:space="preserve" text-anchor="middle" x="883" y="-252.68" font-family="Helvetica,sans-Serif" font-size="10.00">re&#45;hashes children, fail&#45;closed fold</text>
</g>
<!-- GW&#45;&gt;OR -->
<g id="edge3" class="edge">
<title>GW&#45;&gt;OR</title>
<path fill="none" stroke="#4a5060" d="M1127.96,-364.73C1106.58,-358.08 1083.28,-350.58 1062,-343.19 1029.23,-331.8 993.48,-318.29 962.6,-306.27"/>
<polygon fill="#4a5060" stroke="#4a5060" points="963.89,-303.02 953.3,-302.64 961.34,-309.54 963.89,-303.02"/>
<text xml:space="preserve" text-anchor="middle" x="1126.5" y="-334.64" font-family="Helvetica,sans-Serif" font-size="9.00">start SubmissionWorkflow</text>
<text xml:space="preserve" text-anchor="middle" x="1126.5" y="-324.89" font-family="Helvetica,sans-Serif" font-size="9.00">(hash, path, filename, detonate)</text>
</g>
<!-- VAULT -->
<g id="node4" class="node">
<title>VAULT</title>
<path fill="#e3ece6" stroke="#3d4757" d="M1296.83,-292.56C1296.83,-294.91 1250.29,-296.82 1193,-296.82 1135.71,-296.82 1089.17,-294.91 1089.17,-292.56 1089.17,-292.56 1089.17,-254.29 1089.17,-254.29 1089.17,-251.95 1135.71,-250.04 1193,-250.04 1250.29,-250.04 1296.83,-251.95 1296.83,-254.29 1296.83,-254.29 1296.83,-292.56 1296.83,-292.56"/>
<path fill="none" stroke="#3d4757" d="M1296.83,-292.56C1296.83,-290.22 1250.29,-288.31 1193,-288.31 1135.71,-288.31 1089.17,-290.22 1089.17,-292.56"/>
<text xml:space="preserve" text-anchor="middle" x="1193" y="-275.18" font-family="Helvetica,sans-Serif" font-size="10.00">sample vault</text>
<text xml:space="preserve" text-anchor="middle" x="1193" y="-263.93" font-family="Helvetica,sans-Serif" font-size="10.00">content&#45;addressed by sha256, chmod 0600</text>
</g>
<!-- GW&#45;&gt;VAULT -->
<g id="edge2" class="edge">
<title>GW&#45;&gt;VAULT</title>
<path fill="none" stroke="#4a5060" d="M1200.24,-364.89C1198.96,-348.85 1197.19,-326.79 1195.73,-308.48"/>
<polygon fill="#4a5060" stroke="#4a5060" points="1199.22,-308.28 1194.93,-298.59 1192.24,-308.84 1199.22,-308.28"/>
<text xml:space="preserve" text-anchor="middle" x="1232.43" y="-329.76" font-family="Helvetica,sans-Serif" font-size="9.00">stream + sha256</text>
</g>
<!-- CON -->
<g id="node13" class="node">
<title>CON</title>
<ellipse fill="#e6dcf1" stroke="#6a1b9a" cx="1486" cy="-273.43" rx="163.81" ry="24.06"/>
<text xml:space="preserve" text-anchor="middle" x="1486" y="-275.18" font-family="Helvetica,sans-Serif" font-size="10.00">analyst console (mal&#45;web) + read API</text>
<text xml:space="preserve" text-anchor="middle" x="1486" y="-263.93" font-family="Helvetica,sans-Serif" font-size="10.00">ranked queue, recursive evidence tree, defanged</text>
</g>
<!-- GW&#45;&gt;CON -->
<g id="edge21" class="edge">
<title>GW&#45;&gt;CON</title>
<path fill="none" stroke="#4a5060" d="M1257.77,-364.75C1304.27,-346.35 1370.63,-320.08 1419.82,-300.62"/>
<polygon fill="#4a5060" stroke="#4a5060" points="1420.94,-303.94 1428.95,-297.01 1418.36,-297.43 1420.94,-303.94"/>
<text xml:space="preserve" text-anchor="middle" x="1434.13" y="-329.76" font-family="Helvetica,sans-Serif" font-size="9.00">GET /v1/submissions/{id}, /v1/queue</text>
</g>
<!-- OR&#45;&gt;VAULT -->
<g id="edge10" class="edge">
<title>OR&#45;&gt;VAULT</title>
<path fill="none" stroke="#8a94a6" d="M996.01,-273.43C1022.57,-273.43 1050.9,-273.43 1077.56,-273.43"/>
<polygon fill="#8a94a6" stroke="#8a94a6" points="996.02,-269.93 986.02,-273.43 996.02,-276.93 996.02,-269.93"/>
<polygon fill="#8a94a6" stroke="#8a94a6" points="1077.36,-276.93 1087.36,-273.43 1077.36,-269.93 1077.36,-276.93"/>
<text xml:space="preserve" text-anchor="middle" x="1036.69" y="-287.38" font-family="Helvetica,sans-Serif" font-size="9.00">one file, read&#45;only</text>
<text xml:space="preserve" text-anchor="middle" x="1036.69" y="-277.63" font-family="Helvetica,sans-Serif" font-size="9.00">via volume&#45;subpath</text>
</g>
<!-- ID -->
<g id="node5" class="node">
<title>ID</title>
<path fill="#f2f4f8" stroke="#3d4757" d="M965.33,-163.03C965.33,-163.03 880.67,-163.03 880.67,-163.03 874.67,-163.03 868.67,-157.03 868.67,-151.03 868.67,-151.03 868.67,-139.03 868.67,-139.03 868.67,-133.03 874.67,-127.03 880.67,-127.03 880.67,-127.03 965.33,-127.03 965.33,-127.03 971.33,-127.03 977.33,-133.03 977.33,-139.03 977.33,-139.03 977.33,-151.03 977.33,-151.03 977.33,-157.03 971.33,-163.03 965.33,-163.03"/>
<text xml:space="preserve" text-anchor="middle" x="923" y="-146.78" font-family="Helvetica,sans-Serif" font-size="10.00">mal&#45;ident</text>
<text xml:space="preserve" text-anchor="middle" x="923" y="-135.53" font-family="Helvetica,sans-Serif" font-size="10.00">Magika content type</text>
</g>
<!-- OR&#45;&gt;ID -->
<g id="edge4" class="edge">
<title>OR&#45;&gt;ID</title>
<path fill="none" stroke="#4a5060" d="M891.78,-244.69C898.41,-223.72 907.49,-195.05 914.14,-174.02"/>
<polygon fill="#4a5060" stroke="#4a5060" points="917.42,-175.25 917.1,-164.66 910.75,-173.14 917.42,-175.25"/>
</g>
<!-- YA -->
<g id="node6" class="node">
<title>YA</title>
<path fill="#f2f4f8" stroke="#3d4757" d="M108.08,-163.03C108.08,-163.03 27.92,-163.03 27.92,-163.03 21.92,-163.03 15.92,-157.03 15.92,-151.03 15.92,-151.03 15.92,-139.03 15.92,-139.03 15.92,-133.03 21.92,-127.03 27.92,-127.03 27.92,-127.03 108.08,-127.03 108.08,-127.03 114.08,-127.03 120.08,-133.03 120.08,-139.03 120.08,-139.03 120.08,-151.03 120.08,-151.03 120.08,-157.03 114.08,-163.03 108.08,-163.03"/>
<text xml:space="preserve" text-anchor="middle" x="68" y="-146.78" font-family="Helvetica,sans-Serif" font-size="10.00">mal&#45;static&#45;yara</text>
<text xml:space="preserve" text-anchor="middle" x="68" y="-135.53" font-family="Helvetica,sans-Serif" font-size="10.00">YARA&#45;X signatures</text>
</g>
<!-- OR&#45;&gt;YA -->
<g id="edge5" class="edge">
<title>OR&#45;&gt;YA</title>
<path fill="none" stroke="#4a5060" d="M781.6,-269.19C604.57,-262.37 247.05,-243.05 132,-195.67 118.08,-189.94 104.62,-180.32 93.66,-171.07"/>
<polygon fill="#4a5060" stroke="#4a5060" points="96.02,-168.49 86.22,-164.49 91.38,-173.74 96.02,-168.49"/>
</g>
<!-- EX -->
<g id="node7" class="node">
<title>EX</title>
<path fill="#f2f4f8" stroke="#3d4757" d="M831.33,-163.03C831.33,-163.03 698.67,-163.03 698.67,-163.03 692.67,-163.03 686.67,-157.03 686.67,-151.03 686.67,-151.03 686.67,-139.03 686.67,-139.03 686.67,-133.03 692.67,-127.03 698.67,-127.03 698.67,-127.03 831.33,-127.03 831.33,-127.03 837.33,-127.03 843.33,-133.03 843.33,-139.03 843.33,-139.03 843.33,-151.03 843.33,-151.03 843.33,-157.03 837.33,-163.03 831.33,-163.03"/>
<text xml:space="preserve" text-anchor="middle" x="765" y="-146.78" font-family="Helvetica,sans-Serif" font-size="10.00">mal&#45;extract</text>
<text xml:space="preserve" text-anchor="middle" x="765" y="-135.53" font-family="Helvetica,sans-Serif" font-size="10.00">recursive unpack (writable /out)</text>
</g>
<!-- OR&#45;&gt;EX -->
<g id="edge6" class="edge">
<title>OR&#45;&gt;EX</title>
<path fill="none" stroke="#4a5060" d="M857.1,-244.69C836.71,-222.85 808.52,-192.65 788.71,-171.43"/>
<polygon fill="#4a5060" stroke="#4a5060" points="791.46,-169.25 782.08,-164.33 786.34,-174.02 791.46,-169.25"/>
</g>
<!-- CA -->
<g id="node8" class="node">
<title>CA</title>
<path fill="#f2f4f8" stroke="#3d4757" d="M311.2,-163.03C311.2,-163.03 156.8,-163.03 156.8,-163.03 150.8,-163.03 144.8,-157.03 144.8,-151.03 144.8,-151.03 144.8,-139.03 144.8,-139.03 144.8,-133.03 150.8,-127.03 156.8,-127.03 156.8,-127.03 311.2,-127.03 311.2,-127.03 317.2,-127.03 323.2,-133.03 323.2,-139.03 323.2,-139.03 323.2,-151.03 323.2,-151.03 323.2,-157.03 317.2,-163.03 311.2,-163.03"/>
<text xml:space="preserve" text-anchor="middle" x="234" y="-146.78" font-family="Helvetica,sans-Serif" font-size="10.00">mal&#45;capa</text>
<text xml:space="preserve" text-anchor="middle" x="234" y="-135.53" font-family="Helvetica,sans-Serif" font-size="10.00">capa ATT&amp;CK / MBC &#160;(executables)</text>
</g>
<!-- OR&#45;&gt;CA -->
<g id="edge7" class="edge">
<title>OR&#45;&gt;CA</title>
<path fill="none" stroke="#4a5060" d="M781.3,-269.06C669.38,-262.88 485.4,-245.35 335,-195.67 314.12,-188.77 292.08,-178.35 273.94,-168.83"/>
<polygon fill="#4a5060" stroke="#4a5060" points="275.82,-165.86 265.35,-164.23 272.51,-172.03 275.82,-165.86"/>
</g>
<!-- FL -->
<g id="node9" class="node">
<title>FL</title>
<path fill="#f2f4f8" stroke="#3d4757" d="M446.08,-163.03C446.08,-163.03 359.92,-163.03 359.92,-163.03 353.92,-163.03 347.92,-157.03 347.92,-151.03 347.92,-151.03 347.92,-139.03 347.92,-139.03 347.92,-133.03 353.92,-127.03 359.92,-127.03 359.92,-127.03 446.08,-127.03 446.08,-127.03 452.08,-127.03 458.08,-133.03 458.08,-139.03 458.08,-139.03 458.08,-151.03 458.08,-151.03 458.08,-157.03 452.08,-163.03 446.08,-163.03"/>
<text xml:space="preserve" text-anchor="middle" x="403" y="-146.78" font-family="Helvetica,sans-Serif" font-size="10.00">mal&#45;floss</text>
<text xml:space="preserve" text-anchor="middle" x="403" y="-135.53" font-family="Helvetica,sans-Serif" font-size="10.00">string recovery &#160;(PE)</text>
</g>
<!-- OR&#45;&gt;FL -->
<g id="edge8" class="edge">
<title>OR&#45;&gt;FL</title>
<path fill="none" stroke="#4a5060" d="M781.66,-266.39C695.68,-258.31 570.63,-239.49 470,-195.67 455.76,-189.47 441.68,-179.74 430.14,-170.54"/>
<polygon fill="#4a5060" stroke="#4a5060" points="432.56,-168 422.63,-164.31 428.09,-173.39 432.56,-168"/>
</g>
<!-- DE -->
<g id="node10" class="node">
<title>DE</title>
<path fill="#e6ecf6" stroke="#3d4757" stroke-dasharray="5,2" d="M649.21,-163.03C649.21,-163.03 494.8,-163.03 494.8,-163.03 488.8,-163.03 482.8,-157.03 482.8,-151.03 482.8,-151.03 482.8,-139.03 482.8,-139.03 482.8,-133.03 488.8,-127.03 494.8,-127.03 494.8,-127.03 649.21,-127.03 649.21,-127.03 655.21,-127.03 661.21,-133.03 661.21,-139.03 661.21,-139.03 661.21,-151.03 661.21,-151.03 661.21,-157.03 655.21,-163.03 649.21,-163.03"/>
<text xml:space="preserve" text-anchor="middle" x="572" y="-146.78" font-family="Helvetica,sans-Serif" font-size="10.00">mal&#45;detonate &#160;[WIP]</text>
<text xml:space="preserve" text-anchor="middle" x="572" y="-135.53" font-family="Helvetica,sans-Serif" font-size="10.00">qemu&#45;user &#45;strace &#160;(opt&#45;in, root ELF)</text>
</g>
<!-- OR&#45;&gt;DE -->
<g id="edge9" class="edge">
<title>OR&#45;&gt;DE</title>
<path fill="none" stroke="#7d9bbb" stroke-dasharray="5,2" d="M801.62,-244.69C762.64,-230.86 715.52,-213.34 674,-195.67 654.61,-187.42 633.61,-177.39 615.73,-168.52"/>
<polygon fill="#7d9bbb" stroke="#7d9bbb" points="617.47,-165.47 606.96,-164.12 614.33,-171.73 617.47,-165.47"/>
</g>
<!-- LAT -->
<g id="node12" class="node">
<title>LAT</title>
<path fill="#fde9d0" stroke="#c76a1a" d="M2093.41,-140.25C2093.41,-140.25 2093.41,-149.82 2093.41,-149.82 2093.41,-154.6 2088.67,-160.01 2083.92,-160.63 2083.92,-160.63 1948.59,-178.43 1948.59,-178.43 1943.85,-179.06 1934.32,-179.68 1929.54,-179.68 1929.54,-179.68 1730.46,-179.68 1730.46,-179.68 1725.68,-179.68 1716.15,-179.06 1711.41,-178.43 1711.41,-178.43 1576.08,-160.63 1576.08,-160.63 1571.33,-160.01 1566.59,-154.6 1566.59,-149.82 1566.59,-149.82 1566.59,-140.25 1566.59,-140.25 1566.59,-135.47 1571.33,-130.06 1576.08,-129.43 1576.08,-129.43 1711.41,-111.63 1711.41,-111.63 1716.15,-111.01 1725.68,-110.39 1730.46,-110.39 1730.46,-110.39 1929.54,-110.38 1929.54,-110.38 1934.32,-110.38 1943.85,-111.01 1948.59,-111.63 1948.59,-111.63 2083.92,-129.43 2083.92,-129.43 2088.67,-130.06 2093.41,-135.47 2093.41,-140.25"/>
<text xml:space="preserve" text-anchor="middle" x="1830" y="-152.41" font-family="Helvetica,sans-Serif" font-size="10.00">fail&#45;closed lattice + triage score</text>
<text xml:space="preserve" text-anchor="middle" x="1830" y="-141.16" font-family="Helvetica,sans-Serif" font-size="10.00">BENIGN &lt; UNKNOWN &lt; SUSPICIOUS &lt; MALICIOUS &#160;(monotone max)</text>
<text xml:space="preserve" text-anchor="middle" x="1830" y="-129.91" font-family="Helvetica,sans-Serif" font-size="10.00">orthogonal LOW/MED/HIGH confidence + 0&#45;100 score</text>
</g>
<!-- OR&#45;&gt;LAT -->
<g id="edge19" class="edge">
<title>OR&#45;&gt;LAT</title>
<path fill="none" stroke="#4a5060" d="M984.55,-251.18C1014.22,-245.73 1046.8,-240.48 1077,-237.17 1237.05,-219.62 1279.09,-241.92 1439,-223.17 1522.01,-213.44 1613.74,-195.71 1687.48,-179.71"/>
<polygon fill="#4a5060" stroke="#4a5060" points="1688.19,-183.14 1697.21,-177.58 1686.7,-176.3 1688.19,-183.14"/>
<text xml:space="preserve" text-anchor="middle" x="1592.96" y="-209.74" font-family="Helvetica,sans-Serif" font-size="9.00">fold every finding</text>
</g>
<!-- AG -->
<g id="node14" class="node">
<title>AG</title>
<path fill="#f4e6e6" stroke="#3d4757" d="M1376.7,-167.67C1376.7,-167.67 1147.3,-167.67 1147.3,-167.67 1141.3,-167.67 1135.3,-161.67 1135.3,-155.67 1135.3,-155.67 1135.3,-134.4 1135.3,-134.4 1135.3,-128.4 1141.3,-122.4 1147.3,-122.4 1147.3,-122.4 1376.7,-122.4 1376.7,-122.4 1382.7,-122.4 1388.7,-128.4 1388.7,-134.4 1388.7,-134.4 1388.7,-155.67 1388.7,-155.67 1388.7,-161.67 1382.7,-167.67 1376.7,-167.67"/>
<text xml:space="preserve" text-anchor="middle" x="1262" y="-152.41" font-family="Helvetica,sans-Serif" font-size="10.00">AgentGraphWorkflow &#160;(ABANDON child)</text>
<text xml:space="preserve" text-anchor="middle" x="1262" y="-141.16" font-family="Helvetica,sans-Serif" font-size="10.00">Pydantic&#45;AI roster &#45;&gt; Validate &#45;&gt; downgrade&#45;only gate</text>
<text xml:space="preserve" text-anchor="middle" x="1262" y="-129.91" font-family="Helvetica,sans-Serif" font-size="10.00">see agentic&#45;plane.dot for the full plane</text>
</g>
<!-- OR&#45;&gt;AG -->
<g id="edge22" class="edge">
<title>OR&#45;&gt;AG</title>
<path fill="none" stroke="#c73338" stroke-dasharray="5,2" d="M977.63,-244.7C1000.11,-237.87 1023.96,-230.43 1046,-223.17 1095.06,-207.01 1149.85,-187.42 1191.98,-172.03"/>
<polygon fill="#c73338" stroke="#c73338" points="1193.07,-175.36 1201.26,-168.63 1190.66,-168.78 1193.07,-175.36"/>
<text xml:space="preserve" text-anchor="middle" x="1153.26" y="-214.62" font-family="Helvetica,sans-Serif" font-size="9.00">fire&#45;and&#45;forget after verdict</text>
<text xml:space="preserve" text-anchor="middle" x="1153.26" y="-204.87" font-family="Helvetica,sans-Serif" font-size="9.00">(MAL_AGENTS_URL set)</text>
</g>
<!-- BR -->
<g id="node11" class="node">
<title>BR</title>
<path fill="#fff3d6" stroke="#a9761a" d="M679.58,-56.63C679.58,-56.63 464.42,-56.63 464.42,-56.63 458.42,-56.63 452.42,-50.63 452.42,-44.63 452.42,-44.63 452.42,-23.37 452.42,-23.37 452.42,-17.37 458.42,-11.37 464.42,-11.37 464.42,-11.37 679.58,-11.37 679.58,-11.37 685.58,-11.37 691.58,-17.37 691.58,-23.37 691.58,-23.37 691.58,-44.63 691.58,-44.63 691.58,-50.63 685.58,-56.63 679.58,-56.63"/>
<text xml:space="preserve" text-anchor="middle" x="572" y="-41.38" font-family="Helvetica,sans-Serif" font-size="10.00">mal&#45;broker (jailed, zero mounts, zero network)</text>
<text xml:space="preserve" text-anchor="middle" x="572" y="-30.12" font-family="Helvetica,sans-Serif" font-size="10.00">strict JSON, unknown&#45;field reject, hard size caps</text>
<text xml:space="preserve" text-anchor="middle" x="572" y="-18.88" font-family="Helvetica,sans-Serif" font-size="10.00">the ONE and ONLY decode path for worker output</text>
</g>
<!-- ID&#45;&gt;BR -->
<g id="edge11" class="edge">
<title>ID&#45;&gt;BR</title>
<path fill="none" stroke="#4a5060" d="M891.57,-126.57C880.54,-120.9 867.93,-114.91 856,-110.38 801.56,-89.74 739.21,-72.52 686.83,-59.78"/>
<polygon fill="#4a5060" stroke="#4a5060" points="687.82,-56.41 677.28,-57.48 686.19,-63.22 687.82,-56.41"/>
</g>
<!-- YA&#45;&gt;BR -->
<g id="edge12" class="edge">
<title>YA&#45;&gt;BR</title>
<path fill="none" stroke="#4a5060" d="M96.45,-126.62C107.25,-120.67 119.87,-114.5 132,-110.38 232.83,-76.2 352.15,-57 441.08,-46.54"/>
<polygon fill="#4a5060" stroke="#4a5060" points="441.28,-50.04 450.81,-45.42 440.48,-43.09 441.28,-50.04"/>
</g>
<!-- EX&#45;&gt;OR -->
<g id="edge18" class="edge">
<title>EX&#45;&gt;OR</title>
<path fill="none" stroke="#a9761a" d="M789.12,-163.4C806.71,-174.99 831.64,-189.23 856,-195.67 868.22,-198.9 1302.14,-194.65 1311,-203.67 1317.07,-209.85 1316.94,-216.86 1311,-223.17 1293.14,-242.13 1102.86,-234.06 1077,-237.17 1050.61,-240.34 1022.37,-244.84 995.85,-249.56"/>
<polygon fill="#a9761a" stroke="#a9761a" points="995.3,-246.1 986.08,-251.32 996.55,-252.99 995.3,-246.1"/>
<text xml:space="preserve" text-anchor="middle" x="1374.38" y="-214.62" font-family="Helvetica,sans-Serif" font-size="9.00">children: re&#45;hash,</text>
<text xml:space="preserve" text-anchor="middle" x="1374.38" y="-204.87" font-family="Helvetica,sans-Serif" font-size="9.00">symlink/TOCTOU&#45;safe ingest</text>
</g>
<!-- EX&#45;&gt;BR -->
<g id="edge13" class="edge">
<title>EX&#45;&gt;BR</title>
<path fill="none" stroke="#4a5060" d="M734.42,-126.76C703.91,-109.52 656.57,-82.78 620.85,-62.6"/>
<polygon fill="#4a5060" stroke="#4a5060" points="622.86,-59.71 612.43,-57.84 619.41,-65.8 622.86,-59.71"/>
</g>
<!-- CA&#45;&gt;BR -->
<g id="edge14" class="edge">
<title>CA&#45;&gt;BR</title>
<path fill="none" stroke="#4a5060" d="M285.86,-126.61C301.62,-121.35 319.01,-115.59 335,-110.38 386.79,-93.52 445.08,-74.98 490.89,-60.5"/>
<polygon fill="#4a5060" stroke="#4a5060" points="491.74,-63.9 500.22,-57.55 489.63,-57.23 491.74,-63.9"/>
</g>
<!-- FL&#45;&gt;BR -->
<g id="edge15" class="edge">
<title>FL&#45;&gt;BR</title>
<path fill="none" stroke="#4a5060" d="M429.78,-126.76C456.26,-109.67 497.24,-83.23 528.42,-63.12"/>
<polygon fill="#4a5060" stroke="#4a5060" points="529.98,-66.28 536.48,-57.91 526.18,-60.4 529.98,-66.28"/>
</g>
<!-- DE&#45;&gt;BR -->
<g id="edge16" class="edge">
<title>DE&#45;&gt;BR</title>
<path fill="none" stroke="#7d9bbb" stroke-dasharray="5,2" d="M572,-127C572,-111.32 572,-87.64 572,-68.23"/>
<polygon fill="#7d9bbb" stroke="#7d9bbb" points="575.5,-68.32 572,-58.32 568.5,-68.32 575.5,-68.32"/>
</g>
<!-- BR&#45;&gt;OR -->
<g id="edge17" class="edge">
<title>BR&#45;&gt;OR</title>
<path fill="none" stroke="#4a5060" d="M691.95,-39.94C802,-47.29 953.46,-65.48 991,-110.38 1015.31,-139.46 1008.38,-161.99 991,-195.67 982.09,-212.93 967.31,-227.15 951.5,-238.46"/>
<polygon fill="#4a5060" stroke="#4a5060" points="949.71,-235.45 943.37,-243.94 953.62,-241.26 949.71,-235.45"/>
<text xml:space="preserve" text-anchor="middle" x="1048.37" y="-141.36" font-family="Helvetica,sans-Serif" font-size="9.00">validated JSON only</text>
</g>
<!-- LAT&#45;&gt;GW -->
<g id="edge20" class="edge">
<title>LAT&#45;&gt;GW</title>
<path fill="none" stroke="#4a5060" d="M1802.28,-179.9C1771.54,-215.28 1718.75,-269.98 1662,-301.69 1550.83,-363.79 1403.28,-381.76 1305.62,-386.36"/>
<polygon fill="#4a5060" stroke="#4a5060" points="1305.61,-382.85 1295.77,-386.78 1305.91,-389.85 1305.61,-382.85"/>
<text xml:space="preserve" text-anchor="middle" x="1804.3" y="-269.75" font-family="Helvetica,sans-Serif" font-size="9.00">verdict persisted immediately</text>
</g>
<!-- AG&#45;&gt;LAT -->
<g id="edge23" class="edge">
<title>AG&#45;&gt;LAT</title>
<path fill="none" stroke="#2f8f63" d="M1389.12,-145.03C1438.43,-145.03 1496.93,-145.03 1554.93,-145.03"/>
<polygon fill="#2f8f63" stroke="#2f8f63" points="1554.63,-148.53 1564.63,-145.03 1554.63,-141.53 1554.63,-148.53"/>
<text xml:space="preserve" text-anchor="middle" x="1477.65" y="-149.23" font-family="Helvetica,sans-Serif" font-size="9.00">fold: raise&#45;only, capped SUSPICIOUS</text>
</g>
<!-- HITL -->
<g id="node15" class="node">
<title>HITL</title>
<path fill="#f4e6e6" stroke="#3d4757" d="M1339.2,-52C1339.2,-52 1184.8,-52 1184.8,-52 1178.8,-52 1172.8,-46 1172.8,-40 1172.8,-40 1172.8,-28 1172.8,-28 1172.8,-22 1178.8,-16 1184.8,-16 1184.8,-16 1339.2,-16 1339.2,-16 1345.2,-16 1351.2,-22 1351.2,-28 1351.2,-28 1351.2,-40 1351.2,-40 1351.2,-46 1345.2,-52 1339.2,-52"/>
<text xml:space="preserve" text-anchor="middle" x="1262" y="-35.75" font-family="Helvetica,sans-Serif" font-size="10.00">HITL</text>
<text xml:space="preserve" text-anchor="middle" x="1262" y="-24.5" font-family="Helvetica,sans-Serif" font-size="10.00">Temporal query + durable signal (7d)</text>
</g>
<!-- AG&#45;&gt;HITL -->
<g id="edge24" class="edge">
<title>AG&#45;&gt;HITL</title>
<path fill="none" stroke="#c73338" d="M1262,-121.97C1262,-105.2 1262,-82 1262,-63.78"/>
<polygon fill="#c73338" stroke="#c73338" points="1265.5,-63.88 1262,-53.88 1258.5,-63.88 1265.5,-63.88"/>
<text xml:space="preserve" text-anchor="middle" x="1279.25" y="-79.83" font-family="Helvetica,sans-Serif" font-size="9.00">escalate</text>
</g>
<!-- HITL&#45;&gt;CON -->
<g id="edge25" class="edge">
<title>HITL&#45;&gt;CON</title>
<path fill="none" stroke="#6a1b9a" d="M1362.84,-36.54C1575.96,-40.85 2056.7,-56.49 2106,-110.38 2131.58,-138.35 2131.36,-167.5 2106,-195.67 2046.94,-261.26 1798.52,-225.72 1711,-237.17 1675.89,-241.76 1637.81,-247.46 1603.13,-252.92"/>
<polygon fill="#6a1b9a" stroke="#6a1b9a" points="1362.94,-33.04 1352.87,-36.35 1362.8,-40.04 1362.94,-33.04"/>
<polygon fill="#6a1b9a" stroke="#6a1b9a" points="1602.82,-249.42 1593.49,-254.45 1603.92,-256.34 1602.82,-249.42"/>
<text xml:space="preserve" text-anchor="middle" x="2151.35" y="-141.36" font-family="Helvetica,sans-Serif" font-size="9.00">review panel</text>
</g>
</g>
</svg>
